<svg xmlns="http://www.w3.org/2000/svg" xmlns:xlink="http://www.w3.org/1999/xlink" width="207" height="207" viewBox="0 0 207 207"><defs><style>.a{fill:url(#a);}.b{mix-blend-mode:multiply;}.b,.e{isolation:isolate;}.c{fill:#fff;}.d{fill:url(#d);}.e{mix-blend-mode:screen;}.f{filter:url(#b);}</style><linearGradient id="a" x1="0.5" x2="0.5" y2="1" gradientUnits="objectBoundingBox"><stop offset="0" stop-color="#efefef"/><stop offset="0.36" stop-color="#c3c3c3"/><stop offset="1" stop-color="#919191"/></linearGradient><filter id="b" x="0" y="0" width="207" height="207" filterUnits="userSpaceOnUse"><feOffset dy="3" input="SourceAlpha"/><feGaussianBlur stdDeviation="3" result="c"/><feFlood flood-opacity="0.161"/><feComposite operator="in" in2="c"/><feComposite in="SourceGraphic"/></filter><linearGradient id="d" x1="0.5" x2="0.317" y2="0.817" gradientUnits="objectBoundingBox"><stop offset="0" stop-color="#121212"/><stop offset="1" stop-color="#606060"/></linearGradient></defs><g transform="translate(9 6)"><g class="f" transform="matrix(1, 0, 0, 1, -9, -6)"><rect class="a" width="189" height="189" rx="25" transform="translate(9 6)"/></g><g transform="translate(-317.878 -238.258)"><g transform="translate(194.864 168.335)"><g class="b" transform="translate(138.847 93.977)"><path class="c" d="M61.586,1.133c34.013.626,62.094,31.75,62.72,69.518S97.866,138.529,63.853,137.9,1.759,106.153,1.133,68.385,27.573.507,61.586,1.133Z" transform="translate(0 121.219) rotate(-80.783)"/></g><g transform="translate(151.679 99.684)"><path class="d" d="M265.335,150.413c-.713-3.509,4.115-8.017,8.477-10.35a65.232,65.232,0,0,0-9.094-16c-4.261,2.561-10.86,4.687-13.382,1.837-2.372-2.679-.445-8.991,2.158-13.194a66.152,66.152,0,0,0-15.873-9.313c-2.411,4.343-7.059,9.482-10.666,8.276-3.4-1.136-4.882-7.577-4.724-12.523a65.612,65.612,0,0,0-18.405-.108c.086,4.967-1.375,11.741-5.1,12.5-3.509.713-8.013-4.116-10.346-8.477a65.215,65.215,0,0,0-16.008,9.094c2.566,4.265,4.691,10.863,1.841,13.381-2.68,2.372-8.987.445-13.191-2.158a65.974,65.974,0,0,0-9.313,15.869c4.344,2.415,9.479,7.063,8.273,10.67-1.136,3.4-7.574,4.881-12.519,4.723a65.429,65.429,0,0,0-.112,18.408c4.967-.086,11.735,1.372,12.492,5.095.717,3.508-4.115,8.017-8.473,10.35a65.21,65.21,0,0,0,9.1,16c4.259-2.561,10.859-4.686,13.377-1.835,2.372,2.679.449,8.986-2.158,13.191a66.109,66.109,0,0,0,15.873,9.313c2.415-4.344,7.063-9.479,10.666-8.273,3.4,1.137,4.885,7.573,4.724,12.519a65.421,65.421,0,0,0,18.407.112c-.082-4.969,1.375-11.741,5.1-12.5,3.509-.713,8.013,4.116,10.346,8.479a65.262,65.262,0,0,0,16.008-9.1c-2.561-4.261-4.69-10.859-1.841-13.381,2.68-2.372,8.989-.445,13.192,2.162a65.948,65.948,0,0,0,9.316-15.873c-4.343-2.411-9.482-7.063-8.277-10.67,1.137-3.4,7.578-4.882,12.523-4.724a65.419,65.419,0,0,0,.112-18.407C272.86,155.594,266.092,154.137,265.335,150.413Zm-44.009,56.826a43.843,43.843,0,1,1,34.23-51.7A43.844,43.844,0,0,1,221.326,207.239Z" transform="translate(-146.757 -98.438)"/><g class="e" transform="translate(0.62)"><path class="d" d="M207.369,99.907c-.158,4.945,1.327,11.386,4.724,12.523,2.2.734,4.781-.893,7.011-3.255-2.041,1.931-4.3,3.142-6.246,2.49-3.4-1.136-4.884-7.578-4.725-12.523a65.613,65.613,0,0,0-18.405-.108c0,.226,0,.457,0,.689A65.572,65.572,0,0,1,207.369,99.907Z" transform="translate(-133.278 -98.438)"/><path class="d" d="M170.079,120.134a3.465,3.465,0,0,0,.549-.635c-2.78,2.122-8.869.254-12.973-2.288-.218.274-.41.566-.624.843C161.232,120.616,167.428,122.481,170.079,120.134Z" transform="translate(-144.006 -92.278)"/><path class="d" d="M181.288,102.678c2.335,4.363,6.837,9.192,10.346,8.479a4.14,4.14,0,0,0,2.383-1.579,3.694,3.694,0,0,1-1.618.814c-3.509.713-8.013-4.116-10.346-8.477a65.216,65.216,0,0,0-16.008,9.094c.029.049.058.1.088.153A65.184,65.184,0,0,1,181.288,102.678Z" transform="translate(-141.048 -97.298)"/><path class="d" d="M230.407,112.243c-2.6,4.2-4.529,10.516-2.158,13.195,2.522,2.849,9.122.724,13.382-1.837a65.24,65.24,0,0,1,8.978,15.737c.293-.174.588-.341.881-.5a65.232,65.232,0,0,0-9.094-16c-4.261,2.562-10.86,4.687-13.382,1.837-2.372-2.679-.445-8.991,2.158-13.194a66.152,66.152,0,0,0-15.873-9.313c-.161.29-.333.583-.513.878A66.235,66.235,0,0,1,230.407,112.243Z" transform="translate(-125.054 -97.215)"/><path class="d" d="M202.35,199.9c.255-.032.509-.041.762-.076-.061-3.724.742-8.462,2.717-10.92C203.438,190.884,202.4,195.842,202.35,199.9Z" transform="translate(-129.135 -68.752)"/><path class="d" d="M236.227,159.109a3.835,3.835,0,0,1,.639-1.152,4.358,4.358,0,0,0-1.4,1.916c-1.2,3.607,3.934,8.258,8.278,10.67a65.891,65.891,0,0,1-8.694,15.028c.045.028.1.052.141.08a65.909,65.909,0,0,0,9.317-15.873C240.161,167.367,235.022,162.716,236.227,159.109Z" transform="translate(-118.407 -78.908)"/><path class="d" d="M225.2,177.659c-.066.05-.155.074-.218.129-2.816,2.493-.766,8.966,1.754,13.23.279-.21.575-.4.851-.612C225.216,186.462,223.222,180.521,225.2,177.659Z" transform="translate(-122.155 -72.443)"/><path class="d" d="M158.427,138.636c-2.432,2.036-7.229,2.931-11.115,2.806-.038.256-.052.517-.088.773C151.447,142.223,156.489,141.084,158.427,138.636Z" transform="translate(-147.224 -85.248)"/><path class="d" d="M248.742,144.134c-4.971.086-11.739-1.371-12.5-5.095-.377-1.858.8-4,2.643-5.941-2.263,2.138-3.836,4.6-3.408,6.706.757,3.723,7.527,5.181,12.5,5.095a65.315,65.315,0,0,1-.024,17.634c.227,0,.456,0,.677.008A65.37,65.37,0,0,0,248.742,144.134Z" transform="translate(-118.287 -87.065)"/></g><path class="d" d="M198.74,122.459A35.817,35.817,0,1,1,170.776,164.7a35.859,35.859,0,0,1,27.964-42.236m-.564-2.773a38.647,38.647,0,1,0,45.574,30.174,38.648,38.648,0,0,0-45.574-30.174Z" transform="translate(-140.042 -91.723)"/><path class="d" d="M198.59,116.309a43.5,43.5,0,1,1-33.964,51.3,43.554,43.554,0,0,1,33.964-51.3m-.146-.72a44.238,44.238,0,1,0,52.165,34.538,44.239,44.239,0,0,0-52.165-34.538Z" transform="translate(-141.424 -93.104)"/></g></g><g transform="translate(237.153 206.023)"><g class="b" transform="translate(138.847 93.977)"><circle class="c" cx="31.672" cy="31.672" r="31.672" transform="translate(0 62.526) rotate(-80.783)"/></g><g transform="translate(144.774 96.613)"><path class="d" d="M201.528,122.445c-.329-1.621,1.9-3.7,3.916-4.781a30.131,30.131,0,0,0-4.2-7.392c-1.968,1.183-5.016,2.165-6.181.848-1.1-1.237-.206-4.153,1-6.094a30.555,30.555,0,0,0-7.331-4.3c-1.113,2.006-3.261,4.38-4.927,3.822-1.569-.525-2.255-3.5-2.182-5.784a30.306,30.306,0,0,0-8.5-.05c.04,2.294-.635,5.423-2.355,5.773-1.621.329-3.7-1.9-4.779-3.916a30.123,30.123,0,0,0-7.394,4.2c1.185,1.97,2.167,5.018.85,6.181-1.238,1.1-4.151.206-6.093-1a30.473,30.473,0,0,0-4.3,7.33c2.007,1.115,4.378,3.262,3.821,4.929-.525,1.569-3.5,2.254-5.783,2.181a30.222,30.222,0,0,0-.052,8.5c2.294-.04,5.421.634,5.77,2.353.331,1.62-1.9,3.7-3.914,4.781a30.121,30.121,0,0,0,4.2,7.392c1.967-1.183,5.016-2.164,6.179-.848,1.1,1.237.207,4.151-1,6.093a30.535,30.535,0,0,0,7.331,4.3c1.115-2.007,3.262-4.378,4.927-3.821,1.569.525,2.256,3.5,2.182,5.782a30.218,30.218,0,0,0,8.5.052c-.038-2.295.635-5.423,2.354-5.773,1.621-.329,3.7,1.9,4.779,3.916a30.145,30.145,0,0,0,7.394-4.2c-1.183-1.968-2.166-5.016-.85-6.181,1.238-1.1,4.152-.206,6.094,1a30.461,30.461,0,0,0,4.3-7.331c-2.006-1.113-4.38-3.262-3.823-4.929.525-1.569,3.5-2.255,5.784-2.182a30.217,30.217,0,0,0,.052-8.5C205,124.838,201.878,124.165,201.528,122.445ZM181.2,148.693a20.251,20.251,0,1,1,15.811-23.88A20.251,20.251,0,0,1,181.2,148.693Z" transform="translate(-146.757 -98.438)"/><g class="e" transform="translate(0.286)"><path class="d" d="M197.875,99.117c-.073,2.284.613,5.259,2.182,5.784,1.015.339,2.208-.412,3.238-1.5-.943.892-1.984,1.451-2.885,1.15-1.569-.525-2.256-3.5-2.183-5.784a30.306,30.306,0,0,0-8.5-.05c0,.1,0,.211,0,.318A30.288,30.288,0,0,1,197.875,99.117Z" transform="translate(-163.653 -98.438)"/><path class="d" d="M163.057,118.561a1.6,1.6,0,0,0,.253-.293c-1.284.98-4.1.117-5.992-1.057-.1.126-.19.261-.288.39C158.971,118.784,161.833,119.645,163.057,118.561Z" transform="translate(-151.014 -105.695)"/><path class="d" d="M173.086,102.267c1.078,2.015,3.158,4.246,4.779,3.916a1.912,1.912,0,0,0,1.1-.729,1.706,1.706,0,0,1-.747.376c-1.621.329-3.7-1.9-4.779-3.916a30.123,30.123,0,0,0-7.394,4.2l.04.071A30.108,30.108,0,0,1,173.086,102.267Z" transform="translate(-154.499 -99.782)"/><path class="d" d="M222,106.82c-1.2,1.942-2.092,4.857-1,6.095,1.165,1.316,4.213.334,6.181-.848a30.133,30.133,0,0,1,4.147,7.269c.136-.08.272-.158.407-.23a30.13,30.13,0,0,0-4.2-7.392c-1.968,1.183-5.016,2.165-6.181.848-1.1-1.237-.206-4.153,1-6.094a30.555,30.555,0,0,0-7.331-4.3c-.074.134-.154.269-.237.406A30.594,30.594,0,0,1,222,106.82Z" transform="translate(-173.34 -99.879)"/><path class="d" d="M202.35,193.987c.118-.015.235-.019.352-.035a8.724,8.724,0,0,1,1.255-5.044C202.852,189.821,202.371,192.111,202.35,193.987Z" transform="translate(-168.532 -133.408)"/><path class="d" d="M235.591,158.489a1.771,1.771,0,0,1,.3-.532,2.013,2.013,0,0,0-.648.885c-.556,1.666,1.817,3.815,3.824,4.929a30.435,30.435,0,0,1-4.016,6.941c.021.013.045.024.065.037a30.442,30.442,0,0,0,4.3-7.331C237.408,162.3,235.035,160.155,235.591,158.489Z" transform="translate(-181.171 -121.445)"/><path class="d" d="M224.35,177.659c-.031.023-.072.034-.1.059-1.3,1.151-.354,4.141.81,6.111.129-.1.266-.185.393-.283C224.358,181.725,223.437,178.981,224.35,177.659Z" transform="translate(-176.755 -129.06)"/><path class="d" d="M152.4,138.636a8.441,8.441,0,0,1-5.134,1.3c-.018.118-.024.239-.04.357C149.175,140.293,151.5,139.767,152.4,138.636Z" transform="translate(-147.224 -113.976)"/><path class="d" d="M241.568,138.2c-2.3.04-5.422-.633-5.772-2.353a3.408,3.408,0,0,1,1.221-2.744c-1.045.988-1.772,2.125-1.574,3.1.35,1.72,3.476,2.393,5.772,2.353a30.17,30.17,0,0,1-.011,8.145c.1,0,.21,0,.313,0A30.194,30.194,0,0,0,241.568,138.2Z" transform="translate(-181.311 -111.836)"/></g><path class="d" d="M181.78,120.546a16.544,16.544,0,1,1-12.916,19.509,16.563,16.563,0,0,1,12.916-19.509m-.261-1.281a17.851,17.851,0,1,0,21.05,13.937,17.851,17.851,0,0,0-21.05-13.937Z" transform="translate(-154.667 -106.349)"/><path class="d" d="M179.445,115.44a20.094,20.094,0,1,1-15.688,23.695,20.118,20.118,0,0,1,15.688-23.695m-.067-.333a20.433,20.433,0,1,0,24.095,15.953,20.434,20.434,0,0,0-24.095-15.953Z" transform="translate(-153.04 -104.722)"/></g></g></g></g></svg>