<svg xmlns="http://www.w3.org/2000/svg" xmlns:xlink="http://www.w3.org/1999/xlink" width="207" height="207" viewBox="0 0 207 207"><defs><style>.a{fill:url(#a);}.b{fill:#003781;}.c{fill:#0056cb;}.d{fill:#86d8fc;}.e{fill:#d3ecfc;}.f{filter:url(#b);}</style><linearGradient id="a" x1="0.5" x2="0.5" y2="1" gradientUnits="objectBoundingBox"><stop offset="0" stop-color="#1fe5ff"/><stop offset="1" stop-color="#007fff"/><stop offset="1" stop-color="gray"/></linearGradient><filter id="b" x="0" y="0" width="207" height="207" filterUnits="userSpaceOnUse"><feOffset dy="3" input="SourceAlpha"/><feGaussianBlur stdDeviation="3" result="c"/><feFlood flood-opacity="0.161"/><feComposite operator="in" in2="c"/><feComposite in="SourceGraphic"/></filter></defs><g transform="translate(9 6)"><g class="f" transform="matrix(1, 0, 0, 1, -9, -6)"><rect class="a" width="189" height="189" rx="25" transform="translate(9 6)"/></g><g transform="translate(22.181 24)"><g transform="translate(45.768 24.413)"><path class="b" d="M338.967,147.05a58.779,58.779,0,0,1-58.712,58.712q-2.085,0-4.145-.141l-3-3.223V152.018l3-6.292V88.338h4.145a58.779,58.779,0,0,1,58.712,58.712Z" transform="translate(-242.085 -88.338)"/><path class="c" d="M194.874,296v59.895a58.175,58.175,0,0,1-30.692-11.309l-3.333-2.462Z" transform="translate(-160.849 -238.61)"/></g><path class="d" d="M18.759,119.31l-2.707,3.139a58.688,58.688,0,0,0,9.641,85.585l3.336,2.463,37.118-50.315Z" transform="translate(0 -86.338)"/><path class="e" d="M125.809,0h-4.145A48.875,48.875,0,0,0,84.622,16.979l-2.707,3.139,43.894,37.858Z" transform="translate(-57.961)"/></g></g></svg>