<svg xmlns="http://www.w3.org/2000/svg" xmlns:xlink="http://www.w3.org/1999/xlink" width="207" height="207" viewBox="0 0 207 207"><defs><style>.a{fill:url(#a);}.b{fill:#00cb75;}.c{fill:#009398;}.d{fill:#90e36a;}.e{fill:#d6fc7e;}.f{filter:url(#b);}</style><linearGradient id="a" x1="0.5" x2="0.5" y2="1" gradientUnits="objectBoundingBox"><stop offset="0" stop-color="#a584ff"/><stop offset="1" stop-color="#5b00d8"/></linearGradient><filter id="b" x="0" y="0" width="207" height="207" filterUnits="userSpaceOnUse"><feOffset dy="3" input="SourceAlpha"/><feGaussianBlur stdDeviation="3" result="c"/><feFlood flood-opacity="0.161"/><feComposite operator="in" in2="c"/><feComposite in="SourceGraphic"/></filter></defs><g transform="translate(9 6)"><g class="f" transform="matrix(1, 0, 0, 1, -9, -6)"><rect class="a" width="189" height="189" rx="25" transform="translate(9 6)"/></g><g transform="translate(19 39.057)"><g transform="translate(21 100.39)"><path class="b" d="M128.971,447.338H21v-6.892A3.446,3.446,0,0,1,24.446,437H125.525a3.446,3.446,0,0,1,3.446,3.446Z" transform="translate(-21 -437)"/><path class="c" d="M306.539,437H256v10.338h53.985v-6.892A3.446,3.446,0,0,0,306.539,437Z" transform="translate(-202.015 -437)"/></g><g transform="translate(21 93.498)"><path class="d" d="M128.971,417.338H21v-6.892A3.446,3.446,0,0,1,24.446,407H125.525a3.446,3.446,0,0,1,3.446,3.446Z" transform="translate(-21 -407)"/><path class="b" d="M306.539,407H256v10.338h53.985v-6.892A3.446,3.446,0,0,0,306.539,407Z" transform="translate(-202.015 -407)"/></g><g transform="translate(21 86.606)"><path class="b" d="M128.971,387.338H21v-6.892A3.446,3.446,0,0,1,24.446,377H125.525a3.446,3.446,0,0,1,3.446,3.446Z" transform="translate(-21 -377)"/><path class="c" d="M306.539,377H256v10.338h53.985v-6.892A3.446,3.446,0,0,0,306.539,377Z" transform="translate(-202.015 -377)"/></g><g transform="translate(21 79.714)"><path class="d" d="M128.971,357.338H21v-6.892A3.446,3.446,0,0,1,24.446,347H125.525a3.446,3.446,0,0,1,3.446,3.446Z" transform="translate(-21 -347)"/><path class="b" d="M306.539,347H256v10.338h53.985v-6.892A3.446,3.446,0,0,0,306.539,347Z" transform="translate(-202.015 -347)"/></g><g transform="translate(21 72.823)"><path class="b" d="M128.971,327.338H21v-6.892A3.446,3.446,0,0,1,24.446,317H125.525a3.446,3.446,0,0,1,3.446,3.446Z" transform="translate(-21 -317)"/><path class="c" d="M306.539,317H256v10.338h53.985v-6.892A3.446,3.446,0,0,0,306.539,317Z" transform="translate(-202.015 -317)"/></g><g transform="translate(21 65.931)"><path class="d" d="M128.971,297.338H21v-6.892A3.446,3.446,0,0,1,24.446,287H125.525a3.446,3.446,0,0,1,3.446,3.446Z" transform="translate(-21 -287)"/><path class="b" d="M306.539,287H256v10.338h53.985v-6.892A3.446,3.446,0,0,0,306.539,287Z" transform="translate(-202.015 -287)"/></g><g transform="translate(21 59.039)"><path class="b" d="M128.971,267.338H21v-6.892A3.446,3.446,0,0,1,24.446,257H125.525a3.446,3.446,0,0,1,3.446,3.446Z" transform="translate(-21 -257)"/><path class="c" d="M306.539,257H256v10.338h53.985v-6.892A3.446,3.446,0,0,0,306.539,257Z" transform="translate(-202.015 -257)"/></g><path class="e" d="M128.971,25.27,103.7,0H46.27L21,25.27V37.215l25.27,25.27H103.7l25.27-25.27Z"/><path class="d" d="M284.716,0H256V62.485h28.716l25.27-25.27V25.27Z" transform="translate(-181.015)"/><g transform="translate(21)"><path class="d" d="M46.27,187.27H21V162A25.27,25.27,0,0,1,46.27,187.27Z" transform="translate(-21 -124.785)"/><path class="d" d="M21,25.27V0H46.27A25.27,25.27,0,0,1,21,25.27Z" transform="translate(-21)"/><g transform="translate(82.701)"><path class="b" d="M406.27,187.27H381A25.27,25.27,0,0,1,406.27,162Z" transform="translate(-381 -124.785)"/><path class="b" d="M406.27,25.27A25.27,25.27,0,0,1,381,0h25.27V25.27Z" transform="translate(-381)"/></g></g><path class="d" d="M182.824,62.485c-6.1,0-11.74-3.44-15.87-9.687C163.115,46.991,161,39.335,161,31.243s2.115-15.748,5.954-21.556C171.084,3.44,176.72,0,182.824,0s11.74,3.44,15.87,9.687c3.84,5.807,5.954,13.463,5.954,21.556s-2.115,15.748-5.954,21.556C194.563,59.045,188.927,62.485,182.824,62.485Z" transform="translate(-107.839)"/><path class="b" d="M271.87,9.687C267.74,3.44,262.1,0,256,0V62.485c6.1,0,11.74-3.44,15.87-9.687,3.84-5.807,5.954-13.463,5.954-21.556S275.709,15.494,271.87,9.687Z" transform="translate(-181.015)"/><ellipse class="d" cx="3.629" cy="3.37" rx="3.629" ry="3.37" transform="translate(39.211 27.702)"/><ellipse class="b" cx="3.629" cy="3.37" rx="3.629" ry="3.37" transform="translate(103.501 27.702)"/><path class="e" d="M227.511,68.206c-.464-.164-.938-.335-1.411-.511V59.4a3.666,3.666,0,0,1,1.483.829,2.3,2.3,0,0,0,3.454-3.029,8.41,8.41,0,0,0-4.937-2.5V53.3a2.3,2.3,0,0,0-4.594,0v1.66c-.19.048-.381.1-.576.159a8.128,8.128,0,0,0-5.572,6.373,7.2,7.2,0,0,0,2.374,7.094,18.206,18.206,0,0,0,3.774,2.194V81.46a7.525,7.525,0,0,1-3.529-1.449,2.3,2.3,0,1,0-2.515,3.845,11.756,11.756,0,0,0,6.044,2.221v1.68a2.3,2.3,0,0,0,4.594,0V85.863a9.838,9.838,0,0,0,7.292-7.872,8.548,8.548,0,0,0-5.881-9.785Zm-6.944-3.238a2.709,2.709,0,0,1-.694-2.628,3.755,3.755,0,0,1,1.633-2.488v5.756A9.5,9.5,0,0,1,220.567,64.968Zm8.295,12.261a5.229,5.229,0,0,1-2.762,3.777V72.584A4.039,4.039,0,0,1,228.862,77.229Z" transform="translate(-148.988 -39.284)"/><path class="d" d="M259.538,68.235c-.464-.164-.938-.335-1.411-.511v-8.3a3.667,3.667,0,0,1,1.483.829,2.3,2.3,0,0,0,3.454-3.029,8.41,8.41,0,0,0-4.937-2.5v-1.4A2.3,2.3,0,0,0,256,51.037V90.073a2.3,2.3,0,0,0,2.127-2.289V85.891a9.838,9.838,0,0,0,7.292-7.872A8.549,8.549,0,0,0,259.538,68.235Zm1.35,9.023a5.229,5.229,0,0,1-2.762,3.777V72.613A4.039,4.039,0,0,1,260.889,77.258Z" transform="translate(-181.015 -39.313)"/></g></g></svg>