<svg xmlns="http://www.w3.org/2000/svg" xmlns:xlink="http://www.w3.org/1999/xlink" width="207" height="207" viewBox="0 0 207 207"><defs><style>.a{fill:url(#a);}.b{fill:#ecf0f1;}.c{fill:#bdc3c7;}.d{fill:#e94b35;}.e{fill:#f4cc20;}.f{fill:#2b3e51;}.g{fill:#00bd9c;}.h{filter:url(#b);}</style><linearGradient id="a" x1="0.5" x2="0.5" y2="1" gradientUnits="objectBoundingBox"><stop offset="0" stop-color="#91e250"/><stop offset="1" stop-color="#0ca20d"/></linearGradient><filter id="b" x="0" y="0" width="207" height="207" filterUnits="userSpaceOnUse"><feOffset dy="3" input="SourceAlpha"/><feGaussianBlur stdDeviation="3" result="c"/><feFlood flood-opacity="0.161"/><feComposite operator="in" in2="c"/><feComposite in="SourceGraphic"/></filter></defs><g transform="translate(9 6)"><g class="h" transform="matrix(1, 0, 0, 1, -9, -6)"><rect class="a" width="189" height="189" rx="25" transform="translate(9 6)"/></g><g transform="translate(-97 -56)"><g transform="translate(132 72)"><path class="b" d="M225.974,97.71V72.87a9.168,9.168,0,0,0-3.546-.87H135.546A3.557,3.557,0,0,0,132,75.546V225.372a3.557,3.557,0,0,0,3.546,3.546H248.137a3.557,3.557,0,0,0,3.546-3.546V101.256a9.168,9.168,0,0,0-.87-3.546Z" transform="translate(-132 -72)"/><path class="c" d="M368.84,98.8a8.611,8.611,0,0,0-1.637-2.507L356.855,85.947,346.5,75.6a8.625,8.625,0,0,0-2.5-1.634V98.8Z" transform="translate(-250.026 -73.092)"/><rect class="d" width="17.535" height="37.838" transform="translate(19.235 40.621)"/><rect class="e" width="17.535" height="30.455" transform="translate(40.461 48.004)"/><rect class="f" width="17.535" height="22.149" transform="translate(61.688 56.31)"/><rect class="g" width="17.535" height="50.759" transform="translate(82.914 27.7)"/><rect class="c" width="81.214" height="5.537" transform="translate(19.235 83.996)"/><g transform="translate(19.504 100.179)"><path class="e" d="M242.237,303.642A22.734,22.734,0,0,0,227.222,298c-.074,0-.148,0-.222.006v23.885Z" transform="translate(-204.393 -298)"/><path class="g" d="M198.607,298.013A22.821,22.821,0,0,0,184.6,338.678l14.011-16.78Z" transform="translate(-176 -298.007)"/><path class="d" d="M242.237,310.727,227,328.976v21.761c.074,0,.148.006.222.006a22.823,22.823,0,0,0,15.015-40.016Z" transform="translate(-204.393 -305.086)"/><path class="f" d="M195.392,368.676a22.722,22.722,0,0,0,14.011,4.98V351.895Z" transform="translate(-186.796 -328.005)"/></g><g transform="translate(74.47 106.164)"><circle class="e" cx="3.546" cy="3.546" r="3.546"/><circle class="g" cx="3.546" cy="3.546" r="3.546" transform="translate(0 8.865)"/><circle class="f" cx="3.546" cy="3.546" r="3.546" transform="translate(0 17.731)"/><circle class="d" cx="3.546" cy="3.546" r="3.546" transform="translate(0 26.596)"/></g><g transform="translate(85.33 108.158)"><path class="c" d="M345.555,318.216H325.608a1.108,1.108,0,1,1,0-2.216h19.947a1.108,1.108,0,0,1,0,2.216Z" transform="translate(-324.5 -316)"/></g><g transform="translate(85.33 117.024)"><path class="c" d="M342.009,338.216h-16.4a1.108,1.108,0,1,1,0-2.216h16.4a1.108,1.108,0,1,1,0,2.216Z" transform="translate(-324.5 -336)"/></g><g transform="translate(85.33 125.889)"><path class="c" d="M342.009,358.216h-16.4a1.108,1.108,0,1,1,0-2.216h16.4a1.108,1.108,0,0,1,0,2.216Z" transform="translate(-324.5 -356)"/></g><g transform="translate(84.443 134.755)"><path class="c" d="M343.112,378.216h-19.5a1.108,1.108,0,1,1,0-2.216h19.5a1.108,1.108,0,1,1,0,2.216Z" transform="translate(-322.5 -376)"/></g><rect class="c" width="30.455" height="7.383" transform="translate(7.237 5.551)"/><g transform="translate(41.003 4.433)"><path class="c" d="M261.513,84.216h-35.9a1.108,1.108,0,1,1,0-2.216h35.9a1.108,1.108,0,1,1,0,2.216Z" transform="translate(-224.5 -82)"/></g><g transform="translate(41.003 8.422)"><path class="c" d="M253.978,93.216H225.608a1.108,1.108,0,1,1,0-2.216h28.369a1.108,1.108,0,1,1,0,2.216Z" transform="translate(-224.5 -91)"/></g><g transform="translate(41.003 11.968)"><path class="c" d="M265.059,101.216H225.608a1.108,1.108,0,1,1,0-2.216h39.451a1.108,1.108,0,1,1,0,2.216Z" transform="translate(-224.5 -99)"/></g><rect class="f" width="75.677" height="5.537" transform="translate(7.237 19.394)"/></g></g></g></svg>