<svg xmlns="http://www.w3.org/2000/svg" width="103.5" height="135.7" viewBox="0 0 103.5 135.7"><defs><style>.a{fill:#ecf0f1;}.b{fill:#bdc3c7;}.c{fill:#8c171a;}.d{fill:#a2a2a2;}.e{fill:gray;}.f{fill:#919191;}.g{fill:#6a0a0c;}.h{fill:#c1c1c1;}.i{fill:#2b3e51;}</style></defs><path class="a" d="M213.267,94.233V72.752A7.928,7.928,0,0,0,210.2,72H137.067A4.762,4.762,0,0,0,132,77.067V202.633a4.831,4.831,0,0,0,4.846,5.064c-.142,0,.037,0,.221,0h95.367a3.076,3.076,0,0,0,3.067-3.067V97.3a7.928,7.928,0,0,0-.752-3.067Z" transform="translate(-132 -72)"/><path class="b" d="M365.481,95.443a7.448,7.448,0,0,0-1.416-2.168l-8.948-8.949-8.951-8.951A7.459,7.459,0,0,0,344,73.962V95.443Z" transform="translate(-262.733 -73.21)"/><path class="c" d="M0,0H15.164V32.722H0Z" transform="translate(16.634 35.128)"/><rect class="d" width="15.164" height="26.337" transform="translate(34.99 41.513)"/><rect class="e" width="15.164" height="19.154" transform="translate(53.346 48.696)"/><rect class="f" width="15.164" height="43.895" transform="translate(71.702 23.955)"/><rect class="b" width="70.233" height="4.789" transform="translate(16.634 72.639)"/><g transform="translate(16.867 86.633)"><path class="d" d="M240.177,302.879A19.66,19.66,0,0,0,227.192,298c-.064,0-.128,0-.192,0V318.66Z" transform="translate(-207.45 -298)"/><path class="e" d="M195.55,298.013a19.735,19.735,0,0,0-12.116,35.167l12.116-14.511Z" transform="translate(-176 -298.008)"/><path class="g" d="M240.177,310.727,227,326.508v18.819c.064,0,.128.005.192.005a19.737,19.737,0,0,0,12.985-34.605Z" transform="translate(-207.45 -305.848)"/><path class="f" d="M195.392,366.407a19.649,19.649,0,0,0,12.116,4.307V351.895Z" transform="translate(-187.958 -331.235)"/></g><g transform="translate(64.4 91.808)"><circle class="d" cx="3.067" cy="3.067" r="3.067"/><circle class="h" cx="3.067" cy="3.067" r="3.067" transform="translate(0 7.667)"/><circle class="f" cx="3.067" cy="3.067" r="3.067" transform="translate(0 15.333)"/><circle class="g" cx="3.067" cy="3.067" r="3.067" transform="translate(0 23)"/></g><g transform="translate(73.792 93.533)"><path class="b" d="M342.708,317.917h-17.25a.958.958,0,0,1,0-1.917h17.25a.958.958,0,1,1,0,1.917Z" transform="translate(-324.5 -316)"/></g><g transform="translate(73.792 101.2)"><path class="b" d="M339.642,337.917H325.458a.958.958,0,0,1,0-1.917h14.183a.958.958,0,1,1,0,1.917Z" transform="translate(-324.5 -336)"/></g><g transform="translate(73.792 108.867)"><path class="b" d="M339.642,357.917H325.458a.958.958,0,0,1,0-1.917h14.183a.958.958,0,1,1,0,1.917Z" transform="translate(-324.5 -356)"/></g><g transform="translate(73.025 116.533)"><path class="b" d="M340.325,377.917H323.458a.958.958,0,1,1,0-1.917h16.867a.958.958,0,0,1,0,1.917Z" transform="translate(-322.5 -376)"/></g><rect class="b" width="26.337" height="6.385" transform="translate(6.259 4.8)"/><g transform="translate(35.458 3.833)"><path class="b" d="M256.508,83.917h-31.05a.958.958,0,1,1,0-1.917h31.05a.958.958,0,1,1,0,1.917Z" transform="translate(-224.5 -82)"/></g><g transform="translate(35.458 7.283)"><path class="b" d="M249.992,92.917H225.458a.958.958,0,1,1,0-1.917h24.533a.958.958,0,1,1,0,1.917Z" transform="translate(-224.5 -91)"/></g><g transform="translate(35.458 10.35)"><path class="b" d="M259.575,100.917H225.458a.958.958,0,1,1,0-1.917h34.117a.958.958,0,1,1,0,1.917Z" transform="translate(-224.5 -99)"/></g><rect class="i" width="65.444" height="4.789" transform="translate(6.259 16.772)"/></svg>