<svg xmlns="http://www.w3.org/2000/svg" xmlns:xlink="http://www.w3.org/1999/xlink" width="131.671" height="131.672" viewBox="0 0 131.671 131.672"><defs><style>.a{mix-blend-mode:multiply;}.a,.c{isolation:isolate;}.b{fill:#adadad;}.c{mix-blend-mode:screen;}.d{fill:url(#a);}.e{fill:url(#j);}.f{fill:#cecece;}.g{fill:#8c171a;}</style><linearGradient id="a" x1="0.5" x2="0.317" y2="0.817" gradientUnits="objectBoundingBox"><stop offset="0" stop-color="#121212"/><stop offset="1" stop-color="#606060"/></linearGradient><linearGradient id="j" x1="0.5" x2="0.317" y2="0.817" gradientUnits="objectBoundingBox"><stop offset="0" stop-color="#504e4e"/><stop offset="1" stop-color="#606060"/></linearGradient></defs><g transform="translate(-37.651 -26.019)"><g transform="translate(-308.892 -242.001)"><g transform="translate(194.864 168.335)"><g transform="translate(151.679 99.684)"><path class="b" d="M265.335,150.413c-.713-3.509,4.115-8.017,8.477-10.35a65.232,65.232,0,0,0-9.094-16c-4.261,2.561-10.86,4.687-13.382,1.837-2.372-2.679-.445-8.991,2.158-13.194a66.152,66.152,0,0,0-15.873-9.313c-2.411,4.343-7.059,9.482-10.666,8.276-3.4-1.136-4.882-7.577-4.724-12.523a65.612,65.612,0,0,0-18.405-.108c.086,4.967-1.375,11.741-5.1,12.5-3.509.713-8.013-4.116-10.346-8.477a65.215,65.215,0,0,0-16.008,9.094c2.566,4.265,4.691,10.863,1.841,13.381-2.68,2.372-8.987.445-13.191-2.158a65.974,65.974,0,0,0-9.313,15.869c4.344,2.415,9.479,7.063,8.273,10.67-1.136,3.4-7.574,4.881-12.519,4.723a65.429,65.429,0,0,0-.112,18.408c4.967-.086,11.735,1.372,12.492,5.095.717,3.508-4.115,8.017-8.473,10.35a65.21,65.21,0,0,0,9.1,16c4.259-2.561,10.859-4.686,13.377-1.835,2.372,2.679.449,8.986-2.158,13.191a66.109,66.109,0,0,0,15.873,9.313c2.415-4.344,7.063-9.479,10.666-8.273,3.4,1.137,4.885,7.573,4.724,12.519a65.421,65.421,0,0,0,18.407.112c-.082-4.969,1.375-11.741,5.1-12.5,3.509-.713,8.013,4.116,10.346,8.479a65.262,65.262,0,0,0,16.008-9.1c-2.561-4.261-4.69-10.859-1.841-13.381,2.68-2.372,8.989-.445,13.192,2.162a65.948,65.948,0,0,0,9.316-15.873c-4.343-2.411-9.482-7.063-8.277-10.67,1.137-3.4,7.578-4.882,12.523-4.724a65.419,65.419,0,0,0,.112-18.407C272.86,155.594,266.092,154.137,265.335,150.413Zm-44.009,56.826a43.843,43.843,0,1,1,34.23-51.7A43.844,43.844,0,0,1,221.326,207.239Z" transform="translate(-146.757 -98.438)"/><g class="c" transform="translate(0.62)"><path class="d" d="M207.369,99.907c-.158,4.945,1.327,11.386,4.724,12.523,2.2.734,4.781-.893,7.011-3.255-2.041,1.931-4.3,3.142-6.246,2.49-3.4-1.136-4.884-7.578-4.725-12.523a65.613,65.613,0,0,0-18.405-.108c0,.226,0,.457,0,.689A65.572,65.572,0,0,1,207.369,99.907Z" transform="translate(-133.278 -98.438)"/><path class="d" d="M170.079,120.134a3.465,3.465,0,0,0,.549-.635c-2.78,2.122-8.869.254-12.973-2.288-.218.274-.41.566-.624.843C161.232,120.616,167.428,122.481,170.079,120.134Z" transform="translate(-144.006 -92.278)"/><path class="d" d="M181.288,102.678c2.335,4.363,6.837,9.192,10.346,8.479a4.14,4.14,0,0,0,2.383-1.579,3.694,3.694,0,0,1-1.618.814c-3.509.713-8.013-4.116-10.346-8.477a65.216,65.216,0,0,0-16.008,9.094c.029.049.058.1.088.153A65.184,65.184,0,0,1,181.288,102.678Z" transform="translate(-141.048 -97.298)"/><path class="d" d="M230.407,112.243c-2.6,4.2-4.529,10.516-2.158,13.195,2.522,2.849,9.122.724,13.382-1.837a65.24,65.24,0,0,1,8.978,15.737c.293-.174.588-.341.881-.5a65.232,65.232,0,0,0-9.094-16c-4.261,2.562-10.86,4.687-13.382,1.837-2.372-2.679-.445-8.991,2.158-13.194a66.152,66.152,0,0,0-15.873-9.313c-.161.29-.333.583-.513.878A66.235,66.235,0,0,1,230.407,112.243Z" transform="translate(-125.054 -97.215)"/><path class="d" d="M202.35,199.9c.255-.032.509-.041.762-.076-.061-3.724.742-8.462,2.717-10.92C203.438,190.884,202.4,195.842,202.35,199.9Z" transform="translate(-129.135 -68.752)"/><path class="d" d="M236.227,159.109a3.835,3.835,0,0,1,.639-1.152,4.358,4.358,0,0,0-1.4,1.916c-1.2,3.607,3.934,8.258,8.278,10.67a65.891,65.891,0,0,1-8.694,15.028c.045.028.1.052.141.08a65.909,65.909,0,0,0,9.317-15.873C240.161,167.367,235.022,162.716,236.227,159.109Z" transform="translate(-118.407 -78.908)"/><path class="d" d="M225.2,177.659c-.066.05-.155.074-.218.129-2.816,2.493-.766,8.966,1.754,13.23.279-.21.575-.4.851-.612C225.216,186.462,223.222,180.521,225.2,177.659Z" transform="translate(-122.155 -72.443)"/><path class="d" d="M158.427,138.636c-2.432,2.036-7.229,2.931-11.115,2.806-.038.256-.052.517-.088.773C151.447,142.223,156.489,141.084,158.427,138.636Z" transform="translate(-147.224 -85.248)"/><path class="d" d="M248.742,144.134c-4.971.086-11.739-1.371-12.5-5.095-.377-1.858.8-4,2.643-5.941-2.263,2.138-3.836,4.6-3.408,6.706.757,3.723,7.527,5.181,12.5,5.095a65.315,65.315,0,0,1-.024,17.634c.227,0,.456,0,.677.008A65.37,65.37,0,0,0,248.742,144.134Z" transform="translate(-118.287 -87.065)"/></g><path class="e" d="M198.59,116.309a43.5,43.5,0,1,1-33.964,51.3,43.554,43.554,0,0,1,33.964-51.3m-.146-.72a44.238,44.238,0,1,0,52.165,34.538,44.239,44.239,0,0,0-52.165-34.538Z" transform="translate(-141.424 -93.104)"/></g></g></g><g transform="translate(-78.739 -42.977)"><g transform="translate(145.925 97.125)"><path class="f" d="M212.164,127.107c-.393-1.936,2.27-4.422,4.676-5.709a35.982,35.982,0,0,0-5.016-8.828c-2.35,1.412-5.99,2.585-7.382,1.013-1.308-1.478-.245-4.96,1.19-7.278a36.488,36.488,0,0,0-8.755-5.137c-1.33,2.4-3.894,5.23-5.883,4.565-1.873-.626-2.693-4.179-2.606-6.908a36.192,36.192,0,0,0-10.152-.059c.048,2.74-.758,6.476-2.812,6.894-1.936.393-4.42-2.27-5.707-4.676a35.972,35.972,0,0,0-8.83,5.016c1.415,2.352,2.587,5.992,1.015,7.381-1.478,1.308-4.957.245-7.276-1.19a36.39,36.39,0,0,0-5.137,8.753c2.4,1.332,5.228,3.9,4.563,5.886-.626,1.874-4.178,2.692-6.905,2.605a36.09,36.09,0,0,0-.062,10.154c2.74-.048,6.473.757,6.891,2.81.4,1.935-2.27,4.422-4.674,5.709a35.97,35.97,0,0,0,5.017,8.827c2.349-1.412,5.99-2.585,7.379-1.012,1.308,1.478.248,4.957-1.19,7.276a36.464,36.464,0,0,0,8.755,5.137c1.332-2.4,3.9-5.228,5.883-4.563,1.874.627,2.694,4.177,2.606,6.905a36.086,36.086,0,0,0,10.153.062c-.045-2.741.758-6.476,2.812-6.894,1.935-.393,4.42,2.27,5.707,4.677a36,36,0,0,0,8.83-5.017c-1.412-2.35-2.587-5.99-1.015-7.381,1.478-1.308,4.958-.245,7.277,1.193a36.375,36.375,0,0,0,5.138-8.755c-2.4-1.33-5.23-3.9-4.565-5.886.627-1.873,4.18-2.693,6.908-2.606a36.085,36.085,0,0,0,.062-10.153C216.315,129.965,212.581,129.161,212.164,127.107Zm-24.275,31.344a24.184,24.184,0,1,1,18.881-28.517A24.184,24.184,0,0,1,187.889,158.452Z" transform="translate(-146.757 -98.438)"/><g class="c" transform="translate(0.342)"><path class="d" d="M199.458,99.248c-.087,2.727.732,6.28,2.606,6.908,1.212.405,2.637-.492,3.867-1.8-1.126,1.065-2.369,1.733-3.445,1.374-1.874-.626-2.694-4.18-2.607-6.908a36.192,36.192,0,0,0-10.152-.059c0,.125,0,.252,0,.38A36.169,36.169,0,0,1,199.458,99.248Z" transform="translate(-158.59 -98.438)"/><path class="d" d="M164.228,118.823a1.911,1.911,0,0,0,.3-.35c-1.533,1.171-4.892.14-7.156-1.262-.12.151-.226.312-.344.465C159.348,119.089,162.765,120.118,164.228,118.823Z" transform="translate(-149.846 -103.458)"/><path class="d" d="M174.453,102.335c1.288,2.407,3.771,5.07,5.707,4.677a2.283,2.283,0,0,0,1.314-.871,2.038,2.038,0,0,1-.892.449c-1.936.393-4.42-2.27-5.707-4.676a35.972,35.972,0,0,0-8.83,5.016l.048.084A35.955,35.955,0,0,1,174.453,102.335Z" transform="translate(-152.257 -99.368)"/><path class="d" d="M223.4,107.724c-1.436,2.319-2.5,5.8-1.19,7.278,1.391,1.571,5.031.4,7.382-1.013a35.985,35.985,0,0,1,4.952,8.68c.162-.1.325-.188.486-.275a35.981,35.981,0,0,0-5.016-8.828c-2.35,1.413-5.99,2.585-7.382,1.013-1.308-1.478-.245-4.96,1.19-7.278a36.489,36.489,0,0,0-8.755-5.137c-.089.16-.184.322-.283.484A36.535,36.535,0,0,1,223.4,107.724Z" transform="translate(-165.291 -99.435)"/><path class="d" d="M202.35,194.973c.141-.018.281-.023.421-.042-.034-2.054.41-4.667,1.5-6.023C202.95,190,202.376,192.733,202.35,194.973Z" transform="translate(-161.965 -122.631)"/><path class="d" d="M235.7,158.592a2.115,2.115,0,0,1,.352-.635,2.4,2.4,0,0,0-.774,1.057c-.664,1.99,2.17,4.555,4.566,5.886a36.345,36.345,0,0,1-4.8,8.289c.025.015.053.029.078.044a36.353,36.353,0,0,0,5.139-8.755C237.867,163.147,235.033,160.582,235.7,158.592Z" transform="translate(-170.709 -114.354)"/><path class="d" d="M224.491,177.659c-.037.028-.086.041-.12.071-1.553,1.375-.423,4.946.968,7.3.154-.116.317-.221.47-.338C224.5,182.515,223.4,179.238,224.491,177.659Z" transform="translate(-167.654 -119.623)"/><path class="d" d="M153.4,138.636c-1.341,1.123-3.987,1.617-6.131,1.548-.021.141-.029.285-.048.426C149.554,140.615,152.335,139.986,153.4,138.636Z" transform="translate(-147.224 -109.188)"/><path class="d" d="M242.764,139.186c-2.742.048-6.475-.756-6.893-2.81-.208-1.025.444-2.2,1.458-3.277-1.248,1.179-2.116,2.538-1.88,3.7.418,2.053,4.152,2.858,6.893,2.81a36.029,36.029,0,0,1-.013,9.727c.125,0,.251,0,.374,0A36.058,36.058,0,0,0,242.764,139.186Z" transform="translate(-170.806 -107.707)"/></g><path class="g" d="M184.607,120.865a19.757,19.757,0,1,1-15.425,23.3,19.78,19.78,0,0,1,15.425-23.3m-.311-1.53a21.317,21.317,0,1,0,25.138,16.644A21.318,21.318,0,0,0,184.3,119.335Z" transform="translate(-152.23 -103.911)"/><path class="d" d="M182.636,115.585a24,24,0,1,1-18.734,28.3,24.024,24.024,0,0,1,18.734-28.3m-.081-.4a24.4,24.4,0,1,0,28.774,19.051,24.4,24.4,0,0,0-28.774-19.051Z" transform="translate(-151.104 -102.785)"/></g></g></g></svg>