<svg xmlns="http://www.w3.org/2000/svg" width="133.474" height="141.066" viewBox="0 0 133.474 141.066"><defs><style>.a{fill:#3b3b3b;}.b{fill:#242424;}.c{fill:#adadad;}.d{fill:#ecf0f1;}.e{fill:#8c171a;}.f{fill:#434343;opacity:0.5;}.g{fill:#2f2f2f;}.h{fill:#696969;}</style></defs><g transform="translate(-48.273 -74.19)"><g transform="translate(48.273 74.19)"><g transform="translate(15.334 1.408)"><g transform="translate(55.71 75.478)"><path class="a" d="M250.4,348a3.381,3.381,0,0,1-3.4-3.282V292.54a3.4,3.4,0,0,1,6.792,0v52.178A3.381,3.381,0,0,1,250.4,348Z" transform="translate(-247 -289.258)"/></g><g transform="translate(29.091 80.917)"><path class="a" d="M175.823,363.214a3.285,3.285,0,0,1-3.023-4.557l21.986-52.175a3.282,3.282,0,1,1,6.048,2.548l-21.986,52.176A3.282,3.282,0,0,1,175.823,363.214Z" transform="translate(-172.542 -304.473)"/></g><g transform="translate(60.497 80.918)"><path class="a" d="M285.662,363.215a3.282,3.282,0,0,1-3.025-2.008L260.65,309.031a3.282,3.282,0,1,1,6.048-2.548l21.986,52.175a3.284,3.284,0,0,1-3.022,4.557Z" transform="translate(-260.392 -304.474)"/></g><g transform="translate(55.71 75.478)"><path class="b" d="M250.4,340.78A3.381,3.381,0,0,1,247,337.5V292.54a3.4,3.4,0,0,1,6.792,0V337.5A3.381,3.381,0,0,1,250.4,340.78Z" transform="translate(-247 -289.258)"/></g><g transform="translate(34.356 80.917)"><path class="b" d="M190.549,350.721a3.284,3.284,0,0,1-3.023-4.557l16.721-39.683a3.282,3.282,0,1,1,6.048,2.548l-16.722,39.683A3.282,3.282,0,0,1,190.549,350.721Z" transform="translate(-187.268 -304.473)"/></g><g transform="translate(60.497 80.917)"><path class="b" d="M280.4,350.721a3.282,3.282,0,0,1-3.025-2.008L260.65,309.03a3.282,3.282,0,1,1,6.048-2.548l16.721,39.682a3.284,3.284,0,0,1-3.022,4.556Z" transform="translate(-260.392 -304.473)"/></g><path class="c" d="M59.07,0A59.07,59.07,0,1,1,0,59.07,59.07,59.07,0,0,1,59.07,0Z"/><circle class="d" cx="48.733" cy="48.733" r="48.733" transform="translate(10.337 10.337)"/><circle class="c" cx="38.395" cy="38.395" r="38.395" transform="translate(20.675 20.675)"/><circle class="d" cx="28.058" cy="28.058" r="28.058" transform="translate(31.012 31.012)"/><circle class="c" cx="17.721" cy="17.721" r="17.721" transform="translate(41.349 41.349)"/><path class="e" d="M7.384,0A7.384,7.384,0,1,1,0,7.384,7.384,7.384,0,0,1,7.384,0Z" transform="translate(51.686 51.686)"/></g><path class="f" d="M170.02,239.416a1.307,1.307,0,0,0-.793.267l-46.933,35.653q.768,1.066,1.581,2.1l46.94-35.658a1.312,1.312,0,0,0-.8-2.358Z" transform="translate(-95.832 -180.349)"/><path class="g" d="M89.923,141.2l-25.87-19.652-15.78,4.5,10.7,8.127,5.638-1.692L61.118,135.8l6.746,5.124,4.314-1.05-2.415,2.492,4.381,3.329Z" transform="translate(-48.273 -104.618)"/><g transform="translate(14.864 15.096)"><path class="h" d="M149.176,163.11a1.307,1.307,0,0,1-.793-.267L90.371,118.774a1.313,1.313,0,0,1,1.588-2.091l58.012,44.069a1.313,1.313,0,0,1-.8,2.358Z" transform="translate(-89.852 -116.416)"/></g><path class="a" d="M119.5,93.843l-4.965-3.772-2.01,6.715.1-8.164-8.941-6.792-3.2,7.408,1.376-8.794L93.625,74.19l-.1,16.408,25.87,19.653Z" transform="translate(-77.347 -74.19)"/></g></g></svg>