<svg xmlns="http://www.w3.org/2000/svg" width="140.831" height="141.837" viewBox="0 0 140.831 141.837"><defs><style>.a{fill:#c1c1c1;}.b{fill:#696969;}.c{fill:#adadad;}.d{fill:#8c171a;}</style></defs><g transform="translate(-1.819 19)"><g transform="translate(45.768 5.413)"><path class="a" d="M338.967,147.05a58.779,58.779,0,0,1-58.712,58.712q-2.085,0-4.145-.141l-3-3.223V152.018l3-6.292V88.338h4.145a58.779,58.779,0,0,1,58.712,58.712Z" transform="translate(-242.085 -88.338)"/><path class="b" d="M194.874,296v59.895a58.175,58.175,0,0,1-30.692-11.309l-3.333-2.462Z" transform="translate(-160.849 -238.61)"/></g><path class="c" d="M18.759,119.31l-2.707,3.139a58.688,58.688,0,0,0,9.641,85.585l3.336,2.463,37.118-50.315Z" transform="translate(0 -105.338)"/><path class="d" d="M125.809,0h-4.145A48.875,48.875,0,0,0,84.622,16.979l-2.707,3.139,43.894,37.858Z" transform="translate(-57.961 -19)"/></g></svg>