<svg xmlns="http://www.w3.org/2000/svg" width="131.434" height="106.778" viewBox="0 0 131.434 106.778"><defs><style>.a{fill:#efefef;}.b{fill:#d8d8d8;}.c{fill:#c1c1c1;}.d{fill:#919191;}.e{fill:#e0e0e0;}.f{fill:#740e11;}.g{fill:#8c171a;}</style></defs><g transform="translate(0 15.82)"><path class="a" d="M131.434,233.6V160.927s-34.014-1.433-51.036-.545-17.052,4.1-17.052,4.1a17.21,17.21,0,0,0-10.223-3.55H0V233.6l65.7,5.877Z" transform="translate(0 -160.092)"/></g><path class="b" d="M65.717,449.014a14.441,14.441,0,0,0-10.9-4.974H0v17.446H67.83s-1.482-13.172-2.113-12.472Z" transform="translate(0 -354.708)"/><g transform="translate(65.717 89.332)"><path class="b" d="M321.717,444.04H267.4a15.534,15.534,0,0,0-11.4,4.974v12.472h65.717Z" transform="translate(-256 -444.04)"/></g><g transform="translate(39.742 0)"><g transform="translate(0.738 70.291)"><path class="c" d="M172.824,250.494l-8.924,9.43,14.251-3.961Z" transform="translate(-163.9 -250.618)"/></g><path class="d" d="M0,0H69.652V7.561H0Z" transform="translate(9.616 70.293) rotate(-45)"/><g transform="translate(0 64.073)"><path class="e" d="M164.678,235.782l8.845-9.293-6.025-6.06Z" transform="translate(-163.9 -220.292)"/></g><g transform="translate(3.569 15)"><path class="c" d="M0,0H69.652V8.553H0Z" transform="translate(0 49.244) rotate(-45)"/></g><path class="f" d="M400.035,12.447c-.052-.052.049.054,0,0L388.44,24.041l5.627,5.627,6.032-6.032A7.954,7.954,0,0,0,400.035,12.447Z" transform="translate(-322.879 -10.179)"/><g transform="translate(59.424)"><path class="g" d="M363.854,14.471l12.1-12.1a8.141,8.141,0,0,0-11.546.066l-6.3,6.3Z" transform="translate(-358.114 0)"/></g><path class="c" d="M0,0H11.676V7.635H0Z" transform="translate(58.305 21.61) rotate(-45)"/><path class="e" d="M0,0H11.676V8.515H0Z" transform="translate(52.286 15.588) rotate(-45)"/></g></svg>