<svg xmlns="http://www.w3.org/2000/svg" xmlns:xlink="http://www.w3.org/1999/xlink" width="207" height="207" viewBox="0 0 207 207"><defs><style>.a{fill:url(#a);}.b{fill:#80d6fb;}.c{fill:#46bee8;}.d{fill:#dd9a5e;}.e{fill:#d18c54;}.f{fill:#4e3e35;}.g{fill:#392e2b;}.h{fill:#edae6b;}.i{fill:#6e83b7;}.j{fill:#466089;}.k{fill:#ffe352;}.l{fill:#196f95;}.m{fill:#144f64;}.n{fill:#edeff1;}.o{fill:#d3d3d3;}.p{fill:#fcbd2e;}.q{fill:#e39e00;}.r{fill:#edde6b;}.s{filter:url(#b);}</style><linearGradient id="a" x1="0.5" x2="0.5" y2="1" gradientUnits="objectBoundingBox"><stop offset="0" stop-color="#d6fc7e"/><stop offset="1" stop-color="#6ebf00"/></linearGradient><filter id="b" x="0" y="0" width="207" height="207" filterUnits="userSpaceOnUse"><feOffset dy="3" input="SourceAlpha"/><feGaussianBlur stdDeviation="3" result="c"/><feFlood flood-opacity="0.161"/><feComposite operator="in" in2="c"/><feComposite in="SourceGraphic"/></filter></defs><g transform="translate(9 6)"><g class="s" transform="matrix(1, 0, 0, 1, -9, -6)"><rect class="a" width="189" height="189" rx="25" transform="translate(9 6)"/></g><g transform="translate(-307.573 -775.383)"><g transform="translate(318.307 809)"><path class="b" d="M140.851,340.195c-.11-.55-6.783-34.075-6.856-34.419a12.994,12.994,0,0,0-6.16-8.768,14.792,14.792,0,0,0-4.234-1.717l-22.756-7.953a3.323,3.323,0,0,1-2.245-3.143v-6.968a28.588,28.588,0,0,1-25.969.124v6.844a3.323,3.323,0,0,1-2.245,3.143l-9.355,3.208h-.009v0L47.638,295.29l-1.761.52a13.466,13.466,0,0,0-7.492,6.6c-1.071,2.172-.753,1.409-5.95,27.5-1.924,9.964-2.349,10.69-2.108,12.916.67,6.223,7.07,5.573,7.243,5.649h96.1C133.734,348.443,142.106,349.08,140.851,340.195Z" transform="translate(0 -193.099)"/><path class="c" d="M38.2,379.152l6.856-37.546a13.087,13.087,0,0,1,5.663-8.452c-5.756,2.039-3.972,1.224-5.741,1.982a13.119,13.119,0,0,0-7.208,7.683c-.511,1.451-.18.175-5.337,26.039-1.924,9.964-2.349,10.691-2.108,12.916.67,6.223,7.07,5.573,7.243,5.649h7.816C39.873,387.423,37.49,384.2,38.2,379.152Z" transform="translate(-0.001 -232.056)"/><path class="b" d="M51.733,468.1H37.586c-.181-.079-7.477.654-7.294-6.952.04-1.622.243-1.69,2.159-11.614l.111-.556H51.733Z" transform="translate(-0.016 -312.733)"/><path class="c" d="M40.2,448.979H32.563l-.111.556c-1.923,9.958-2.119,9.99-2.159,11.614-.182,7.58,7.15,6.889,7.294,6.952H45.4c-5.08,0-7.4-2.672-7.294-6.952C38.122,460.652,38.307,459.613,40.2,448.979Z" transform="translate(-0.017 -312.734)"/><path class="d" d="M169.87,273.671c0,19.438,0-2.214,0,13.1h.008v.468a7.236,7.236,0,0,0,4.935,6.862,26.345,26.345,0,0,0,16.081,0,7.235,7.235,0,0,0,4.935-6.862v-.468h.008c0-3.046,0-11.466,0-13.1A27.224,27.224,0,0,1,169.87,273.671Z" transform="translate(-97.241 -190.624)"/><path class="e" d="M177.7,291.455h-.01c0-16.274,0-10.852,0-11.988a28.488,28.488,0,0,1-7.816-2.8c0,19.438,0-3.125,0,12.185h.008v.468a7.236,7.236,0,0,0,4.935,6.862,24.079,24.079,0,0,0,4.6,1.045A9.258,9.258,0,0,1,177.7,291.455Z" transform="translate(-97.24 -192.713)"/><path class="c" d="M95.572,423.7a2.345,2.345,0,0,0-2.345,2.345v24.447h4.69V426.047A2.344,2.344,0,0,0,95.572,423.7Z" transform="translate(-43.855 -295.127)"/><path class="f" d="M124.827.071a37.525,37.525,0,0,0-37.25,37.514V51.8h75.038V30.533c0-14.527-8.938-17.874-8.938-17.874C142.562-1.046,124.842.071,124.842.071" transform="translate(-39.92 -0.034)"/><path class="g" d="M129.891.261A37.642,37.642,0,0,0,87.6,36.073c-.059,1.52-.019.951-.032,15.7h8.938V37.551A37.521,37.521,0,0,1,129.891.261Z" transform="translate(-39.916)"/><g transform="translate(47.084 46.844)"><path class="d" d="M95.5,154.827c-4.706-1.677-9.815,1.442-9.815,5.992s5.108,7.669,9.815,5.992Z" transform="translate(-85.687 -154.367)"/><path class="d" d="M304.4,154.827c4.706-1.677,9.815,1.442,9.815,5.992s-5.108,7.669-9.815,5.992Z" transform="translate(-238.033 -154.367)"/></g><g transform="translate(47.068 50.54)"><path class="e" d="M86.338,166.548c-2.749,5.219,3.039,10.916,9.127,8.747v-5.51A7.507,7.507,0,0,1,86.338,166.548Z" transform="translate(-85.635 -166.548)"/><path class="e" d="M304.4,169.785v5.51c6.088,2.169,11.876-3.528,9.127-8.747C312.381,168.731,307.955,171.05,304.4,169.785Z" transform="translate(-238.017 -166.548)"/></g><path class="h" d="M172.895,99.647a1.418,1.418,0,0,1,1.29,1.407c0,24.064.016,22.247-.04,23.366a28.506,28.506,0,0,1-8.592,19.007c-17.84,17.395-47.611,5.059-48.506-19.341-.042-1.076-.024-13.539-.024-13.5a9.185,9.185,0,0,1,10.52-9.079c8.736,1.261,21.486.771,32.612-8.739a2.361,2.361,0,0,1,3.608.653A11.549,11.549,0,0,0,172.895,99.647Z" transform="translate(-60.427 -64.216)"/><path class="d" d="M124.867,145.473c-.036-.922-.028-17.806-.025-22.575a9.177,9.177,0,0,0-7.819,9.071c0-.035-.018,12.428.024,13.5.66,17.99,17.017,29.419,32.716,27.212C136.873,170.9,125.417,160.468,124.867,145.473Z" transform="translate(-60.427 -85.604)"/></g><g transform="translate(415.843 899.184)"><g transform="translate(13.14)"><path class="i" d="M67.662,54.626s9.7-9.883,5.32-13.3c-3.034-2.369-6.117,1.419-7.983-1.331C62.194,35.855,59.68,36,59.68,36s-2.515-.145-5.32,3.991c-1.865,2.748-4.947-1.04-7.983,1.331-4.38,3.42,5.32,13.3,5.32,13.3H67.662Z" transform="translate(-45.241 -36)"/></g><path class="j" d="M66.889,45.715a21.206,21.206,0,0,0-5.047-1.439,8.24,8.24,0,0,0,2.013-4.187l-2.462-.469c-.627,3.289-2.705,4.054-3.618,4.237-.16-.005-.336-.013-.471-.013s-.288.008-.434.01c-.955-.183-3.029-.95-3.653-4.235l-2.462.469a8.221,8.221,0,0,0,2.016,4.187,21.258,21.258,0,0,0-5.049,1.439,4.089,4.089,0,0,0-.905.569c1.341,1.695,2.507,2.883,2.507,2.883H65.287s1.166-1.188,2.507-2.883A4.148,4.148,0,0,0,66.889,45.715Z" transform="translate(-29.726 -30.544)"/><g transform="translate(16.936 14.635)"><path class="k" d="M57.4,48.488H68.04V46.036a2.7,2.7,0,0,0-1.607-2.449,24.2,24.2,0,0,0-18.071,0,2.693,2.693,0,0,0-1.607,2.449v2.452Z" transform="translate(-46.755 -41.837)"/></g><g transform="translate(0 17.55)"><path class="i" d="M67.578,43h2.507A20.058,20.058,0,0,1,90.142,63.057V75.9A5.313,5.313,0,0,0,91.7,79.657l1.9,1.9a5.313,5.313,0,0,1,1.557,3.758v.005a5.315,5.315,0,0,1-5.315,5.315H45.315A5.315,5.315,0,0,1,40,85.32v-.005a5.313,5.313,0,0,1,1.557-3.758l1.9-1.9A5.313,5.313,0,0,0,45.014,75.9V63.057A20.058,20.058,0,0,1,65.071,43Z" transform="translate(-40 -43)"/></g><g transform="translate(17.55 29.88)"><circle class="k" cx="10.028" cy="10.028" r="10.028"/></g><path class="i" d="M55.482,55.465H52.824a1.408,1.408,0,1,1,0-2.815h2.66a1.408,1.408,0,0,1,1.409,1.406H59.4a3.918,3.918,0,0,0-3.916-3.914h-.078V48.733H52.9v1.409h-.075a3.915,3.915,0,1,0,0,7.83h2.66a1.406,1.406,0,1,1,0,2.813h-2.66a1.408,1.408,0,0,1-1.409-1.406H48.908a3.918,3.918,0,0,0,3.916,3.914H52.9V64.7h2.507V63.292h.075a3.914,3.914,0,1,0,0-7.827Z" transform="translate(-26.575 -16.809)"/></g><path class="f" d="M124.827.071a37.525,37.525,0,0,0-37.25,37.514V51.8l50.916,32.416v16.962l24.122,6.077V30.533c0-14.527-8.938-17.874-8.938-17.874C142.562-1.046,124.842.071,124.842.071" transform="translate(278.387 808.966)"/><path class="l" d="M140.851,340.195c-.11-.55-6.783-34.075-6.856-34.419a12.994,12.994,0,0,0-6.16-8.768,14.792,14.792,0,0,0-4.234-1.717l-22.756-7.953a3.323,3.323,0,0,1-2.245-3.143v-6.968a28.588,28.588,0,0,1-25.969.124v6.844a3.323,3.323,0,0,1-2.245,3.143l-9.355,3.208h-.009v0L47.638,295.29l-1.761.52a13.466,13.466,0,0,0-7.492,6.6c-1.071,2.172-.753,1.409-5.95,27.5-1.924,9.964-2.349,10.69-2.108,12.916.67,6.223,7.07,5.573,7.243,5.649h96.1C133.734,348.443,142.106,349.08,140.851,340.195Z" transform="translate(318.307 615.9)"/><path class="m" d="M38.2,379.152l6.856-37.546a13.087,13.087,0,0,1,5.663-8.452c-5.756,2.039-3.972,1.224-5.741,1.982a13.119,13.119,0,0,0-7.208,7.683c-.511,1.451-.18.175-5.337,26.039-1.924,9.964-2.349,10.691-2.108,12.916.67,6.223,7.07,5.573,7.243,5.649h7.816C39.873,387.423,37.49,384.2,38.2,379.152Z" transform="translate(318.306 576.943)"/><path class="n" d="M2406.343,7722.829l-14.838-22.846-12.36-22.168,52.1-.821-13.026,22.99Z" transform="translate(-2001 -6771)"/><path class="l" d="M51.733,468.1H37.586c-.181-.079-7.477.654-7.294-6.952.04-1.622.243-1.69,2.159-11.614l.111-.556H51.733Z" transform="translate(318.291 496.267)"/><path class="m" d="M40.2,448.979H32.563l-.111.556c-1.923,9.958-2.119,9.99-2.159,11.614-.182,7.58,7.15,6.889,7.294,6.952H45.4c-5.08,0-7.4-2.672-7.294-6.952C38.122,460.652,38.307,459.613,40.2,448.979Z" transform="translate(318.29 496.266)"/><path class="m" d="M95.572,423.7a2.345,2.345,0,0,0-2.345,2.345v24.447h4.69V426.047A2.344,2.344,0,0,0,95.572,423.7Z" transform="translate(274.452 513.873)"/><g transform="translate(377.672 903.209)"><path class="o" d="M67.86,39.343,55.822,36h-28.8L14.984,39.343l16.675,24.7L41.422,51.84l9.763,12.206Z" transform="translate(-14.984 -36)"/></g><path class="d" d="M169.87,273.671c0,19.438,0-2.214,0,13.1h.008v.468a7.236,7.236,0,0,0,4.935,6.862,26.345,26.345,0,0,0,16.081,0,7.235,7.235,0,0,0,4.935-6.862v-.468h.008c0-3.046,0-11.466,0-13.1A27.224,27.224,0,0,1,169.87,273.671Z" transform="translate(221.066 618.376)"/><path class="e" d="M177.7,291.455h-.01c0-16.274,0-10.852,0-11.988a28.488,28.488,0,0,1-7.816-2.8c0,19.438,0-3.125,0,12.185h.008v.468a7.236,7.236,0,0,0,4.935,6.862,24.079,24.079,0,0,0,4.6,1.045A9.258,9.258,0,0,1,177.7,291.455Z" transform="translate(221.067 616.286)"/><g transform="translate(415.843 899.184)"><g transform="translate(13.14)"><path class="p" d="M67.662,54.626s9.7-9.883,5.32-13.3c-3.034-2.369-6.117,1.419-7.983-1.331C62.194,35.855,59.68,36,59.68,36s-2.515-.145-5.32,3.991c-1.865,2.748-4.947-1.04-7.983,1.331-4.38,3.42,5.32,13.3,5.32,13.3H67.662Z" transform="translate(-45.241 -36)"/></g><path class="q" d="M66.889,45.715a21.206,21.206,0,0,0-5.047-1.439,8.24,8.24,0,0,0,2.013-4.187l-2.462-.469c-.627,3.289-2.705,4.054-3.618,4.237-.16-.005-.336-.013-.471-.013s-.288.008-.434.01c-.955-.183-3.029-.95-3.653-4.235l-2.462.469a8.221,8.221,0,0,0,2.016,4.187,21.258,21.258,0,0,0-5.049,1.439,4.089,4.089,0,0,0-.905.569c1.341,1.695,2.507,2.883,2.507,2.883H65.287s1.166-1.188,2.507-2.883A4.148,4.148,0,0,0,66.889,45.715Z" transform="translate(-29.726 -30.544)"/><g transform="translate(16.936 14.635)"><path class="r" d="M57.4,48.488H68.04V46.036a2.7,2.7,0,0,0-1.607-2.449,24.2,24.2,0,0,0-18.071,0,2.693,2.693,0,0,0-1.607,2.449v2.452Z" transform="translate(-46.755 -41.837)"/></g><g transform="translate(0 17.55)"><path class="p" d="M67.578,43h2.507A20.058,20.058,0,0,1,90.142,63.057V75.9A5.313,5.313,0,0,0,91.7,79.657l1.9,1.9a5.313,5.313,0,0,1,1.557,3.758v.005a5.315,5.315,0,0,1-5.315,5.315H45.315A5.315,5.315,0,0,1,40,85.32v-.005a5.313,5.313,0,0,1,1.557-3.758l1.9-1.9A5.313,5.313,0,0,0,45.014,75.9V63.057A20.058,20.058,0,0,1,65.071,43Z" transform="translate(-40 -43)"/></g><g transform="translate(17.55 29.88)"><circle class="r" cx="10.028" cy="10.028" r="10.028"/></g><path class="q" d="M55.482,55.465H52.824a1.408,1.408,0,1,1,0-2.815h2.66a1.408,1.408,0,0,1,1.409,1.406H59.4a3.918,3.918,0,0,0-3.916-3.914h-.078V48.733H52.9v1.409h-.075a3.915,3.915,0,1,0,0,7.83h2.66a1.406,1.406,0,1,1,0,2.813h-2.66a1.408,1.408,0,0,1-1.409-1.406H48.908a3.918,3.918,0,0,0,3.916,3.914H52.9V64.7h2.507V63.292h.075a3.914,3.914,0,1,0,0-7.827Z" transform="translate(-26.575 -16.809)"/></g><path class="g" d="M129.891.261A37.642,37.642,0,0,0,87.6,36.073c-.059,1.52-1.308,66.669-1.308,66.669l25.762-9.149.986-8.852L96.511,37.551A37.521,37.521,0,0,1,129.891.261Z" transform="translate(278.391 809)"/><g transform="translate(365.391 855.843)"><path class="d" d="M95.5,154.827c-4.706-1.677-9.815,1.442-9.815,5.992s5.108,7.669,9.815,5.992Z" transform="translate(-85.687 -154.367)"/><path class="d" d="M304.4,154.827c4.706-1.677,9.815,1.442,9.815,5.992s-5.108,7.669-9.815,5.992Z" transform="translate(-238.033 -154.367)"/></g><g transform="translate(365.375 859.54)"><path class="e" d="M86.338,166.548c-2.749,5.219,3.039,10.916,9.127,8.747v-5.51A7.507,7.507,0,0,1,86.338,166.548Z" transform="translate(-85.635 -166.548)"/><path class="e" d="M304.4,169.785v5.51c6.088,2.169,11.876-3.528,9.127-8.747C312.381,168.731,307.955,171.05,304.4,169.785Z" transform="translate(-238.017 -166.548)"/></g><path class="h" d="M172.895,99.647a1.418,1.418,0,0,1,1.29,1.407c0,24.064.016,22.247-.04,23.366a28.506,28.506,0,0,1-8.592,19.007c-17.84,17.395-47.611,5.059-48.506-19.341-.042-1.076-.024-13.539-.024-13.5a9.185,9.185,0,0,1,10.52-9.079c8.736,1.261,21.486.771,32.612-8.739a2.361,2.361,0,0,1,3.608.653A11.549,11.549,0,0,0,172.895,99.647Z" transform="translate(257.88 744.784)"/><path class="d" d="M124.867,145.473c-.036-.922-.028-17.806-.025-22.575a9.177,9.177,0,0,0-7.819,9.071c0-.035-.018,12.428.024,13.5.66,17.99,17.017,29.419,32.716,27.212C136.873,170.9,125.417,160.468,124.867,145.473Z" transform="translate(257.88 723.396)"/><g transform="translate(380.11 897.184)"><path class="n" d="M25.6,34,16,41.466,30.4,62.8l9.6-12Z" transform="translate(-16 -34)"/></g><g transform="translate(404.109 897.184)"><path class="n" d="M40.4,34,50,41.466,35.6,62.8,26,50.8Z" transform="translate(-26 -34)"/></g></g></g></svg>