<svg xmlns="http://www.w3.org/2000/svg" xmlns:xlink="http://www.w3.org/1999/xlink" width="207" height="207" viewBox="0 0 207 207"><defs><style>.a{fill:url(#a);}.b{fill:#ecf0f1;}.c{fill:#bdc3c7;}.d{fill:#227fbb;}.e{fill:#e94b35;}.f{filter:url(#b);}</style><linearGradient id="a" x1="0.5" x2="0.5" y2="1" gradientUnits="objectBoundingBox"><stop offset="0" stop-color="#fdbe2f"/><stop offset="1" stop-color="#e36000"/></linearGradient><filter id="b" x="0" y="0" width="207" height="207" filterUnits="userSpaceOnUse"><feOffset dy="3" input="SourceAlpha"/><feGaussianBlur stdDeviation="3" result="c"/><feFlood flood-opacity="0.161"/><feComposite operator="in" in2="c"/><feComposite in="SourceGraphic"/></filter></defs><g transform="translate(9 6)"><g class="f" transform="matrix(1, 0, 0, 1, -9, -6)"><rect class="a" width="189" height="189" rx="25" transform="translate(9 6)"/></g><g transform="translate(-76.147 -40.26)"><g transform="translate(111 57)"><path class="b" d="M229.983,208.593A4.42,4.42,0,0,1,225.576,213H115.407A4.42,4.42,0,0,1,111,208.593V61.407A4.42,4.42,0,0,1,115.407,57h84.61a12.262,12.262,0,0,1,7.523,3.116l19.327,19.327a12.262,12.262,0,0,1,3.116,7.523Z" transform="translate(-111 -57)"/><path class="c" d="M345.444,80.816,326.117,61.489A10.709,10.709,0,0,0,323,59.454V79.525a4.42,4.42,0,0,0,4.407,4.407h20.071A10.706,10.706,0,0,0,345.444,80.816Z" transform="translate(-229.577 -58.373)"/><g transform="translate(8.153 38.339)"><path class="c" d="M130.6,146.2H231.076a1.1,1.1,0,1,0,0-2.2H130.6a1.1,1.1,0,1,0,0,2.2Z" transform="translate(-129.5 -144)"/></g><g transform="translate(8.153 43.627)"><path class="c" d="M130.6,158.2H231.076a1.1,1.1,0,0,0,0-2.2H130.6a1.1,1.1,0,0,0,0,2.2Z" transform="translate(-129.5 -156)"/></g><g transform="translate(7.932 48.474)"><path class="c" d="M130.1,169.2h85.491a1.1,1.1,0,1,0,0-2.2H130.1a1.1,1.1,0,0,0,0,2.2Z" transform="translate(-129 -167)"/></g><g transform="translate(7.932 60.813)"><path class="c" d="M130.1,197.2h92.983a1.1,1.1,0,0,0,0-2.2H130.1a1.1,1.1,0,0,0,0,2.2Z" transform="translate(-129 -195)"/></g><g transform="translate(7.932 73.152)"><path class="c" d="M130.1,225.2H220.44a1.1,1.1,0,1,0,0-2.2H130.1a1.1,1.1,0,1,0,0,2.2Z" transform="translate(-129 -223)"/></g><g transform="translate(7.932 85.932)"><path class="c" d="M130.1,254.2h74.034a1.1,1.1,0,1,0,0-2.2H130.1a1.1,1.1,0,0,0,0,2.2Z" transform="translate(-129 -252)"/></g><g transform="translate(7.932 91.661)"><path class="c" d="M130.1,267.2h74.034a1.1,1.1,0,1,0,0-2.2H130.1a1.1,1.1,0,0,0,0,2.2Z" transform="translate(-129 -265)"/></g><g transform="translate(7.932 96.508)"><path class="c" d="M130.1,278.2h79.322a1.1,1.1,0,1,0,0-2.2H130.1a1.1,1.1,0,0,0,0,2.2Z" transform="translate(-129 -276)"/></g><g transform="translate(7.932 107.084)"><path class="c" d="M130.1,302.2h79.322a1.1,1.1,0,1,0,0-2.2H130.1a1.1,1.1,0,0,0,0,2.2Z" transform="translate(-129 -300)"/></g><rect class="d" width="71.01" height="8.607" transform="translate(7.558 17.229)"/><g transform="translate(7.932 67.424)"><path class="c" d="M130.1,212.2h92.983a1.1,1.1,0,0,0,0-2.2H130.1a1.1,1.1,0,0,0,0,2.2Z" transform="translate(-129 -210)"/></g><g transform="translate(7.932 67.424)"><path class="c" d="M130.1,212.2h92.983a1.1,1.1,0,0,0,0-2.2H130.1a1.1,1.1,0,0,0,0,2.2Z" transform="translate(-129 -210)"/></g><g transform="translate(4.037 118.594)"><g transform="translate(8.471 8.471)"><circle class="e" cx="6.418" cy="6.418" r="6.418"/></g><path class="e" d="M148.339,337.672c-.181-.717.754-1.824.456-2.525s-1.746-.793-2.138-1.421c-.4-.643.145-1.983-.343-2.543s-1.9-.21-2.473-.687-.474-1.928-1.116-2.311-1.869.39-2.564.111-1.041-1.687-1.773-1.855-1.654.947-2.405.894-1.507-1.283-2.259-1.216-1.274,1.411-2.009,1.6c-.717.18-1.824-.754-2.525-.455s-.794,1.745-1.42,2.137c-.643.4-1.983-.145-2.543.343s-.209,1.9-.687,2.472-1.928.474-2.311,1.116.39,1.868.111,2.563-1.687,1.041-1.855,1.773.947,1.654.895,2.405-1.284,1.508-1.217,2.26,1.412,1.272,1.6,2.008c.181.717-.754,1.824-.456,2.526s1.746.794,2.137,1.42c.4.643-.145,1.984.342,2.543s1.9.21,2.473.688.474,1.928,1.116,2.311,1.869-.391,2.564-.111,1.041,1.686,1.773,1.855,1.654-.946,2.405-.894,1.507,1.283,2.259,1.216,1.273-1.412,2.009-1.6c.717-.18,1.824.754,2.525.455s.793-1.746,1.42-2.137c.643-.4,1.983.144,2.543-.343s.209-1.9.687-2.472,1.928-.474,2.311-1.116-.39-1.868-.111-2.563,1.687-1.041,1.856-1.773-.947-1.655-.895-2.405,1.284-1.507,1.217-2.259S148.524,338.408,148.339,337.672Zm-8.513,14.538a12.179,12.179,0,1,1,6.428-15.98A12.18,12.18,0,0,1,139.825,352.21Z" transform="translate(-120.16 -326.117)"/><g transform="translate(5.491 5.549)"><path class="e" d="M145.645,356.688a9.087,9.087,0,0,1-7.658-.138,9.435,9.435,0,0,1-5.217-10.035,9.735,9.735,0,0,1,5.619-7.105,8.667,8.667,0,0,1,2.575-.658,9.6,9.6,0,0,1,9.648,5.555l.011.022c.011.022.021.043.031.066a9.487,9.487,0,0,1-1.594,9.89,10.043,10.043,0,0,1-3.416,2.4Zm-6.905-16.3a8.478,8.478,0,0,0-4.364,4.574,7.989,7.989,0,0,0,.053,6.328,8.3,8.3,0,0,0,10.722,4.405l.11-.04a8.3,8.3,0,0,0-6.413-15.313Z" transform="translate(-132.62 -338.708)"/></g><g transform="translate(3.936 3.935)"><path class="e" d="M145.368,355.572l-.092-.166a10.723,10.723,0,0,0,1.842-1.292l.125.143A10.918,10.918,0,0,1,145.368,355.572Zm-2.106.9a10.949,10.949,0,0,1-2.247.442l-.017-.189a10.715,10.715,0,0,0,2.208-.434Zm5.54-3.889-.152-.114a10.77,10.77,0,0,0,1.155-1.931l.172.079A11.011,11.011,0,0,1,148.8,352.581Zm-10.078,4.293a11.019,11.019,0,0,1-2.232-.514l.062-.179a10.767,10.767,0,0,0,2.193.505Zm12-8.425-.185-.043a10.768,10.768,0,0,0,.273-2.234l.19,0A11.028,11.028,0,0,1,150.72,348.449Zm-16.305,6.946a10.951,10.951,0,0,1-1.831-1.374l.129-.138a10.791,10.791,0,0,0,1.8,1.35ZM150.8,343.913l-.182.046a9.865,9.865,0,0,0-.659-2.14l.175-.075A10.055,10.055,0,0,1,150.8,343.913Zm-19.722,8.381a11.062,11.062,0,0,1-1.109-2l.173-.078a10.839,10.839,0,0,0,1.091,1.968Zm17.777-12.476a10.689,10.689,0,0,0-1.478-1.7l.129-.139a10.911,10.911,0,0,1,1.5,1.727Zm-19.375,8.249-.186.036a10.853,10.853,0,0,1-.2-2.281l.189,0A10.632,10.632,0,0,0,129.482,348.067Zm16.1-11.3a10.806,10.806,0,0,0-2.041-.949l.062-.179a11.044,11.044,0,0,1,2.076.965Zm-16.025,6.82-.185-.042a11.068,11.068,0,0,1,.744-2.166l.172.081A10.755,10.755,0,0,0,129.556,343.591Zm11.791-8.275a10.7,10.7,0,0,0-2.25-.039l-.017-.189a10.967,10.967,0,0,1,2.291.039Zm-9.9,4.216-.152-.114a10.88,10.88,0,0,1,1.559-1.677l.124.142A10.736,10.736,0,0,0,131.442,339.532Zm5.445-3.821a11.015,11.015,0,0,0-2.07.881l-.092-.165a11.05,11.05,0,0,1,2.107-.9Z" transform="translate(-129.091 -335.046)"/></g></g><g transform="translate(65.069 129.743)"><path class="d" d="M262.437,375.464l.278-.463c1.946-3.244,7.489-5.457,12.242-6.975a18.022,18.022,0,0,0,4.361-5.516c.843-1.686.851-3.217.533-3.674-.085-.121-.162-.13-.213-.121-.262.029-.728.517-1.252,1.8l-.191.468-.139-.486c-.12-.42-.221-.846-.319-1.257a15.957,15.957,0,0,0-.671-2.294,4.94,4.94,0,0,0-1.659,2.72,7.32,7.32,0,0,1-1.159,2.326l-.193.22-.1-.274a7.937,7.937,0,0,1-.371-1.977,6.43,6.43,0,0,0-.586-2.466,4.895,4.895,0,0,0-1.207,3.1c.018.506.011.981.006,1.333,0,.122,0,.226,0,.308l-.349.019a8.542,8.542,0,0,1,0-1.664,4.492,4.492,0,0,0-.567-2.5.441.441,0,0,0-.327-.146.741.741,0,0,0-.563.242,4.238,4.238,0,0,0-.586,2.552c.074.84.074,1.955.074,2.4h-.349c0-.441-.012-.392-.026-.667-.026-.492-.057-1.107-.048-1.729-.139-1.561-.539-3.112-1.684-3.819-1.048,1.166-.963,3.241-.888,5.078a13.574,13.574,0,0,1-.044,2.587l-.149.9-.193-.89c-.278-1.277-.472-2.57-.66-3.822a30.076,30.076,0,0,0-1.7-7.222c.42,3.143,1.027,8.13-.913,10.232a2.628,2.628,0,0,1-3.25.732,1.706,1.706,0,0,1-.8-2.155l.331.111a1.344,1.344,0,0,0,.631,1.738,2.307,2.307,0,0,0,2.818-.652c1.893-2.051,1.206-7.17.795-10.229-.044-.322-.083-.621-.117-.891l-.126-1.012.456.912a27.126,27.126,0,0,1,2.217,8.387c.12.8.243,1.617.388,2.435,0-.365-.02-.749-.037-1.143-.081-1.961-.172-4.184,1.081-5.437l.092-.093.115.063a3.9,3.9,0,0,1,1.758,2.711,2.6,2.6,0,0,1,.557-1.31,1.086,1.086,0,0,1,.816-.351.787.787,0,0,1,.576.25,2.683,2.683,0,0,1,.548,1.4,3.774,3.774,0,0,1,1.276-2.156l.151-.107.1.157a6.235,6.235,0,0,1,.736,2.785,9.344,9.344,0,0,0,.252,1.586,8.417,8.417,0,0,0,.9-1.966c.437-1.2.888-2.451,2-3l.166-.083.073.171a15.176,15.176,0,0,1,.763,2.529c.06.251.121.507.186.763.453-.971.91-1.5,1.337-1.552a.566.566,0,0,1,.538.269c.431.619.36,2.3-.507,4.03a17.961,17.961,0,0,1-3.921,5.122c1.1-.34,2.135-.642,3.061-.911.422-.123.82-.239,1.19-.348a122.516,122.516,0,0,1,13.947-3.577l.558-.108-.4.4a1.047,1.047,0,0,1-.425.221.777.777,0,0,0-.289.137l-.156-.156a122.737,122.737,0,0,0-13.13,3.414q-.561.166-1.2.35c-1.128.328-2.426.706-3.789,1.14-3.491,3.01-7.966,5.107-12.145,6.9Zm11.806-6.838c-4.249,1.4-8.9,3.36-10.9,6.072A47.044,47.044,0,0,0,274.244,368.625Z" transform="translate(-258.657 -351.418)"/></g></g></g></g></svg>