<svg xmlns="http://www.w3.org/2000/svg" xmlns:xlink="http://www.w3.org/1999/xlink" width="207" height="207" viewBox="0 0 207 207"><defs><style>.a{fill:url(#a);}.b{fill:#fff;}.c{fill:#ffdd70;}.d{fill:#f8c045;}.e{fill:#fff59b;}.f{fill:#ed3833;}.g{fill:#ef6236;}.h{filter:url(#b);}</style><linearGradient id="a" x1="0.5" x2="0.5" y2="1" gradientUnits="objectBoundingBox"><stop offset="0" stop-color="#fff583"/><stop offset="1" stop-color="#faad43"/></linearGradient><filter id="b" x="0" y="0" width="207" height="207" filterUnits="userSpaceOnUse"><feOffset dy="3" input="SourceAlpha"/><feGaussianBlur stdDeviation="3" result="c"/><feFlood flood-opacity="0.161"/><feComposite operator="in" in2="c"/><feComposite in="SourceGraphic"/></filter></defs><g transform="translate(9 6)"><g class="h" transform="matrix(1, 0, 0, 1, -9, -6)"><rect class="a" width="189" height="189" rx="25" transform="translate(9 6)"/></g><g transform="translate(25 27)"><g transform="translate(6.998 31.311)"><path class="b" d="M131.434,233.6V160.927s-34.014-1.433-51.036-.545-17.052,4.1-17.052,4.1a17.21,17.21,0,0,0-10.223-3.55H0V233.6l65.7,5.877Z" transform="translate(0 -160.927)"/></g><path class="b" d="M65.717,449.014a14.441,14.441,0,0,0-10.9-4.974H0v17.446H67.83s-1.482-13.172-2.113-12.472Z" transform="translate(6.998 -340.052)"/><g transform="translate(72.715 103.988)"><path class="b" d="M321.717,444.04H267.4a15.534,15.534,0,0,0-11.4,4.974v12.472h65.717Z" transform="translate(-256 -444.04)"/></g><g transform="translate(42.074 0)"><g transform="translate(5.404 84.947)"><g transform="translate(0 0)"><path class="c" d="M173.205,250.618l-9.305,9.305,15.037-3.574Z" transform="translate(-163.9 -250.618)"/></g></g><path class="d" d="M0,0H69.652V7.561H0Z" transform="translate(14.282 84.949) rotate(-45)"/><g transform="translate(4.666 78.729)"><path class="e" d="M163.9,237.319l10.629-10.629-6.4-6.4Z" transform="translate(-163.9 -220.292)"/></g><g transform="translate(4.368 25.788)"><path class="c" d="M0,0H69.652V8.553H0Z" transform="translate(3.867 53.112) rotate(-45)"/></g><path class="f" d="M400.035,12.447c-.052-.052.049.054,0,0L388.44,24.041l5.627,5.627,6.032-6.032A7.954,7.954,0,0,0,400.035,12.447Z" transform="translate(-318.213 4.477)"/><g transform="translate(64.09 14.656)"><path class="g" d="M363.854,14.471l12.1-12.1a8.141,8.141,0,0,0-11.546.066l-6.3,6.3Z" transform="translate(-358.114 0)"/></g><path class="c" d="M0,0H11.676V7.635H0Z" transform="translate(62.971 36.266) rotate(-45)"/><path class="e" d="M0,0H11.676V8.515H0Z" transform="translate(56.952 30.244) rotate(-45)"/></g></g></g></svg>