<svg xmlns="http://www.w3.org/2000/svg" xmlns:xlink="http://www.w3.org/1999/xlink" width="207" height="207" viewBox="0 0 207 207"><defs><style>.a{fill:url(#a);}.b{fill:#acbfc9;}.c{fill:#c8dce3;}.d{fill:#fbe8e4;}.e{fill:#e2a094;}.f{fill:#97a6ad;}.g{fill:#d6c2bf;}.h{fill:#bf867f;}.i{fill:#f4f8fc;}.j{fill:#f8d2c5;}.k{fill:#c6a79e;}.l{fill:#b78079;}.m{filter:url(#b);}</style><linearGradient id="a" x1="0.5" x2="0.5" y2="1" gradientUnits="objectBoundingBox"><stop offset="0" stop-color="#2bc7f8"/><stop offset="1" stop-color="#023d50"/></linearGradient><filter id="b" x="0" y="0" width="207" height="207" filterUnits="userSpaceOnUse"><feOffset dy="3" input="SourceAlpha"/><feGaussianBlur stdDeviation="3" result="c"/><feFlood flood-opacity="0.161"/><feComposite operator="in" in2="c"/><feComposite in="SourceGraphic"/></filter></defs><g transform="translate(9 6)"><g class="m" transform="matrix(1, 0, 0, 1, -9, -6)"><rect class="a" width="189" height="189" rx="25" transform="translate(9 6)"/></g><g transform="translate(9 2.075)"><g transform="translate(28.668 75.78)"><path class="b" d="M408.758,201h-9.9L397,258.726v.152h13.4v-.152Z" transform="translate(-297.085 -201)"/><path class="b" d="M289.675,201,288,258.726v.152h13.4v-.152L299.576,201Z" transform="translate(-221.288 -201)"/><path class="b" d="M179.767,201,178,258.726v.152h13.4v-.152L189.667,201Z" transform="translate(-144.796 -201)"/><path class="b" d="M70.584,201,69,258.726v.152H82.1v-.152L80.484,201Z" transform="translate(-69 -201)"/></g><g transform="translate(22.271 66.702)"><path class="c" d="M376.9,171.3v3.564a5.74,5.74,0,0,0,5.7,5.757h13.677a5.74,5.74,0,0,0,5.7-5.757V171.3Z" transform="translate(-276.71 -171.27)"/><path class="c" d="M267.3,174.764a5.74,5.74,0,0,0,5.7,5.757h13.677a5.74,5.74,0,0,0,5.7-5.757V171.2H267.33v3.564Z" transform="translate(-200.497 -171.2)"/><path class="c" d="M157.6,174.764a5.74,5.74,0,0,0,5.7,5.757h13.677a5.74,5.74,0,0,0,5.7-5.757V171.2H157.63v3.564Z" transform="translate(-124.214 -171.2)"/><path class="c" d="M48,174.764a5.74,5.74,0,0,0,5.7,5.757H67.374a5.74,5.74,0,0,0,5.7-5.757V171.2H48Z" transform="translate(-48 -171.2)"/></g><path class="d" d="M167.845,53.177v5.575H30.4V53.177A3.562,3.562,0,0,1,32.532,49.8L95.619,21.679a8.516,8.516,0,0,1,7.006,0L165.712,49.8A3.532,3.532,0,0,1,167.845,53.177Z" transform="translate(-13.49 0)"/><path class="e" d="M232.552,50.3a9.352,9.352,0,1,1-9.352,9.352A9.354,9.354,0,0,1,232.552,50.3Z" transform="translate(-147.56 -20.427)"/><path class="f" d="M406.4,393.042v5.727H386.2v-5.727a3.458,3.458,0,0,1,3.442-3.442h13.342A3.432,3.432,0,0,1,406.4,393.042Z" transform="translate(-260.906 -256.369)"/><path class="f" d="M296.8,393.042v5.727H276.6v-5.727a3.458,3.458,0,0,1,3.442-3.442h13.342a3.452,3.452,0,0,1,3.412,3.442Z" transform="translate(-184.693 -256.369)"/><path class="f" d="M187.1,393.042v5.727H166.9v-5.727a3.458,3.458,0,0,1,3.442-3.442h13.342A3.432,3.432,0,0,1,187.1,393.042Z" transform="translate(-108.41 -256.369)"/><path class="f" d="M77.427,393.042v5.727H57.2v-5.727a3.458,3.458,0,0,1,3.442-3.442H73.985A3.458,3.458,0,0,1,77.427,393.042Z" transform="translate(-32.127 -256.369)"/><path class="g" d="M39.441,53.177A3.626,3.626,0,0,1,41.635,49.8l61.9-27.568-1.218-.548a8.445,8.445,0,0,0-6.976,0L32.192,49.765A3.626,3.626,0,0,0,30,53.146v5.575h9.443Z" transform="translate(-13.21 0)"/><path class="h" d="M232.322,59.635a9.386,9.386,0,0,1,4.783-8.164,9.356,9.356,0,1,0,0,16.328A9.386,9.386,0,0,1,232.322,59.635Z" transform="translate(-147.543 -20.41)"/><path class="i" d="M59.617,121.989a2,2,0,1,1,2.071-1.98A2.056,2.056,0,0,1,59.617,121.989Z" transform="translate(-32.472 -67.502)"/><path class="i" d="M111.806,121.555H82.928a1.828,1.828,0,1,1,0-3.655h28.878a1.828,1.828,0,1,1,0,3.655Z" transform="translate(-48.746 -67.434)"/><path class="j" d="M30.4,145.1H167.845v8.56H30.4Z" transform="translate(-13.49 -86.349)"/><path class="k" d="M30,145h9.443v8.56H30Z" transform="translate(-13.212 -86.279)"/><path class="j" d="M164.4,417.7H33.842a3.458,3.458,0,0,0-3.442,3.442v7.463H167.845v-7.463A3.458,3.458,0,0,0,164.4,417.7Z" transform="translate(-13.49 -275.909)"/><path class="k" d="M43.1,417.7h-9.26a3.458,3.458,0,0,0-3.442,3.442v7.463h9.26v-7.463A3.458,3.458,0,0,1,43.1,417.7Z" transform="translate(-13.49 -275.909)"/><path class="e" d="M155.177,453.5H16.087A5.1,5.1,0,0,0,11,458.587v6.367H160.264v-6.367A5.1,5.1,0,0,0,155.177,453.5Z" transform="translate(0 -300.804)"/><path class="l" d="M20.443,458.587A5.1,5.1,0,0,1,25.53,453.5H16.087A5.1,5.1,0,0,0,11,458.587v6.367h9.443Z" transform="translate(0 -300.804)"/></g></g></svg>