<svg xmlns="http://www.w3.org/2000/svg" xmlns:xlink="http://www.w3.org/1999/xlink" width="207" height="207" viewBox="0 0 207 207"><defs><style>.a{fill:url(#a);}.b{fill:#edae6b;}.c{fill:#d18c54;}.d{fill:#00cb75;}.e{fill:#009398;}.f{fill:#90e36a;}.g{fill:#d6fc7e;}.h{filter:url(#b);}</style><linearGradient id="a" x1="0.5" x2="0.5" y2="1" gradientUnits="objectBoundingBox"><stop offset="0" stop-color="#e58dff"/><stop offset="1" stop-color="#6b288e"/></linearGradient><filter id="b" x="0" y="0" width="207" height="207" filterUnits="userSpaceOnUse"><feOffset dy="3" input="SourceAlpha"/><feGaussianBlur stdDeviation="3" result="c"/><feFlood flood-opacity="0.161"/><feComposite operator="in" in2="c"/><feComposite in="SourceGraphic"/></filter></defs><g transform="translate(9 6)"><g class="h" transform="matrix(1, 0, 0, 1, -9, -6)"><rect class="a" width="189" height="189" rx="25" transform="translate(9 6)"/></g><g transform="translate(-2771 -7924)"><g transform="translate(2811.388 8033.883)"><path class="b" d="M253.35,321.624l-.329-.33a31.732,31.732,0,0,0-44.875,0l-.329.33H175.291a9.761,9.761,0,0,0-9.458,12.158l-32.747-10.919A9.942,9.942,0,0,0,120,332.3v.214a9.961,9.961,0,0,0,4.6,8.44l56.456,35.926a28.459,28.459,0,0,0,22.523,3.512l49.766-13.1h16.262V321.624Z" transform="translate(-120 -312)"/><path class="b" d="M188.217,356.242a9.766,9.766,0,0,1-9.46-7.355l-32.744-10.92a9.846,9.846,0,0,0-4.232-.455l43.184,24.255h35.777v-5.525Z" transform="translate(-132.925 -327.104)"/><path class="c" d="M220.741,359a2.765,2.765,0,0,1-2.765,2.765H198.348a51.155,51.155,0,0,1-25.048-6.554l-31.521-17.7a9.846,9.846,0,0,1,4.232.455l32.744,10.92a9.766,9.766,0,0,0,9.461,7.354h29.76A2.765,2.765,0,0,1,220.741,359Z" transform="translate(-132.925 -327.104)"/></g><g transform="translate(2833.728 7959.192)"><g transform="translate(0 83.655)"><path class="d" d="M110.973,445.614H21v-5.743A2.872,2.872,0,0,1,23.871,437H108.1a2.872,2.872,0,0,1,2.871,2.871Z" transform="translate(-21 -437)"/><path class="e" d="M298.115,437H256v8.614h44.986v-5.743A2.872,2.872,0,0,0,298.115,437Z" transform="translate(-211.014 -437)"/></g><g transform="translate(0 77.913)"><path class="f" d="M110.973,415.614H21v-5.743A2.872,2.872,0,0,1,23.871,407H108.1a2.872,2.872,0,0,1,2.871,2.871Z" transform="translate(-21 -407)"/><path class="d" d="M298.115,407H256v8.614h44.986v-5.743A2.872,2.872,0,0,0,298.115,407Z" transform="translate(-211.014 -407)"/></g><g transform="translate(0 72.17)"><path class="d" d="M110.973,385.614H21v-5.743A2.872,2.872,0,0,1,23.871,377H108.1a2.872,2.872,0,0,1,2.871,2.871Z" transform="translate(-21 -377)"/><path class="e" d="M298.115,377H256v8.614h44.986v-5.743A2.872,2.872,0,0,0,298.115,377Z" transform="translate(-211.014 -377)"/></g><g transform="translate(0 66.427)"><path class="f" d="M110.973,355.614H21v-5.743A2.872,2.872,0,0,1,23.871,347H108.1a2.872,2.872,0,0,1,2.871,2.871Z" transform="translate(-21 -347)"/><path class="d" d="M298.115,347H256v8.614h44.986v-5.743A2.872,2.872,0,0,0,298.115,347Z" transform="translate(-211.014 -347)"/></g><g transform="translate(0 60.684)"><path class="d" d="M110.973,325.614H21v-5.743A2.872,2.872,0,0,1,23.871,317H108.1a2.872,2.872,0,0,1,2.871,2.871Z" transform="translate(-21 -317)"/><path class="e" d="M298.115,317H256v8.614h44.986v-5.743A2.872,2.872,0,0,0,298.115,317Z" transform="translate(-211.014 -317)"/></g><g transform="translate(0 54.941)"><path class="f" d="M110.973,295.614H21v-5.743A2.872,2.872,0,0,1,23.871,287H108.1a2.872,2.872,0,0,1,2.871,2.871Z" transform="translate(-21 -287)"/><path class="d" d="M298.115,287H256v8.614h44.986v-5.743A2.872,2.872,0,0,0,298.115,287Z" transform="translate(-211.014 -287)"/></g><g transform="translate(0 49.198)"><path class="d" d="M110.973,265.614H21v-5.743A2.872,2.872,0,0,1,23.871,257H108.1a2.872,2.872,0,0,1,2.871,2.871Z" transform="translate(-21 -257)"/><path class="e" d="M298.115,257H256v8.614h44.986v-5.743A2.872,2.872,0,0,0,298.115,257Z" transform="translate(-211.014 -257)"/></g><path class="g" d="M110.973,21.057,89.915,0H42.057L21,21.057v9.954L42.057,52.069H89.915l21.057-21.057Z" transform="translate(-21)"/><path class="f" d="M279.929,0H256V52.069h23.929l21.057-21.057V21.057Z" transform="translate(-211.014)"/><g transform="translate(0)"><path class="f" d="M42.057,183.057H21V162A21.058,21.058,0,0,1,42.057,183.057Z" transform="translate(-21 -130.988)"/><path class="f" d="M21,21.057V0H42.057A21.058,21.058,0,0,1,21,21.057Z" transform="translate(-21)"/><g transform="translate(68.915)"><path class="d" d="M402.057,183.057H381A21.058,21.058,0,0,1,402.057,162Z" transform="translate(-381 -130.988)"/><path class="d" d="M402.057,21.057A21.058,21.058,0,0,1,381,0h21.057V21.057Z" transform="translate(-381)"/></g></g><path class="f" d="M179.186,52.069c-5.086,0-9.783-2.867-13.224-8.072A32.858,32.858,0,0,1,161,26.035a32.858,32.858,0,0,1,4.962-17.963C169.4,2.867,174.1,0,179.186,0s9.783,2.867,13.224,8.072a32.859,32.859,0,0,1,4.962,17.963A32.859,32.859,0,0,1,192.41,44C188.969,49.2,184.272,52.069,179.186,52.069Z" transform="translate(-134.2)"/><path class="d" d="M269.224,8.072C265.783,2.867,261.086,0,256,0V52.069c5.086,0,9.783-2.867,13.224-8.072a32.859,32.859,0,0,0,4.962-17.963A32.859,32.859,0,0,0,269.224,8.072Z" transform="translate(-211.014)"/><ellipse class="f" cx="3.024" cy="2.808" rx="3.024" ry="2.808" transform="translate(15.175 23.084)"/><ellipse class="d" cx="3.024" cy="2.808" rx="3.024" ry="2.808" transform="translate(68.749 23.084)"/><path class="g" d="M225.329,65.338c-.387-.137-.781-.279-1.176-.426V58a3.055,3.055,0,0,1,1.236.691,1.914,1.914,0,0,0,2.878-2.524,7.008,7.008,0,0,0-4.114-2.083V52.914a1.914,1.914,0,0,0-3.829,0V54.3c-.158.04-.318.083-.48.132A6.773,6.773,0,0,0,215.2,59.74a6,6,0,0,0,1.978,5.912,15.172,15.172,0,0,0,3.145,1.828v8.9a6.271,6.271,0,0,1-2.941-1.207,1.914,1.914,0,1,0-2.1,3.2,9.8,9.8,0,0,0,5.037,1.85v1.4a1.914,1.914,0,1,0,3.829,0V80.051a8.2,8.2,0,0,0,6.077-6.56A7.123,7.123,0,0,0,225.329,65.338Zm-5.787-2.7a2.257,2.257,0,0,1-.579-2.19,3.129,3.129,0,0,1,1.361-2.073v4.8A7.911,7.911,0,0,1,219.543,62.639Zm6.912,10.217a4.358,4.358,0,0,1-2.3,3.147V68.986A3.366,3.366,0,0,1,226.455,72.857Z" transform="translate(-177.394 -41.237)"/><path class="f" d="M258.949,65.368c-.387-.137-.781-.279-1.176-.426V58.027a3.055,3.055,0,0,1,1.236.69,1.914,1.914,0,0,0,2.878-2.524,7.008,7.008,0,0,0-4.114-2.083V52.944A1.913,1.913,0,0,0,256,51.037V83.566a1.913,1.913,0,0,0,1.773-1.907V80.081a8.2,8.2,0,0,0,6.077-6.56A7.124,7.124,0,0,0,258.949,65.368Zm1.125,7.519a4.357,4.357,0,0,1-2.3,3.147V69.016A3.366,3.366,0,0,1,260.074,72.887Z" transform="translate(-211.014 -41.267)"/></g><path class="b" d="M242.465,321.624l-.329-.33a31.732,31.732,0,0,0-44.875,0l-.329.33H164.407a9.757,9.757,0,0,0-9.757,9.757c0,.811,68.615,9.4,104.078,35.91V321.624Z" transform="translate(2702.273 7721.883)"/></g></g></svg>