<svg xmlns="http://www.w3.org/2000/svg" width="95.99" height="116.125" viewBox="0 0 95.99 116.125"><defs><style>.a,.b{fill:#fff;}.a{stroke:#fff;stroke-miterlimit:10;stroke-width:0.25px;}</style></defs><g transform="translate(-4.813 -4.313)"><g transform="translate(8.992 108.385)"><path class="a" d="M11.767,104.776a1.657,1.657,0,0,0-1.32.663,2.414,2.414,0,0,0-.552,1.6V108.1h2.417v1.092H9.9v3.295H8.8v-5.443a3.467,3.467,0,0,1,.871-2.375,2.689,2.689,0,0,1,2.093-.981h.546v1.092Z" transform="translate(-8.803 -103.684)"/><path class="a" d="M23.941,106.156v6.222H22.849v-.706a3.808,3.808,0,0,1-5.069-.03,3.181,3.181,0,0,1,0-4.743,3.806,3.806,0,0,1,5.069-.031v-.711Zm-5.387,4.713a2.711,2.711,0,0,0,3.552,0,2.092,2.092,0,0,0,0-3.2,2.711,2.711,0,0,0-3.552,0,2.092,2.092,0,0,0,0,3.2Z" transform="translate(-8.429 -103.578)"/><path class="a" d="M29.264,111.642a3.179,3.179,0,0,1,0-4.743,3.783,3.783,0,0,1,5.252.147l.381.4-.792.755-.38-.4a2.708,2.708,0,0,0-3.689-.129,2.092,2.092,0,0,0,0,3.2,2.708,2.708,0,0,0,3.689-.129l.38-.4.792.755-.381.393a3.568,3.568,0,0,1-2.706,1.134A3.6,3.6,0,0,1,29.264,111.642Z" transform="translate(-7.885 -103.579)"/><path class="a" d="M42.071,103.684v2.577h1.9v1.092h-1.9v5.13H40.979v-5.13h-1.9v-1.092h1.9v-2.577Z" transform="translate(-7.371 -103.684)"/><path class="a" d="M48.6,111.642a3.179,3.179,0,0,1,0-4.743,3.782,3.782,0,0,1,5.1,0,3.179,3.179,0,0,1,0,4.743,3.8,3.8,0,0,1-5.1,0Zm.773-3.97a2.092,2.092,0,0,0,0,3.2,2.712,2.712,0,0,0,3.554,0,2.092,2.092,0,0,0,0-3.2,2.712,2.712,0,0,0-3.554,0Z" transform="translate(-6.971 -103.579)"/><path class="a" d="M63.106,105.91V107h-.552a2.559,2.559,0,0,0-1.774.663,2.074,2.074,0,0,0-.743,1.6v3.112H58.945v-6.222h1.092v.706a3.631,3.631,0,0,1,2.517-.952Z" transform="translate(-6.431 -103.579)"/><path class="a" d="M67.418,106.145H68.51v6.222H67.418Z" transform="translate(-6.03 -103.568)"/><path class="a" d="M76.6,105.91a3.613,3.613,0,0,1,2.552.982,3.13,3.13,0,0,1,1.062,2.374v3.112H79.12v-3.112a2.074,2.074,0,0,0-.743-1.6,2.713,2.713,0,0,0-3.554,0,2.071,2.071,0,0,0-.743,1.6v3.112H72.989v-6.222h1.092v.706A3.631,3.631,0,0,1,76.6,105.91Z" transform="translate(-5.767 -103.579)"/><path class="a" d="M91.661,106.156v5.995a3.13,3.13,0,0,1-1.062,2.375,3.612,3.612,0,0,1-2.552.981,3.656,3.656,0,0,1-2.369-.822l-.423-.344.687-.853.423.344a2.721,2.721,0,0,0,3.461-.08,2.078,2.078,0,0,0,.736-1.6v-.479a3.8,3.8,0,0,1-5.063-.03,3.179,3.179,0,0,1,0-4.743,3.78,3.78,0,0,1,5.063-.031v-.711Zm-5.394,4.713a2.719,2.719,0,0,0,3.559,0,2.1,2.1,0,0,0,0-3.2,2.719,2.719,0,0,0-3.559,0,2.1,2.1,0,0,0,0,3.2Z" transform="translate(-5.225 -103.579)"/></g><g transform="translate(57.571 79.439)"><g transform="translate(0 0)"><path class="b" d="M77.62,98.038h-4.4l-2.011-3.927L66.4,84.686,61.6,94.111l-2.011,3.927h-4.4L57.2,94.111l9.2-18.065,9.206,18.065Z" transform="translate(-55.188 -76.046)"/><path class="b" d="M79.4,87.042a7.079,7.079,0,0,0,7.068,7.069h11v3.927h-11a11,11,0,0,1,0-21.992h11v3.927h-11A7.079,7.079,0,0,0,79.4,87.042Z" transform="translate(-54.229 -76.046)"/></g></g><g transform="translate(4.813 4.313)"><path class="b" d="M4.813,52.874c26.507,0,47.995-21.742,47.995-48.561H4.813Z" transform="translate(-4.813 -4.313)"/><path class="b" d="M100.8,4.313c-26.506,0-47.994,21.741-47.995,48.559v0c0,26.818-21.488,48.56-47.994,48.56H52.808c0-26.819,21.489-48.56,47.995-48.56Z" transform="translate(-4.813 -4.313)"/></g></g></svg>