<svg xmlns="http://www.w3.org/2000/svg" width="74.202" height="89.796" viewBox="0 0 74.202 89.796"><defs><style>.a{stroke:#000;stroke-miterlimit:10;stroke-width:0.25px;}.b{fill:#7e1210;}.c{fill:#8c171a;}</style></defs><g transform="translate(-4.813 -4.313)"><g transform="translate(8.043 84.763)"><path class="a" d="M11.094,104.528a1.281,1.281,0,0,0-1.02.512,1.866,1.866,0,0,0-.427,1.238v.816h1.869v.844H9.647v2.547H8.8v-4.207a2.68,2.68,0,0,1,.674-1.836,2.078,2.078,0,0,1,1.618-.759h.422v.844Z" transform="translate(-8.803 -103.684)"/><path class="a" d="M22.3,106.1v4.81h-.844v-.546a2.943,2.943,0,0,1-3.918-.023,2.459,2.459,0,0,1,0-3.667,2.942,2.942,0,0,1,3.918-.024v-.55Zm-4.165,3.643a2.1,2.1,0,0,0,2.746,0,1.617,1.617,0,0,0,0-2.472,2.1,2.1,0,0,0-2.746,0,1.617,1.617,0,0,0,0,2.472Z" transform="translate(-10.31 -104.109)"/><path class="a" d="M29.023,110.341a2.458,2.458,0,0,1,0-3.667,2.925,2.925,0,0,1,4.06.113l.295.308-.612.584-.294-.308a2.093,2.093,0,0,0-2.851-.1,1.617,1.617,0,0,0,0,2.472,2.093,2.093,0,0,0,2.851-.1l.294-.308.612.584-.295.3a2.758,2.758,0,0,1-2.092.877A2.786,2.786,0,0,1,29.023,110.341Z" transform="translate(-12.497 -104.108)"/><path class="a" d="M41.393,103.684v1.992h1.466v.844H41.393v3.965h-.844v-3.965H39.083v-.844h1.465v-1.992Z" transform="translate(-14.569 -103.684)"/><path class="a" d="M48.358,110.341a2.458,2.458,0,0,1,0-3.667,2.924,2.924,0,0,1,3.942,0,2.458,2.458,0,0,1,0,3.667,2.94,2.94,0,0,1-3.942,0Zm.6-3.069a1.617,1.617,0,0,0,0,2.472,2.1,2.1,0,0,0,2.747,0,1.617,1.617,0,0,0,0-2.472,2.1,2.1,0,0,0-2.747,0Z" transform="translate(-16.178 -104.108)"/><path class="a" d="M62.162,105.91v.844h-.427a1.978,1.978,0,0,0-1.371.512,1.6,1.6,0,0,0-.574,1.238v2.405h-.844V106.1h.844v.546a2.807,2.807,0,0,1,1.945-.736Z" transform="translate(-18.35 -104.108)"/><path class="a" d="M67.418,106.145h.844v4.81h-.844Z" transform="translate(-19.964 -104.153)"/><path class="a" d="M75.779,105.91a2.793,2.793,0,0,1,1.973.759,2.419,2.419,0,0,1,.821,1.835v2.405h-.844V108.5a1.6,1.6,0,0,0-.574-1.238,2.1,2.1,0,0,0-2.747,0,1.6,1.6,0,0,0-.574,1.238v2.405h-.844V106.1h.844v.546A2.807,2.807,0,0,1,75.779,105.91Z" transform="translate(-21.024 -104.108)"/><path class="a" d="M90.022,106.1v4.634a2.42,2.42,0,0,1-.821,1.836,2.792,2.792,0,0,1-1.973.759,2.826,2.826,0,0,1-1.831-.636l-.327-.266.531-.659.327.266a2.1,2.1,0,0,0,2.676-.062,1.607,1.607,0,0,0,.569-1.239v-.37a2.937,2.937,0,0,1-3.914-.023,2.458,2.458,0,0,1,0-3.667,2.922,2.922,0,0,1,3.914-.024v-.55Zm-4.169,3.643a2.1,2.1,0,0,0,2.751,0,1.626,1.626,0,0,0,0-2.472,2.1,2.1,0,0,0-2.751,0,1.625,1.625,0,0,0,0,2.472Z" transform="translate(-23.204 -104.108)"/></g><g transform="translate(45.596 62.388)"><g transform="translate(0 0)"><path class="b" d="M72.529,93.047h-3.4l-1.554-3.036-3.716-7.286-3.715,7.286-1.554,3.036h-3.4l1.554-3.036,7.116-13.965,7.116,13.965Z" transform="translate(-55.188 -76.046)"/><path class="b" d="M78.5,84.546a5.472,5.472,0,0,0,5.464,5.465h8.5v3.036h-8.5a8.5,8.5,0,0,1,0-17h8.5v3.036h-8.5A5.472,5.472,0,0,0,78.5,84.546Z" transform="translate(-59.049 -76.046)"/></g></g><g transform="translate(4.813 4.313)"><path class="c" d="M4.813,41.852a37.322,37.322,0,0,0,37.1-37.539H4.813Z" transform="translate(-4.813 -4.313)"/><path class="c" d="M79.016,4.313a37.322,37.322,0,0,0-37.1,37.538v0a37.322,37.322,0,0,1-37.1,37.538h37.1a37.322,37.322,0,0,1,37.1-37.538Z" transform="translate(-4.813 -4.313)"/></g></g></svg>