<svg xmlns="http://www.w3.org/2000/svg" width="147.345" height="132.615" viewBox="0 0 147.345 132.615"><defs><style>.a{fill:#cecece;}.b{fill:#e8c8b3;}.c{fill:#ecf0f1;}.d{fill:#919191;}.e{fill:#696969;}.f{fill:#b2b2b2;}.g{fill:#adadad;}.h{fill:#8c171a;}.i{fill:#6a0a0c;}</style></defs><path class="a" d="M187.371,206.963l-6.8,1.157a7.293,7.293,0,1,1-2.445-14.379l9.464-1.609Z" transform="translate(-118.218 -131.763)"/><path class="b" d="M222.1,203.656,210.84,205.57a6.44,6.44,0,0,1-3.267-12.406l18.2-6.572Z" transform="translate(-138.115 -128.239)"/><path class="c" d="M95.6,90.667l2.449-11.375,28.439,6.123L129.4,71.906a13.091,13.091,0,0,0-2.915-11.34l-10.771-12.4a13.091,13.091,0,0,0-10.133-4.5L60.9,44.513,24,26.116V69.751L47.256,80.258l4.8,5.891A31.432,31.432,0,0,0,69.8,97.016a26.618,26.618,0,0,0,17.484-2.2Z" transform="translate(-24 -26.116)"/><g transform="translate(74.815 33.203)"><path class="b" d="M270.949,207.3l-1.531,7.11a7.273,7.273,0,1,1-14.219-3.061l1.531-7.11Z" transform="translate(-245.839 -172.668)"/><path class="a" d="M266.713,145.173a2.914,2.914,0,0,1-2.847-3.522l1.225-5.688a2.909,2.909,0,1,1,5.688,1.225l-1.225,5.688A2.909,2.909,0,0,1,266.713,145.173Z" transform="translate(-251.419 -127.76)"/><path class="a" d="M237.875,136.464a2.909,2.909,0,0,1-2.707-1.841L229.95,121.4a2.909,2.909,0,0,1,5.412-2.136l5.218,13.219a2.909,2.909,0,0,1-2.705,3.978Z" transform="translate(-229.746 -117.425)"/></g><g transform="translate(65.206 48.379)"><g transform="translate(0 76.372)"><path class="d" d="M103.139,444.864H21v-5.243A2.622,2.622,0,0,1,23.621,437h76.9a2.622,2.622,0,0,1,2.621,2.621Z" transform="translate(-21 -437)"/><path class="e" d="M294.448,437H256v7.864h41.07v-5.243A2.622,2.622,0,0,0,294.448,437Z" transform="translate(-214.93 -437)"/></g><g transform="translate(0 71.129)"><path class="a" d="M103.139,414.864H21v-5.243A2.622,2.622,0,0,1,23.621,407h76.9a2.622,2.622,0,0,1,2.621,2.621Z" transform="translate(-21 -407)"/><path class="d" d="M294.448,407H256v7.864h41.07v-5.243A2.622,2.622,0,0,0,294.448,407Z" transform="translate(-214.93 -407)"/></g><g transform="translate(0 65.886)"><path class="d" d="M103.139,384.864H21v-5.243A2.622,2.622,0,0,1,23.621,377h76.9a2.622,2.622,0,0,1,2.621,2.621Z" transform="translate(-21 -377)"/><path class="e" d="M294.448,377H256v7.864h41.07v-5.243A2.622,2.622,0,0,0,294.448,377Z" transform="translate(-214.93 -377)"/></g><g transform="translate(0 60.643)"><path class="a" d="M103.139,354.864H21v-5.243A2.622,2.622,0,0,1,23.621,347h76.9a2.622,2.622,0,0,1,2.621,2.621Z" transform="translate(-21 -347)"/><path class="d" d="M294.448,347H256v7.864h41.07v-5.243A2.622,2.622,0,0,0,294.448,347Z" transform="translate(-214.93 -347)"/></g><g transform="translate(0 55.4)"><path class="d" d="M103.139,324.864H21v-5.243A2.622,2.622,0,0,1,23.621,317h76.9a2.622,2.622,0,0,1,2.621,2.621Z" transform="translate(-21 -317)"/><path class="e" d="M294.448,317H256v7.864h41.07v-5.243A2.622,2.622,0,0,0,294.448,317Z" transform="translate(-214.93 -317)"/></g><g transform="translate(0 50.157)"><path class="a" d="M103.139,294.864H21v-5.243A2.622,2.622,0,0,1,23.621,287h76.9a2.622,2.622,0,0,1,2.621,2.621Z" transform="translate(-21 -287)"/><path class="d" d="M294.448,287H256v7.864h41.07v-5.243A2.622,2.622,0,0,0,294.448,287Z" transform="translate(-214.93 -287)"/></g><g transform="translate(0 44.914)"><path class="d" d="M103.139,264.864H21v-5.243A2.622,2.622,0,0,1,23.621,257h76.9a2.622,2.622,0,0,1,2.621,2.621Z" transform="translate(-21 -257)"/><path class="e" d="M294.448,257H256v7.864h41.07v-5.243A2.622,2.622,0,0,0,294.448,257Z" transform="translate(-214.93 -257)"/></g><path class="f" d="M103.139,19.224,83.915,0H40.224L21,19.224v9.088L40.224,47.536H83.915l19.224-19.224Z" transform="translate(-21)"/><path class="d" d="M277.845,0H256V47.536h21.845L297.07,28.312V19.224Z" transform="translate(-214.93)"/><g transform="translate(0)"><path class="a" d="M40.224,181.224H21V162A19.224,19.224,0,0,1,40.224,181.224Z" transform="translate(-21 -133.688)"/><path class="a" d="M21,19.224V0H40.224A19.224,19.224,0,0,1,21,19.224Z" transform="translate(-21)"/><g transform="translate(62.915)"><path class="g" d="M400.224,181.224H381A19.224,19.224,0,0,1,400.224,162Z" transform="translate(-381 -133.688)"/><path class="g" d="M400.224,19.224A19.224,19.224,0,0,1,381,0h19.224V19.224Z" transform="translate(-381)"/></g></g><path class="a" d="M177.6,47.536c-4.643,0-8.931-2.617-12.073-7.369a30,30,0,0,1-4.53-16.4,30,30,0,0,1,4.53-16.4C168.672,2.617,172.959,0,177.6,0s8.931,2.617,12.073,7.369a30,30,0,0,1,4.53,16.4,30,30,0,0,1-4.53,16.4C186.534,44.918,182.246,47.536,177.6,47.536Z" transform="translate(-136.533)"/><path class="g" d="M268.073,7.369C264.931,2.617,260.643,0,256,0V47.536c4.643,0,8.931-2.617,12.073-7.369a30,30,0,0,0,4.53-16.4A30,30,0,0,0,268.073,7.369Z" transform="translate(-214.93)"/><ellipse class="a" cx="2.761" cy="2.564" rx="2.761" ry="2.564" transform="translate(13.854 21.074)"/><path class="g" d="M2.761,0A2.668,2.668,0,0,1,5.522,2.564,2.668,2.668,0,0,1,2.761,5.128,2.668,2.668,0,0,1,0,2.564,2.668,2.668,0,0,1,2.761,0Z" transform="translate(62.763 21.074)"/><path class="h" d="M224.38,64.09c-.353-.125-.713-.255-1.074-.389V57.388a2.789,2.789,0,0,1,1.128.63,1.748,1.748,0,0,0,2.628-2.3,6.4,6.4,0,0,0-3.756-1.9V52.748a1.748,1.748,0,0,0-3.5,0V54.01c-.145.037-.29.076-.438.121a6.183,6.183,0,0,0-4.239,4.848,5.479,5.479,0,0,0,1.806,5.4,13.85,13.85,0,0,0,2.871,1.669v8.127a5.725,5.725,0,0,1-2.685-1.1A1.748,1.748,0,1,0,215.212,76a8.944,8.944,0,0,0,4.6,1.689v1.278a1.748,1.748,0,0,0,3.5,0v-1.44a7.484,7.484,0,0,0,5.548-5.989A6.5,6.5,0,0,0,224.38,64.09ZM219.1,61.626a2.061,2.061,0,0,1-.528-2,2.857,2.857,0,0,1,1.242-1.893v4.379A7.225,7.225,0,0,1,219.1,61.626Zm6.31,9.328a3.978,3.978,0,0,1-2.1,2.873V67.42A3.073,3.073,0,0,1,225.407,70.954Z" transform="translate(-180.618 -42.087)"/><path class="i" d="M258.692,64.12c-.353-.125-.713-.255-1.074-.389V57.419a2.789,2.789,0,0,1,1.128.63,1.748,1.748,0,0,0,2.628-2.3,6.4,6.4,0,0,0-3.756-1.9V52.778A1.747,1.747,0,0,0,256,51.037v29.7a1.747,1.747,0,0,0,1.618-1.741v-1.44a7.484,7.484,0,0,0,5.548-5.989A6.5,6.5,0,0,0,258.692,64.12Zm1.027,6.864a3.978,3.978,0,0,1-2.1,2.873V67.451A3.073,3.073,0,0,1,259.719,70.984Z" transform="translate(-214.93 -42.118)"/></g><path class="c" d="M151.608,166.7a24.88,24.88,0,0,0,16.341-2.059l8.859-4.419,23.625,2.882a9.123,9.123,0,0,0,3.026-17.975L181.1,140.318l-22.752-4.9Z" transform="translate(-105.206 -95.674)"/></svg>