<svg xmlns="http://www.w3.org/2000/svg" width="80.494" height="96.174" viewBox="0 0 80.494 96.174"><defs><style>.a{fill:#fff;}.b{fill:#f5f5f5;}.c{fill:#adadad;}.d{fill:#525252;}.e{fill:#ecf0f1;}.f{fill:#cecece;}.g{fill:#8c171a;}.h{fill:#6a0a0c;}</style></defs><g transform="translate(0 0)"><path class="a" d="M116.708,0H72.348C66.091,0,61,4.635,61,10.331V85.843c0,5.7,5.091,10.331,11.348,10.331h57.771c6.257,0,11.348-4.635,11.348-10.331v-63.3Z" transform="translate(-61)"/><path class="b" d="M256,0V96.174h28.886c6.257,0,11.348-4.635,11.348-10.331v-63.3L271.475,0Z" transform="translate(-215.766)"/><g transform="translate(16.506 23.959)"><path class="c" d="M164.728,221.835a3.093,3.093,0,0,1-.889-.131A32.047,32.047,0,0,1,141,191.009V173.348a3.1,3.1,0,0,1,3.095-3.095,10.2,10.2,0,0,0,9.176-5.671l.436-.871A3.1,3.1,0,0,1,156.475,162h16.506a3.1,3.1,0,0,1,2.768,1.711l.436.871a10.2,10.2,0,0,0,9.176,5.671,3.1,3.1,0,0,1,3.095,3.095v17.661a32.047,32.047,0,0,1-22.838,30.7A3.093,3.093,0,0,1,164.728,221.835Z" transform="translate(-141 -162)"/><path class="d" d="M276.633,170.253a10.2,10.2,0,0,1-9.176-5.671l-.436-.871A3.1,3.1,0,0,0,264.253,162H256v59.835a3.093,3.093,0,0,0,.889-.131,32.047,32.047,0,0,0,22.838-30.7V173.348A3.1,3.1,0,0,0,276.633,170.253Z" transform="translate(-232.272 -162)"/><path class="e" d="M171,200.568v15.98a27.636,27.636,0,0,0,18.867,26.338,27.636,27.636,0,0,0,18.867-26.338v-15.98A17.567,17.567,0,0,1,196.72,192H183.014A17.567,17.567,0,0,1,171,200.568Z" transform="translate(-166.14 -187.603)"/><path class="f" d="M262.853,192H256v50.887a27.636,27.636,0,0,0,18.867-26.338v-15.98A17.566,17.566,0,0,1,262.853,192Z" transform="translate(-232.272 -187.603)"/><path class="g" d="M207.505,281.577a3.084,3.084,0,0,1-2.188-.907l-5.836-5.836a3.095,3.095,0,1,1,4.377-4.377l3.647,3.647,9.483-9.483A3.095,3.095,0,1,1,221.365,269L209.694,280.67A3.085,3.085,0,0,1,207.505,281.577Z" transform="translate(-186.695 -242.729)"/><path class="h" d="M262.565,264.622,256,271.187v8.754L266.942,269a3.095,3.095,0,0,0-4.377-4.377Z" transform="translate(-232.272 -242.729)"/></g><path class="f" d="M331,0V20.158a2.88,2.88,0,0,0,2.88,2.88l21.906-.474Z" transform="translate(-275.292)"/></g></svg>