<svg xmlns="http://www.w3.org/2000/svg" width="115.691" height="118.391" viewBox="0 0 115.691 118.391"><defs><style>.a{fill:#d8d8d8;}.b{fill:#c1c1c1;}.c{fill:#efefef;}.d{fill:#b4b4b4;}.e{fill:gray;}.f{fill:#8c171a;}.g{fill:#f4f8fc;}.h{fill:#919191;}.i{fill:#696969;}</style></defs><g transform="translate(-16 -10.82)"><path class="a" d="M81.17,163.874,24.033,70h-5.4A2.553,2.553,0,0,0,16,72.514v96.267a2.677,2.677,0,0,0,2.635,2.659H82.178Z" transform="translate(0 -44.887)"/><path class="b" d="M53.847,44H47.666A2.587,2.587,0,0,0,45,46.523v95.986a2.733,2.733,0,0,0,2.669,2.691h55.539v-8.386Z" transform="translate(-21.996 -25.166)"/><path class="c" d="M151.728,31.152l-19.87-20.288L80.514,10.82A2.573,2.573,0,0,0,78,13.474V110a2.476,2.476,0,0,0,2.517,2.541h48.2L151.9,65.69V32.055A1.888,1.888,0,0,0,151.728,31.152Z" transform="translate(-47.023 0)"/><path class="a" d="M320.808,31.455c-13.978-.534-18.724-1.077-19.191-1.56-1.533-2.082-.677-4.79-.674-18.535a2.587,2.587,0,0,1,1.2.7L320.27,30.639a2.651,2.651,0,0,1,.539.816Z" transform="translate(-216.103 -0.41)"/><path class="d" d="M249.8,109.125c0,.133,0,.263,0,.394l-.271,0h-19.74l-.155-.229.234-.159L243.94,95.049l.019-.019a19.867,19.867,0,0,1,5.84,14.1Z" transform="translate(-162.033 -63.871)"/><path class="e" d="M187.65,102.567l.271,0a19.935,19.935,0,1,1-31.4-16.7l.1.152,11.129,16.315.155.229Z" transform="translate(-100.159 -56.924)"/><path class="f" d="M208.683,76.689l-.019.019-4.856,4.856-9.22,9.22-.234.159-11.13-16.315-.1-.152A19.934,19.934,0,0,1,208.683,76.689Z" transform="translate(-126.756 -45.53)"/><path class="a" d="M85.243,110V13.474a2.578,2.578,0,0,1,2.405-2.648l-7.134-.006A2.573,2.573,0,0,0,78,13.474V110a2.476,2.476,0,0,0,2.517,2.541H87.76A2.476,2.476,0,0,1,85.243,110Z" transform="translate(-47.023)"/><path class="e" d="M251.379,311.937h-5.423a1.449,1.449,0,0,1,0-2.9h5.423a1.449,1.449,0,1,1,0,2.9Z" transform="translate(-173.317 -226.192)"/><path class="e" d="M170.1,311.937H155a1.449,1.449,0,0,1,0-2.9h15.1a1.449,1.449,0,0,1,0,2.9Z" transform="translate(-104.329 -226.192)"/><path class="e" d="M127.908,311.937h-1.473a1.449,1.449,0,1,1,0-2.9h1.473a1.449,1.449,0,0,1,0,2.9Z" transform="translate(-82.663 -226.192)"/><path class="e" d="M241.989,362.613H231.665a1.449,1.449,0,0,1,0-2.9h10.324a1.449,1.449,0,0,1,0,2.9Z" transform="translate(-162.477 -264.628)"/><path class="e" d="M183.84,362.613h-7.883a1.449,1.449,0,1,1,0-2.9h7.883a1.449,1.449,0,0,1,0,2.9Z" transform="translate(-120.224 -264.628)"/><path class="e" d="M132.733,362.613h-6.3a1.449,1.449,0,0,1,0-2.9h6.3a1.449,1.449,0,1,1,0,2.9Z" transform="translate(-82.662 -264.628)"/><path class="g" d="M102.489,50.287a1.449,1.449,0,0,1-1.449-1.449v-.583a1.449,1.449,0,0,1,2.9,0v.583A1.449,1.449,0,0,1,102.489,50.287Z" transform="translate(-64.501 -27.294)"/><path class="g" d="M102.489,94.743a1.449,1.449,0,0,1-1.449-1.449V74.1a1.449,1.449,0,1,1,2.9,0v19.2A1.449,1.449,0,0,1,102.489,94.743Z" transform="translate(-64.501 -46.896)"/><path class="h" d="M283,315v39.033a5.906,5.906,0,0,0,.993,3.183,5.986,5.986,0,0,0,5.014,2.708h39.277a5.916,5.916,0,0,0,5.92-5.891V315Z" transform="translate(-202.513 -230.713)"/><path class="b" d="M328.284,234H289.007A6,6,0,0,0,283,239.9v13.668h51.2V239.9a5.92,5.92,0,0,0-5.92-5.9Z" transform="translate(-202.513 -169.276)"/><path class="e" d="M311.93,259.37h37.316V267.8H311.93Z" transform="translate(-224.455 -188.519)"/><g transform="translate(88.11 88.982)"><path class="i" d="M432.807,334.44a4.349,4.349,0,1,1-4.347,4.35,4.349,4.349,0,0,1,4.347-4.35Z" transform="translate(-400.95 -334.44)"/><path class="i" d="M432.807,387.41a4.35,4.35,0,1,1-4.347,4.349A4.35,4.35,0,0,1,432.807,387.41Z" transform="translate(-400.95 -374.616)"/><path class="i" d="M432.807,440.39a4.349,4.349,0,1,1-4.347,4.348,4.349,4.349,0,0,1,4.347-4.348Z" transform="translate(-400.95 -414.8)"/><path class="i" d="M375.857,334.44a4.349,4.349,0,1,1-4.347,4.35,4.349,4.349,0,0,1,4.347-4.35Z" transform="translate(-357.755 -334.44)"/><path class="i" d="M375.858,387.41a4.35,4.35,0,1,1-4.347,4.349A4.35,4.35,0,0,1,375.858,387.41Z" transform="translate(-357.755 -374.616)"/><path class="i" d="M375.857,440.39a4.349,4.349,0,1,1-4.347,4.348,4.349,4.349,0,0,1,4.347-4.348Z" transform="translate(-357.755 -414.8)"/><path class="i" d="M318.907,334.44a4.349,4.349,0,1,1-4.347,4.35,4.349,4.349,0,0,1,4.347-4.35Z" transform="translate(-314.56 -334.44)"/><path class="i" d="M318.907,387.41a4.35,4.35,0,1,1-4.347,4.349A4.35,4.35,0,0,1,318.907,387.41Z" transform="translate(-314.56 -374.616)"/><path class="i" d="M318.907,440.39a4.349,4.349,0,1,1-4.347,4.348,4.349,4.349,0,0,1,4.347-4.348Z" transform="translate(-314.56 -414.8)"/></g></g></svg>