<svg xmlns="http://www.w3.org/2000/svg" xmlns:xlink="http://www.w3.org/1999/xlink" width="207" height="207" viewBox="0 0 207 207"><defs><style>.a{fill:url(#a);}.b{fill:#ffc73b;}.c{fill:#ffa73e;}.d{fill:#d4efff;}.e{fill:#b7d4e2;}.f{fill:#ff5a39;}.g{fill:#ff2727;}.h{fill:#364c59;}.i{fill:#668fa3;}.j{filter:url(#b);}</style><linearGradient id="a" x1="0.5" x2="0.5" y2="1" gradientUnits="objectBoundingBox"><stop offset="0" stop-color="#ffca74"/><stop offset="1" stop-color="#ff9a74"/></linearGradient><filter id="b" x="0" y="0" width="207" height="207" filterUnits="userSpaceOnUse"><feOffset dy="3" input="SourceAlpha"/><feGaussianBlur stdDeviation="3" result="c"/><feFlood flood-opacity="0.161"/><feComposite operator="in" in2="c"/><feComposite in="SourceGraphic"/></filter></defs><g transform="translate(9 6)"><g transform="translate(-686 -245)"><g class="j" transform="matrix(1, 0, 0, 1, 677, 239)"><rect class="a" width="189" height="189" rx="25" transform="translate(9 6)"/></g></g><g transform="translate(5.475 -43.397)"><path class="b" d="M166.5,232.9H281.433v68.393H166.5Z" transform="translate(-108.599 -103.034)"/><path class="c" d="M166.5,402.068H281.433v9.563H166.5Z" transform="translate(-108.599 -213.375)"/><g transform="translate(83.159 74.929)"><path class="d" d="M274.034,124.016a2.6,2.6,0,0,1-.723,1.916H254.859a2.61,2.61,0,0,1-.723-1.916l1.739-41.9H272.3Z" transform="translate(-248.916 -79.618)"/><path class="e" d="M296.358,124.016a2.6,2.6,0,0,1-.723,1.916h-6.26a2.6,2.6,0,0,0,.723-1.916l-1.739-41.9h6.26Z" transform="translate(-271.24 -79.618)"/><path class="f" d="M269.468,198.026v10.426H239.13V198.026a2.607,2.607,0,0,1,2.608-2.608H266.86A2.607,2.607,0,0,1,269.468,198.026Z" transform="translate(-239.13 -153.517)"/><path class="g" d="M307.135,198.026v10.426h-7.647V198.026a2.607,2.607,0,0,0-2.608-2.608h7.647A2.607,2.607,0,0,1,307.135,198.026Z" transform="translate(-276.797 -153.517)"/><path class="h" d="M269.907,74.929H251.741a2.608,2.608,0,0,0,0,5.216h18.166a2.608,2.608,0,0,0,0-5.216Z" transform="translate(-245.654 -74.929)"/></g><g transform="translate(122.107 74.929)"><path class="d" d="M386.034,124.016a2.6,2.6,0,0,1-.723,1.916H366.859a2.61,2.61,0,0,1-.723-1.916l1.739-41.9H384.3Z" transform="translate(-360.915 -79.618)"/><path class="e" d="M408.358,124.016a2.6,2.6,0,0,1-.723,1.916h-6.26a2.6,2.6,0,0,0,.723-1.916l-1.739-41.9h6.26Z" transform="translate(-383.24 -79.618)"/><path class="f" d="M381.468,198.026v10.426H351.13V198.026a2.607,2.607,0,0,1,2.608-2.608H378.86A2.607,2.607,0,0,1,381.468,198.026Z" transform="translate(-351.13 -153.517)"/><path class="g" d="M419.135,198.026v10.426h-7.647V198.026a2.607,2.607,0,0,0-2.608-2.608h7.647A2.607,2.607,0,0,1,419.135,198.026Z" transform="translate(-388.797 -153.517)"/><path class="h" d="M381.906,74.929H363.74a2.608,2.608,0,0,0,0,5.216h18.166a2.608,2.608,0,0,0,0-5.216Z" transform="translate(-357.654 -74.929)"/></g><path class="i" d="M166.5,232.9H281.433v9.563H166.5Z" transform="translate(-108.599 -103.034)"/><path class="h" d="M284.043,225.4H169.11a2.608,2.608,0,1,0,0,5.216H284.043a2.608,2.608,0,0,0,0-5.216Z" transform="translate(-108.6 -98.141)"/><g transform="translate(70.834 147.952)"><path class="d" d="M206.3,290.129h13.7a2.608,2.608,0,0,0,0-5.216H206.3a2.608,2.608,0,1,0,0,5.216Z" transform="translate(-203.693 -284.913)"/><path class="d" d="M222.611,317.516v37.265H203.69V317.516a2.609,2.609,0,0,1,2.608-2.608H220A2.609,2.609,0,0,1,222.611,317.516Z" transform="translate(-203.69 -304.477)"/></g><path class="i" d="M222.611,317.516v10.433H203.69V317.516a2.609,2.609,0,0,1,2.608-2.608H220A2.609,2.609,0,0,1,222.611,317.516Z" transform="translate(-132.856 -156.525)"/><g transform="translate(95.956 147.952)"><path class="d" d="M278.539,290.129h13.7a2.608,2.608,0,0,0,0-5.216h-13.7a2.608,2.608,0,1,0,0,5.216Z" transform="translate(-275.931 -284.913)"/><path class="d" d="M294.851,317.516v37.265H275.93V317.516a2.609,2.609,0,0,1,2.608-2.608h13.705A2.609,2.609,0,0,1,294.851,317.516Z" transform="translate(-275.93 -304.477)"/></g><path class="i" d="M294.849,317.516v10.433H275.928V317.516a2.609,2.609,0,0,1,2.608-2.608h13.705A2.609,2.609,0,0,1,294.849,317.516Z" transform="translate(-179.973 -156.525)"/><g transform="translate(121.075 147.952)"><path class="d" d="M350.776,290.129h13.7a2.608,2.608,0,0,0,0-5.216h-13.7a2.608,2.608,0,0,0,0,5.216Z" transform="translate(-348.165 -284.913)"/><path class="d" d="M367.081,317.516v37.265H348.16V317.516a2.609,2.609,0,0,1,2.608-2.608h13.705A2.609,2.609,0,0,1,367.081,317.516Z" transform="translate(-348.16 -304.477)"/></g><path class="i" d="M367.085,317.516v10.433H348.164V317.516a2.609,2.609,0,0,1,2.608-2.608h13.705A2.609,2.609,0,0,1,367.085,317.516Z" transform="translate(-227.088 -156.525)"/><g transform="translate(146.196 147.952)"><path class="d" d="M423.013,290.129h13.7a2.608,2.608,0,0,0,0-5.216h-13.7a2.608,2.608,0,1,0,0,5.216Z" transform="translate(-420.403 -284.913)"/><path class="d" d="M439.321,317.516v37.265H420.4V317.516a2.609,2.609,0,0,1,2.608-2.608h13.705A2.609,2.609,0,0,1,439.321,317.516Z" transform="translate(-420.4 -304.477)"/></g><path class="i" d="M439.322,317.516v10.433H420.4V317.516a2.609,2.609,0,0,1,2.608-2.608h13.705A2.609,2.609,0,0,1,439.322,317.516Z" transform="translate(-274.204 -156.525)"/><g transform="translate(70.834 188.693)"><path class="e" d="M203.69,402.068h18.921v9.563H203.69Z" transform="translate(-203.69 -402.068)"/><path class="e" d="M275.93,402.068h18.921v9.563H275.93Z" transform="translate(-250.808 -402.068)"/><path class="e" d="M348.16,402.068h18.921v9.563H348.16Z" transform="translate(-297.92 -402.068)"/><path class="e" d="M420.4,402.068h18.921v9.563H420.4Z" transform="translate(-345.038 -402.068)"/></g><path class="f" d="M15,148.738H72.9V246.4H15Z" transform="translate(-9.784 -48.142)"/><path class="g" d="M15,402.068H72.9v9.563H15Z" transform="translate(-9.784 -213.375)"/><path class="i" d="M15,148.738H72.9V158.3H15Z" transform="translate(-9.784 -48.142)"/><g transform="translate(15.521 118.991)"><path class="d" d="M80.516,368.056v19.69H75.3v-19.69a2.608,2.608,0,0,1,5.216,0Z" transform="translate(-64.635 -308.481)"/><path class="d" d="M111.186,368.056v19.69H105.97v-19.69a2.608,2.608,0,0,1,5.216,0Z" transform="translate(-84.64 -308.481)"/><path class="d" d="M47.594,201.634a2.608,2.608,0,0,0-2.608,2.608v7.5a2.608,2.608,0,1,0,5.216,0v-7.5A2.608,2.608,0,0,0,47.594,201.634Z" transform="translate(-44.863 -201.634)"/><path class="d" d="M78.261,201.634a2.608,2.608,0,0,0-2.608,2.608v7.5a2.608,2.608,0,1,0,5.216,0v-7.5A2.608,2.608,0,0,0,78.261,201.634Z" transform="translate(-64.866 -201.634)"/><path class="d" d="M108.928,201.634a2.608,2.608,0,0,0-2.608,2.608v7.5a2.608,2.608,0,1,0,5.216,0v-7.5A2.608,2.608,0,0,0,108.928,201.634Z" transform="translate(-84.868 -201.634)"/><path class="d" d="M139.6,201.634a2.608,2.608,0,0,0-2.608,2.608v7.5a2.608,2.608,0,1,0,5.216,0v-7.5A2.608,2.608,0,0,0,139.6,201.634Z" transform="translate(-104.87 -201.634)"/><path class="d" d="M47.359,268.878a2.608,2.608,0,0,0,2.608-2.608v-7.5a2.608,2.608,0,0,0-5.216,0v7.5A2.608,2.608,0,0,0,47.359,268.878Z" transform="translate(-44.71 -237.201)"/><path class="d" d="M78.025,268.878a2.608,2.608,0,0,0,2.608-2.608v-7.5a2.608,2.608,0,0,0-5.216,0v7.5A2.608,2.608,0,0,0,78.025,268.878Z" transform="translate(-64.712 -237.201)"/><path class="d" d="M108.692,268.878a2.608,2.608,0,0,0,2.608-2.608v-7.5a2.608,2.608,0,0,0-5.216,0v7.5A2.608,2.608,0,0,0,108.692,268.878Z" transform="translate(-84.714 -237.201)"/><path class="d" d="M139.359,268.878a2.608,2.608,0,0,0,2.608-2.608v-7.5a2.608,2.608,0,0,0-5.216,0v7.5A2.608,2.608,0,0,0,139.359,268.878Z" transform="translate(-104.716 -237.201)"/><path class="d" d="M47.477,310.922a2.608,2.608,0,0,0-2.608,2.608v7.5a2.608,2.608,0,1,0,5.216,0v-7.5A2.608,2.608,0,0,0,47.477,310.922Z" transform="translate(-44.787 -272.917)"/><path class="d" d="M78.144,310.922a2.608,2.608,0,0,0-2.608,2.608v7.5a2.608,2.608,0,1,0,5.216,0v-7.5A2.608,2.608,0,0,0,78.144,310.922Z" transform="translate(-64.789 -272.917)"/><path class="d" d="M108.81,310.922a2.608,2.608,0,0,0-2.608,2.608v7.5a2.608,2.608,0,1,0,5.216,0v-7.5A2.608,2.608,0,0,0,108.81,310.922Z" transform="translate(-84.791 -272.917)"/><path class="d" d="M139.477,310.922a2.608,2.608,0,0,0-2.608,2.608v7.5a2.608,2.608,0,1,0,5.216,0v-7.5A2.608,2.608,0,0,0,139.477,310.922Z" transform="translate(-104.793 -272.917)"/><path class="d" d="M47.241,365.451a2.608,2.608,0,0,0-2.608,2.608v7.5a2.608,2.608,0,0,0,5.216,0v-7.5A2.608,2.608,0,0,0,47.241,365.451Z" transform="translate(-44.633 -308.483)"/><path class="d" d="M139.241,365.451a2.608,2.608,0,0,0-2.608,2.608v7.5a2.608,2.608,0,0,0,5.216,0v-7.5A2.608,2.608,0,0,0,139.241,365.451Z" transform="translate(-104.639 -308.483)"/></g><path class="e" d="M75.3,402.068h5.216v9.563H75.3Z" transform="translate(-49.114 -213.375)"/><path class="e" d="M105.97,402.068h5.216v9.563H105.97Z" transform="translate(-69.118 -213.375)"/><path class="h" d="M175.443,422.071H2.608a2.608,2.608,0,0,0,0,5.216H175.443a2.608,2.608,0,0,0,0-5.216Z" transform="translate(0 -226.421)"/><path class="h" d="M65.726,141.242H2.608a2.608,2.608,0,0,0,0,5.216H65.726a2.608,2.608,0,1,0,0-5.216Z" transform="translate(0 -43.252)"/></g></g></svg>