<svg xmlns="http://www.w3.org/2000/svg" xmlns:xlink="http://www.w3.org/1999/xlink" width="207" height="207" viewBox="0 0 207 207"><defs><style>.a{fill:url(#a);}.b{fill:#61d7a8;}.c{fill:#00ab94;}.d{fill:#fff5f5;}.e{fill:#efe2dd;}.f{fill:#fdbf00;}.g{fill:#ff9100;}.h{fill:#596c76;}.i{fill:#465a61;}.j{filter:url(#b);}</style><linearGradient id="a" x1="0.5" x2="0.5" y2="1" gradientUnits="objectBoundingBox"><stop offset="0" stop-color="#ffeb98"/><stop offset="1" stop-color="#ffc500"/></linearGradient><filter id="b" x="0" y="0" width="207" height="207" filterUnits="userSpaceOnUse"><feOffset dy="3" input="SourceAlpha"/><feGaussianBlur stdDeviation="3" result="c"/><feFlood flood-opacity="0.161"/><feComposite operator="in" in2="c"/><feComposite in="SourceGraphic"/></filter></defs><g transform="translate(9 6)"><g transform="translate(-325 -245)"><g class="j" transform="matrix(1, 0, 0, 1, 316, 239)"><rect class="a" width="189" height="189" rx="25" transform="translate(9 6)"/></g></g><g transform="translate(16 15.766)"><path class="b" d="M83.04,283.52A41.52,41.52,0,1,1,41.52,242,41.465,41.465,0,0,1,83.04,283.52Zm0,0" transform="translate(0 -167.572)"/><path class="c" d="M176.52,283.52A41.465,41.465,0,0,1,135,325.04V242A41.465,41.465,0,0,1,176.52,283.52Zm0,0" transform="translate(-93.48 -167.572)"/><path class="d" d="M113.639,342.959,96.569,360.121l-4.613,4.613L79.5,352.185l6.459-6.459,6,5.9,4.613-4.613L107.18,336.5Zm0,0" transform="translate(-55.049 -233.008)"/><path class="e" d="M152.069,342.959,135,360.121v-13.1L145.611,336.5Zm0,0" transform="translate(-93.48 -233.008)"/><path class="f" d="M219.39,176.182l-13.01,13.01c-4.059,4.152-9.688,6.089-15.869,6.089-10.427,0-22.79-5.536-33.032-15.869-16.516-16.424-20.76-37.922-9.781-48.9l13.01-13.01Zm0,0" transform="translate(-98.059 -81.363)"/><path class="g" d="M255.11,242.24,242.1,255.25c-4.059,4.152-9.688,6.089-15.869,6.089-10.427,0-22.79-5.536-33.032-15.869l32.57-32.571Zm0,0" transform="translate(-133.78 -147.421)"/><path class="h" d="M248.769,162.54c-3.968,3.967-9.412,6-15.778,6a32.72,32.72,0,0,1-7.658-.923c-8.858-2.03-17.9-7.289-25.466-14.855s-12.825-16.608-14.855-25.465c-2.307-9.6-.461-17.992,5.075-23.437,8.673-8.765,24.543-7.935,39.4,1.938l17.346,17.347C256.7,138,257.534,153.866,248.769,162.54Zm0,0" transform="translate(-127.438 -67.721)"/><path class="i" d="M284.4,200.071c-3.968,3.967-9.412,6-15.778,6a32.72,32.72,0,0,1-7.658-.923c-8.858-2.03-17.9-7.289-25.466-14.855L273.791,152l8.673,8.673C292.336,175.528,293.167,191.4,284.4,200.071Zm0,0" transform="translate(-163.071 -105.252)"/><path class="f" d="M346.672,29.124,295.4,70.645a13.233,13.233,0,0,1-13.1-13.1l41.49-51.3a16.3,16.3,0,1,1,22.882,22.883Zm0,0" transform="translate(-195.478 0)"/><path class="g" d="M355.4,39.852,304.129,81.373A12.758,12.758,0,0,1,294.9,77.5l61.972-62.006A16.261,16.261,0,0,1,355.4,39.852Zm0,0" transform="translate(-204.204 -10.728)"/></g></g></svg>