<svg xmlns="http://www.w3.org/2000/svg" width="24.481" height="24.034" viewBox="0 0 24.481 24.034"><defs><style>.a{fill:#ed394d;}</style></defs><path class="a" d="M24.025,3.269h-8.2V4.787h2.418v2.4H15.824v.765h2.418v2.4H15.824v.786h2.418v2.274H15.824v.911h2.418v2.279H15.824v.911h2.418V19.81H15.824v1.672h8.2c.13-.039.238-.192.324-.457a2.237,2.237,0,0,0,.132-.649V3.547c0-.131-.045-.209-.132-.237A1.122,1.122,0,0,0,24.025,3.269ZM22.961,19.808H19.027v-2.29h3.934v2.29Zm0-3.2H19.027v-2.28h3.934Zm0-3.191H19.027V11.153h3.934v2.263Zm0-3.06H19.027v-2.4h3.934v2.4h0Zm0-3.182H19.027V4.788h3.934V7.175ZM0,2.891V21.865l14.444,2.5V.329L0,2.9ZM8.561,17.244q-.083-.223-.773-1.9c-.458-1.118-.734-1.769-.815-1.954H6.948L5.4,17.077l-2.071-.14,2.456-4.59L3.534,7.757l2.112-.111,1.4,3.592h.028L8.645,7.482l2.182-.138-2.6,4.968,2.678,5.068-2.345-.138Z" transform="translate(0 -0.329)"/></svg>