<svg xmlns="http://www.w3.org/2000/svg" xmlns:xlink="http://www.w3.org/1999/xlink" width="19.745" height="13.163" viewBox="0 0 19.745 13.163"><defs><style>.a{fill:url(#a);}</style><linearGradient id="a" x1="0.705" y1="0.316" x2="0.5" y2="1.303" gradientUnits="objectBoundingBox"><stop offset="0" stop-color="#d9d9d9"/><stop offset="1" stop-color="#aca9a9"/></linearGradient></defs><path class="a" d="M19.631,12.319l-2.483,4.256a2.194,2.194,0,0,1-1.895,1.088H1.543a.823.823,0,0,1-.711-1.237L3.315,12.17a2.194,2.194,0,0,1,1.9-1.088h13.71a.823.823,0,0,1,.711,1.237ZM5.21,9.985H16.454V8.339a1.645,1.645,0,0,0-1.645-1.645H9.324L7.13,4.5H1.645A1.645,1.645,0,0,0,0,6.145v9.531l2.368-4.059A3.3,3.3,0,0,1,5.21,9.985Z" transform="translate(0 -4.5)"/></svg>