<svg xmlns="http://www.w3.org/2000/svg" width="29.105" height="22.627" viewBox="0 0 29.105 22.627"><defs><style>.a,.b{fill:#ed394d;}.b{stroke:#ed394d;}</style></defs><g transform="translate(-59.499 -321.059)"><path class="a" d="M29,16.333l2,2-9.32,9.333-6.013-6,2-2,4.013,4Z" transform="translate(57.604 313.559)"/><g transform="translate(32.173 321.559)"><g transform="translate(27.828)"><path class="b" d="M46.363,3.494c.006-.017-.006-.033-.006-.05V.555A.538.538,0,0,0,45.836,0H28.368a.534.534,0,0,0-.532.538V3.444c0,.017-.011.033-.006.05s-.006.017,0,.022v.028a.05.05,0,0,0,.006.028.042.042,0,0,1,.006.022.24.24,0,0,1,.006.028c0,.006.006.017.006.022s.006.017.011.028.006.017.011.022.006.017.011.022a.042.042,0,0,1,.011.022c0,.006.011.017.011.022s.011.017.017.022.011.011.011.017a.027.027,0,0,1,.017.006L34.6,11.623v9.449a.537.537,0,0,0,.3.5.553.553,0,0,0,.233.055.542.542,0,0,0,.344-.122L39.4,18.328a.539.539,0,0,0,.194-.433V11.623L46.235,3.8a.017.017,0,0,0,.011-.006l.017-.017c.006-.006.011-.017.017-.022s.011-.017.017-.022a160.235,160.235,0,0,1,.022-.044c.006-.006.006-.017.011-.022s.006-.017.011-.028a.033.033,0,0,0,.006-.022.05.05,0,0,0,.006-.028c0-.011.006-.017.006-.022a.24.24,0,0,0,.006-.028.24.24,0,0,1,.006-.028C46.368,3.51,46.357,3.5,46.363,3.494Zm-7.736,7.564a.578.578,0,0,0-.144.36v6.211L35.71,19.908v-8.49a.578.578,0,0,0-.144-.36l-6-7.065H44.627Zm6.621-8.174h-16.3V1.109h16.3Z" transform="translate(-27.828)"/></g></g></g></svg>