<svg xmlns="http://www.w3.org/2000/svg" width="27.08" height="27.079" viewBox="0 0 27.08 27.079"><defs><style>.a{fill:#ed394d;}.b{fill:#fff;}</style></defs><g transform="translate(0 -0.015)"><g transform="translate(7.674 10.847)"><path class="a" d="M141.9,192.017a5.867,5.867,0,1,0,5.867,5.867A5.867,5.867,0,0,0,141.9,192.017Z" transform="translate(-136.032 -192.017)"/></g><g transform="translate(11.736 13.103)"><path class="b" d="M209.837,235.176a.9.9,0,1,1,.9-.9h.9a1.805,1.805,0,0,0-1.354-1.741v-.515h-.9v.515a1.8,1.8,0,0,0,.451,3.546.9.9,0,1,1-.9.9h-.9a1.805,1.805,0,0,0,1.354,1.741v.515h.9v-.515a1.8,1.8,0,0,0-.451-3.546Z" transform="translate(-208.032 -232.017)"/></g><g transform="translate(0 0.015)"><g transform="translate(0 0)"><path class="a" d="M26.629,9.944a.451.451,0,0,0,.451-.451V7.687c0-.006,0-.01,0-.016a.445.445,0,0,0-.029-.144.027.027,0,0,0,0-.017.451.451,0,0,0-.09-.133.509.509,0,0,0-.042-.033.454.454,0,0,0-.065-.051L13.758.072a.449.449,0,0,0-.436,0L.234,7.292a.454.454,0,0,0-.065.051.509.509,0,0,0-.042.033.451.451,0,0,0-.09.133.027.027,0,0,1,0,.017A.445.445,0,0,0,0,7.671c0,.006,0,.01,0,.016V9.493a.451.451,0,0,0,.451.451H1.807V23.483H.453A.451.451,0,0,0,0,23.934v2.708a.451.451,0,0,0,.451.451H26.629a.451.451,0,0,0,.451-.451V23.934a.451.451,0,0,0-.451-.451H25.275V9.944ZM5.418,23.483V9.944H21.665V23.483ZM.9,9.041v-.9H26.178v.9Z" transform="translate(0 -0.015)"/></g></g></g></svg>