<svg xmlns="http://www.w3.org/2000/svg" xmlns:xlink="http://www.w3.org/1999/xlink" width="207" height="207" viewBox="0 0 207 207"><defs><style>.a{fill:url(#a);}.b{fill:#5cc9fa;}.c{fill:#3da8ef;}.d{fill:#fff;}.e{fill:#3defef;opacity:0.31;mix-blend-mode:multiply;isolation:isolate;}.f{filter:url(#b);}</style><linearGradient id="a" x1="0.5" x2="0.5" y2="1" gradientUnits="objectBoundingBox"><stop offset="0" stop-color="#f2f2f2"/><stop offset="1" stop-color="#d6d6d6"/></linearGradient><filter id="b" x="0" y="0" width="207" height="207" filterUnits="userSpaceOnUse"><feOffset dy="3" input="SourceAlpha"/><feGaussianBlur stdDeviation="3" result="c"/><feFlood flood-opacity="0.161"/><feComposite operator="in" in2="c"/><feComposite in="SourceGraphic"/></filter></defs><g transform="translate(-1227 -598)"><g class="f" transform="matrix(1, 0, 0, 1, 1227, 598)"><rect class="a" width="189" height="189" rx="25" transform="translate(9 6)"/></g><g transform="translate(2 12)"><g transform="translate(1273 631)"><path class="b" d="M56,112H3.351L16.036,95.228A56,56,0,1,1,56,112Z" transform="translate(0)"/><path class="c" d="M256,0V112A56,56,0,0,0,256,0Z" transform="translate(-200)"/><rect class="d" width="63" height="6" rx="3" transform="translate(25 40)"/><rect class="d" width="63" height="6" rx="3" transform="translate(24 53)"/><rect class="d" width="63" height="6" rx="3" transform="translate(25 66)"/></g><path class="e" d="M256,0V112A56,56,0,0,0,256,0Z" transform="translate(1073 631)"/></g></g></svg>