<svg xmlns="http://www.w3.org/2000/svg" width="120.713" height="122.011" viewBox="0 0 120.713 122.011"><defs><style>.a{fill:#adadad;}.b{fill:#898989;}.c{fill:#efefef;}.d{fill:#dedede;}.e{fill:#c1c1c1;}.f{fill:#3b3b3b;}.g{fill:#2f2f2f;}.h{fill:#525252;}.i{fill:#333;}.j{fill:#c5c9f7;}.k{fill:#8c171a;}.l{fill:#6a0a0c;}.m{fill:#fff;}.n{fill:#d5e5e5;}</style></defs><g transform="translate(-2493 -10818)"><g transform="translate(2493 10818)"><path class="a" d="M116.645,41.613V53.226l-7.742,8H7.742L0,53.226V41.613A11.6,11.6,0,0,1,11.613,30h93.419A11.6,11.6,0,0,1,116.645,41.613Z" transform="translate(0 -22.258)"/><path class="b" d="M284.322,41.613V53.226l-7.742,8H226V30h46.71A11.6,11.6,0,0,1,284.322,41.613Z" transform="translate(-167.678 -22.258)"/><path class="c" d="M116.645,120v74.064a11.6,11.6,0,0,1-11.613,11.613H11.613A11.6,11.6,0,0,1,0,194.064V120Z" transform="translate(0 -89.032)"/><path class="d" d="M284.322,120v74.064a11.6,11.6,0,0,1-11.613,11.613H226V120Z" transform="translate(-167.678 -89.032)"/><path class="e" d="M321.355,205.226H305.871A3.869,3.869,0,0,1,302,201.355V185.871A3.869,3.869,0,0,1,305.871,182h15.484a3.869,3.869,0,0,1,3.871,3.871v15.484A3.869,3.869,0,0,1,321.355,205.226Z" transform="translate(-224.065 -135.032)"/><path class="f" d="M313.613,0A11.6,11.6,0,0,0,302,11.613v7.742a3.833,3.833,0,0,0,3.871,3.871h15.484a3.833,3.833,0,0,0,3.871-3.871V11.613A11.6,11.6,0,0,0,313.613,0Z" transform="translate(-224.065)"/><g transform="translate(15.484 46.968)"><path class="d" d="M79.355,205.226H63.871A3.869,3.869,0,0,1,60,201.355V185.871A3.869,3.869,0,0,1,63.871,182H79.355a3.869,3.869,0,0,1,3.871,3.871v15.484A3.869,3.869,0,0,1,79.355,205.226Z" transform="translate(-60 -182)"/><path class="d" d="M79.355,325.226H63.871A3.869,3.869,0,0,1,60,321.355V305.871A3.869,3.869,0,0,1,63.871,302H79.355a3.869,3.869,0,0,1,3.871,3.871v15.484A3.869,3.869,0,0,1,79.355,325.226Z" transform="translate(-60 -271.032)"/></g><path class="d" d="M199.871,182h-16A3.833,3.833,0,0,0,180,185.871v15.484a3.833,3.833,0,0,0,3.871,3.871h16a3.833,3.833,0,0,0,3.871-3.871V185.871A3.833,3.833,0,0,0,199.871,182Z" transform="translate(-133.548 -135.032)"/><path class="e" d="M237.871,185.871v15.484A3.833,3.833,0,0,1,234,205.226h-8V182h8A3.833,3.833,0,0,1,237.871,185.871Z" transform="translate(-167.678 -135.032)"/><path class="d" d="M199.871,302h-16A3.833,3.833,0,0,0,180,305.871v15.484a3.833,3.833,0,0,0,3.871,3.871h16a3.833,3.833,0,0,0,3.871-3.871V305.871A3.833,3.833,0,0,0,199.871,302Z" transform="translate(-133.548 -224.065)"/><path class="e" d="M237.871,305.871v15.484A3.833,3.833,0,0,1,234,325.226h-8V302h8A3.833,3.833,0,0,1,237.871,305.871Z" transform="translate(-167.678 -224.065)"/><path class="g" d="M358.613,11.613v7.742a3.833,3.833,0,0,1-3.871,3.871H347V0A11.6,11.6,0,0,1,358.613,11.613Z" transform="translate(-257.452)"/><path class="h" d="M71.613,0A11.6,11.6,0,0,0,60,11.613v7.742a3.833,3.833,0,0,0,3.871,3.871H79.355a3.833,3.833,0,0,0,3.871-3.871V11.613A11.6,11.6,0,0,0,71.613,0Z" transform="translate(-44.516)"/><path class="i" d="M116.613,11.613v7.742a3.833,3.833,0,0,1-3.871,3.871H105V0A11.6,11.6,0,0,1,116.613,11.613Z" transform="translate(-77.903)"/><path class="j" d="M410.871,335.871v15.484a3.63,3.63,0,0,1-1.162,2.709L407,356.774V332A3.833,3.833,0,0,1,410.871,335.871Z" transform="translate(-301.968 -246.323)"/></g><path class="k" d="M45.686,264.843A22.843,22.843,0,1,1,22.843,242,22.813,22.813,0,0,1,45.686,264.843Zm0,0" transform="translate(2568.027 10652.325)"/><path class="l" d="M157.843,264.843A22.813,22.813,0,0,1,135,287.686V242A22.813,22.813,0,0,1,157.843,264.843Zm0,0" transform="translate(2455.87 10652.325)"/><path class="m" d="M98.282,340.053,88.891,349.5l-2.538,2.538-6.853-6.9,3.553-3.553,3.3,3.249,2.538-2.538,5.838-5.787Zm0,0" transform="translate(2501.979 10573.815)"/><path class="n" d="M144.391,340.053,135,349.5v-7.208l5.838-5.787Zm0,0" transform="translate(2455.87 10573.815)"/></g></svg>