<svg xmlns="http://www.w3.org/2000/svg" width="120" height="120" viewBox="0 0 120 120"><defs><style>.a{fill:#c1c1c1;}.b{fill:#a2a2a2;}.c{fill:#8c171a;}.d{fill:#6a0a0c;}.e{fill:#fff;}.f{fill:#f4f4f4;}.g{fill:#dedede;}.h{fill:#efefef;}.i{fill:#d9d8d8;}</style></defs><path class="a" d="M377,153.918l10.425,5.138L402.91,146.5l4.788-9.7a10.552,10.552,0,0,0-2.659-3.581l-25.725-22.508H377Z" transform="translate(-288.641 -84.76)"/><g transform="translate(0.942 0)"><path class="b" d="M34.717,110.706H32.4L6.674,133.218A10.535,10.535,0,0,0,4.018,136.8l5.844,10.29,19.081,10.642,5.774-3.811Z" transform="translate(-4.018 -84.759)"/><path class="b" d="M210.263,20.367H172.388a3.555,3.555,0,0,1,.351-4.992L189,.844a3.613,3.613,0,0,1,4.641,0l16.265,14.531A3.555,3.555,0,0,1,210.263,20.367Z" transform="translate(-132.267 0)"/></g><path class="a" d="M274.937,20.367H256V0a3.5,3.5,0,0,1,2.321.844l16.265,14.531A3.555,3.555,0,0,1,274.937,20.367Z" transform="translate(-196 0)"/><path class="c" d="M183.75,72.547v65.039a3.481,3.481,0,0,1-3.516,3.516H123.516A3.481,3.481,0,0,1,120,137.586V72.547A10.532,10.532,0,0,1,130.547,62H173.2A10.532,10.532,0,0,1,183.75,72.547Z" transform="translate(-91.875 -47.469)"/><path class="d" d="M287.875,72.547v65.039a3.481,3.481,0,0,1-3.516,3.516H256V62h21.328A10.532,10.532,0,0,1,287.875,72.547Z" transform="translate(-196 -47.469)"/><g transform="translate(3.413 7.891)"><path class="e" d="M225.33,143.5a7.127,7.127,0,0,1-4.394,6.592,3.241,3.241,0,0,1-.382.143v2.818a2.388,2.388,0,1,1-4.777,0v-2.818a9.528,9.528,0,0,1-3.535-2.149,2.4,2.4,0,1,1,3.344-3.439,3.939,3.939,0,0,0,2.579,1.242,2.8,2.8,0,0,0,.908-.191,2.381,2.381,0,0,0-.908-4.586,7.163,7.163,0,0,1-2.436-13.9h.048v-2.818a2.388,2.388,0,1,1,4.777,0v2.771a9.6,9.6,0,0,1,4.347,3.153,2.373,2.373,0,1,1-3.63,3.057,4.315,4.315,0,0,0-3.1-1.815,2.226,2.226,0,0,0-.812.143,2.388,2.388,0,0,0,.812,4.633A7.155,7.155,0,0,1,225.33,143.5Z" transform="translate(-161.547 -93.406)"/><g transform="translate(56.618 28.594)"><path class="f" d="M263.165,219.165a7.127,7.127,0,0,1-4.394,6.592,3.243,3.243,0,0,1-.382.143v2.818A2.365,2.365,0,0,1,256,231.107v-9.554a2.8,2.8,0,0,0,.908-.191,2.381,2.381,0,0,0-.908-4.586V212A7.155,7.155,0,0,1,263.165,219.165Z" transform="translate(-256 -197.67)"/><path class="f" d="M259.105,133.369A4.316,4.316,0,0,0,256,131.554V122a2.365,2.365,0,0,1,2.388,2.388v2.771a9.6,9.6,0,0,1,4.347,3.153,2.373,2.373,0,1,1-3.63,3.057Z" transform="translate(-256 -122)"/></g></g><path class="g" d="M315.462,222.021,256.527,254.9l7.586,11.305,33.826,15.856,15.447,4.742a10.5,10.5,0,0,0,3.018-7.364V226.377A10.545,10.545,0,0,0,315.462,222.021Z" transform="translate(-196.404 -169.985)"/><path class="h" d="M.941,222.023A10.548,10.548,0,0,0,0,226.379v53.061a10.5,10.5,0,0,0,2.993,7.333l16.132-5.121,34.459-16.181L60,254.83Z" transform="translate(0 -169.986)"/><path class="g" d="M126.853,393.992a10.429,10.429,0,0,1-7.523,3.164H20.423a10.228,10.228,0,0,1-7.523-3.235L69.877,362Z" transform="translate(-9.877 -277.156)"/><path class="i" d="M312.977,393.992a10.429,10.429,0,0,1-7.523,3.164H256V362Z" transform="translate(-196 -277.156)"/></svg>