<svg xmlns="http://www.w3.org/2000/svg" width="124.387" height="144.389" viewBox="0 0 124.387 144.389"><defs><style>.a{fill:#fff;}.b{fill:#f5f5f5;}.c{fill:#525252;}.d{fill:#333;}.e{fill:#8c171a;}.f{fill:#6a0a0c;mix-blend-mode:multiply;isolation:isolate;}.g{fill:#adadad;}.h{fill:#cecece;}.i{fill:#ecf0f1;}</style></defs><g transform="translate(-358.614 -268.772)"><g transform="translate(294.076 254.063)"><path class="a" d="M278.886,65.728V191.713a5.23,5.23,0,0,1-5.228,5.228L170.5,196.766V60.5H273.658A5.23,5.23,0,0,1,278.886,65.728Z" transform="translate(-105.962 -45.791)"/><path class="b" d="M334.758,65.728V191.713a5.23,5.23,0,0,1-5.228,5.228c.028,0-41.769-.07-73.27-.125V60.5h73.27A5.23,5.23,0,0,1,334.758,65.728Z" transform="translate(-161.834 -45.791)"/><g transform="translate(0 -0.312)"><path class="c" d="M217.728,156h72.838c2.887,0,5.228-1.119,5.228-2.5s-2.341-2.5-5.228-2.5H217.728c-2.887,0-5.228,1.119-5.228,2.5S214.841,156,217.728,156Z" transform="translate(-133.324 -86.751)"/><path class="d" d="M324.3,153.5c0,1.38-2.342,2.5-5.228,2.5H256.26v-5h62.815C321.961,151,324.3,152.12,324.3,153.5Z" transform="translate(-161.833 -86.751)"/></g><g transform="translate(0 2.777)"><path class="c" d="M290.566,211H217.728c-2.887,0-5.228,1.119-5.228,2.5s2.341,2.5,5.228,2.5h72.838c2.887,0,5.228-1.119,5.228-2.5S293.453,211,290.566,211Z" transform="translate(-133.324 -130.84)"/><path class="d" d="M324.3,213.5c0,1.38-2.342,2.5-5.228,2.5H256.26v-5h62.815C321.961,211,324.3,212.12,324.3,213.5Z" transform="translate(-161.833 -130.84)"/></g><g transform="translate(0 1.868)"><path class="c" d="M290.566,271H217.728c-2.887,0-5.228,1.119-5.228,2.5s2.341,2.5,5.228,2.5h72.838c2.887,0,5.228-1.119,5.228-2.5S293.453,271,290.566,271Z" transform="translate(-133.324 -169.93)"/><path class="d" d="M324.3,273.5c0,1.38-2.342,2.5-5.228,2.5H256.26v-5h62.815C321.961,271,324.3,272.12,324.3,273.5Z" transform="translate(-161.833 -169.93)"/></g><g transform="translate(0 0.306)"><path class="c" d="M248.745,330H217.728c-2.887,0-5.228,1.119-5.228,2.5s2.341,2.5,5.228,2.5h31.017c2.887,0,5.228-1.119,5.228-2.5S251.632,330,248.745,330Z" transform="translate(-133.324 -208.368)"/><path class="d" d="M282.482,332.5c0,1.38-2.342,2.5-5.228,2.5H256.26v-5h20.994C280.14,330,282.482,331.12,282.482,332.5Z" transform="translate(-161.833 -208.368)"/></g></g><g transform="translate(333 263.16)"><path class="e" d="M20.767,0A20.767,20.767,0,1,1,0,20.767,20.767,20.767,0,0,1,20.767,0Z" transform="translate(108.465 108.465)"/><path class="a" d="M17.1,0A17.1,17.1,0,1,1,0,17.1,17.1,17.1,0,0,1,17.1,0Z" transform="translate(112.13 112.13)"/><circle class="e" cx="15.365" cy="15.365" r="15.365" transform="translate(113.867 113.867)"/><path class="f" d="M.654,41.535c-.216,0-.436,0-.653-.01V.011C.231,0,.451,0,.654,0A20.638,20.638,0,0,1,8.738,1.633a20.7,20.7,0,0,1,6.6,4.451,20.7,20.7,0,0,1,4.451,6.6,20.835,20.835,0,0,1,0,16.167,20.7,20.7,0,0,1-4.451,6.6,20.7,20.7,0,0,1-6.6,4.451A20.638,20.638,0,0,1,.654,41.535Z" transform="translate(128.579 108.466)"/><path class="a" d="M326.476,293.8v-3.738c1.068.225,1.8.816,1.8,1.362a.9.9,0,0,0,1.8,0c0-1.6-1.52-2.9-3.594-3.193v-.962a.9.9,0,1,0-1.8,0v.962c-2.074.294-3.594,1.591-3.594,3.193,0,2.265,1.973,3.15,3.594,3.688v3.738c-1.068-.225-1.8-.816-1.8-1.361a.9.9,0,1,0-1.8,0c0,1.6,1.52,2.9,3.594,3.193v.962a.9.9,0,1,0,1.8,0v-.962c2.074-.294,3.594-1.591,3.594-3.193C330.07,295.227,328.1,294.342,326.476,293.8Zm-3.594-2.377c0-.546.729-1.137,1.8-1.361v3.13C323.341,292.672,322.882,292.193,322.882,291.427Zm3.594,7.427v-3.13c1.339.524,1.8,1,1.8,1.768C328.273,298.038,327.544,298.629,326.476,298.854Z" transform="translate(-196.345 -165.227)"/></g><g transform="translate(377.785 281.117)"><path class="c" d="M102.875,0,95.6,11.607l7.273,11.607a11.607,11.607,0,1,0,0-23.215Z" transform="translate(-91.267 0)"/><path class="g" d="M0,11.607A11.607,11.607,0,0,0,11.607,23.215V0A11.607,11.607,0,0,0,0,11.607Z"/><path class="h" d="M193.195,60l-2.983,4.761,2.983,4.761a4.761,4.761,0,1,0,0-9.522Z" transform="translate(-181.587 -57.279)"/><path class="i" d="M151,64.761a4.761,4.761,0,0,0,4.761,4.761V60A4.761,4.761,0,0,0,151,64.761Z" transform="translate(-144.153 -57.279)"/><path class="h" d="M206.367,301.607A4.765,4.765,0,0,0,202.8,300H198.72L196,303.446l2.72,3.446a8.911,8.911,0,0,0,7.729-4.5l.241-.423Z" transform="translate(-187.113 -286.398)"/><path class="i" d="M84.129,300a4.765,4.765,0,0,0-3.566,1.607l-.322.364.241.423a8.911,8.911,0,0,0,7.729,4.5V300Z" transform="translate(-76.603 -286.398)"/></g></g></svg>