<svg xmlns="http://www.w3.org/2000/svg" width="124.864" height="129.596" viewBox="0 0 124.864 129.596"><defs><style>.a{fill:#525252;}.b{fill:#adadad;}.c{fill:#cecece;}.d{fill:#ecf0f1;}.e{fill:#c1c1c1;}.f{fill:#919191;}.g{fill:#e0e0e0;}.h{fill:#6a0a0c;}.i{fill:#8c171a;}</style></defs><g transform="translate(-730.725 -255.668)"><g transform="translate(730.725 255.668)"><path class="a" d="M130.443,0,95.6,55.607l34.841,55.607A55.607,55.607,0,1,0,130.443,0Z" transform="translate(-74.836 0)"/><path class="b" d="M0,55.607a55.607,55.607,0,0,0,55.607,55.607V0A55.607,55.607,0,0,0,0,55.607Z"/><path class="c" d="M204.5,60l-14.29,22.808,14.29,22.808A22.808,22.808,0,1,0,204.5,60Z" transform="translate(-148.895 -46.967)"/><path class="d" d="M151,82.808a22.808,22.808,0,0,0,22.808,22.808V60A22.808,22.808,0,0,0,151,82.808Z" transform="translate(-118.2 -46.967)"/><path class="c" d="M245.666,307.7a22.828,22.828,0,0,0-17.084-7.7H209.033L196,316.508l13.033,16.508a42.69,42.69,0,0,0,37.025-21.547l1.153-2.026Z" transform="translate(-153.426 -234.835)"/><path class="d" d="M98.869,300a22.828,22.828,0,0,0-17.084,7.7l-1.544,1.745,1.153,2.025a42.69,42.69,0,0,0,37.025,21.547V300Z" transform="translate(-62.811 -234.835)"/></g><g transform="translate(776.1 305.668)"><g transform="translate(0.738 70.291)"><path class="e" d="M172.824,250.494l-8.924,9.43,14.251-3.961Z" transform="translate(-163.9 -250.618)"/></g><path class="f" d="M0,0H69.652V7.561H0Z" transform="translate(9.616 70.293) rotate(-45)"/><g transform="translate(0 64.073)"><path class="g" d="M164.678,235.782l8.845-9.293-6.025-6.06Z" transform="translate(-163.9 -220.292)"/></g><g transform="translate(3.569 15)"><path class="e" d="M0,0H69.652V8.553H0Z" transform="translate(0 49.244) rotate(-45)"/></g><path class="h" d="M400.035,12.447c-.052-.052.049.054,0,0L388.44,24.041l5.627,5.627,6.032-6.032A7.954,7.954,0,0,0,400.035,12.447Z" transform="translate(-322.879 -10.179)"/><g transform="translate(59.424)"><path class="i" d="M363.854,14.471l12.1-12.1a8.141,8.141,0,0,0-11.546.066l-6.3,6.3Z" transform="translate(-358.114 0)"/></g><path class="e" d="M0,0H11.676V7.635H0Z" transform="translate(58.305 21.61) rotate(-45)"/><path class="g" d="M0,0H11.676V8.515H0Z" transform="translate(52.286 15.588) rotate(-45)"/></g></g></svg>