<svg xmlns="http://www.w3.org/2000/svg" width="96.514" height="115.314" viewBox="0 0 96.514 115.314"><defs><style>.a{fill:#fff;}.b{fill:#f2efef;}.c{fill:#adadad;}.d{fill:#525252;}.e{fill:#ecf0f1;}.f{fill:#cecece;}.g{fill:#8c171a;}.h{fill:#6a0a0c;}</style></defs><g transform="translate(-1470.259 -287)"><g transform="translate(1409.259 287)"><path class="a" d="M127.8,0H74.606C67.1,0,61,5.557,61,12.387v90.54c0,6.83,6.1,12.387,13.606,12.387h69.269c7.5,0,13.606-5.557,13.606-12.387v-75.9Z"/><path class="b" d="M256,0V115.314h34.635c7.5,0,13.607-5.557,13.607-12.387v-75.9L274.554,0Z" transform="translate(-146.759)"/><g transform="translate(80.791 28.728)"><path class="c" d="M169.45,233.743a3.709,3.709,0,0,1-1.066-.157A38.425,38.425,0,0,1,141,196.782V175.606a3.711,3.711,0,0,1,3.711-3.711,12.233,12.233,0,0,0,11-6.8l.522-1.044A3.711,3.711,0,0,1,159.554,162h19.791a3.711,3.711,0,0,1,3.319,2.051l.522,1.045a12.233,12.233,0,0,0,11,6.8,3.711,3.711,0,0,1,3.711,3.711v21.176a38.425,38.425,0,0,1-27.384,36.8A3.709,3.709,0,0,1,169.45,233.743Z" transform="translate(-141 -162)"/><path class="d" d="M280.739,171.9a12.234,12.234,0,0,1-11-6.8l-.522-1.045A3.711,3.711,0,0,0,265.9,162H256v71.743a3.709,3.709,0,0,0,1.066-.157,38.425,38.425,0,0,0,27.384-36.8V175.606A3.711,3.711,0,0,0,280.739,171.9Z" transform="translate(-227.55 -162)"/><path class="e" d="M171,202.274v19.161a33.136,33.136,0,0,0,22.622,31.58,33.136,33.136,0,0,0,22.622-31.58V202.274A21.063,21.063,0,0,1,201.839,192H185.4A21.063,21.063,0,0,1,171,202.274Z" transform="translate(-165.172 -186.728)"/><path class="f" d="M264.217,192H256v61.014a33.136,33.136,0,0,0,22.622-31.58V202.274A21.063,21.063,0,0,1,264.217,192Z" transform="translate(-227.55 -186.728)"/><path class="g" d="M209.282,285.132a3.7,3.7,0,0,1-2.624-1.087l-7-7a3.711,3.711,0,0,1,5.248-5.248l4.373,4.373,11.371-11.37a3.711,3.711,0,0,1,5.248,5.248l-13.994,13.994A3.7,3.7,0,0,1,209.282,285.132Z" transform="translate(-184.331 -238.552)"/><path class="h" d="M263.872,264.8,256,272.674v10.5l13.12-13.12a3.711,3.711,0,1,0-5.248-5.248Z" transform="translate(-227.55 -238.552)"/></g><path class="f" d="M331,0V24.17a3.453,3.453,0,0,0,3.453,3.453l26.266-.568Z" transform="translate(-203.204)"/></g></g></svg>