<svg xmlns="http://www.w3.org/2000/svg" xmlns:xlink="http://www.w3.org/1999/xlink" width="207" height="207" viewBox="0 0 207 207"><defs><style>.a{fill:url(#a);}.b{fill:#28abfa;}.c{fill:#14cfff;}.d{fill:#cee8ff;}.e{fill:#edf5ff;}.f{fill:#ffe8cb;}.g{fill:#f66350;}.h{fill:#ffb448;}.i{fill:#d6c4b1;}.j{fill:#a34740;}.k{fill:#e18c25;}.l{fill:#5e5e5e;}.m{filter:url(#b);}</style><linearGradient id="a" x1="0.5" x2="0.5" y2="1" gradientUnits="objectBoundingBox"><stop offset="0" stop-color="#ffca74"/><stop offset="1" stop-color="#ff9a74"/></linearGradient><filter id="b" x="0" y="0" width="207" height="207" filterUnits="userSpaceOnUse"><feOffset dy="3" input="SourceAlpha"/><feGaussianBlur stdDeviation="3" result="c"/><feFlood flood-opacity="0.161"/><feComposite operator="in" in2="c"/><feComposite in="SourceGraphic"/></filter></defs><g transform="translate(-677 -239)"><g class="m" transform="matrix(1, 0, 0, 1, 677, 239)"><rect class="a" width="189" height="189" rx="25" transform="translate(9 6)"/></g><g transform="translate(-8.725 -0.668)"><g transform="translate(730.725 277.668)"><path class="b" d="M130.443,0,95.6,55.607l34.841,55.607A55.607,55.607,0,1,0,130.443,0Z" transform="translate(-74.836 0)"/><path class="c" d="M0,55.607a55.607,55.607,0,0,0,55.607,55.607V0A55.607,55.607,0,0,0,0,55.607Z"/><path class="d" d="M204.5,60l-14.29,22.808,14.29,22.808A22.808,22.808,0,1,0,204.5,60Z" transform="translate(-148.895 -46.967)"/><path class="e" d="M151,82.808a22.808,22.808,0,0,0,22.808,22.808V60A22.808,22.808,0,0,0,151,82.808Z" transform="translate(-118.2 -46.967)"/><path class="d" d="M245.666,307.7a22.828,22.828,0,0,0-17.084-7.7H209.033L196,316.508l13.033,16.508a42.69,42.69,0,0,0,37.025-21.547l1.153-2.026Z" transform="translate(-153.426 -234.835)"/><path class="e" d="M98.869,300a22.828,22.828,0,0,0-17.084,7.7l-1.544,1.745,1.153,2.025a42.69,42.69,0,0,0,37.025,21.547V300Z" transform="translate(-62.811 -234.835)"/></g><g transform="translate(794.308 347.989)"><path class="f" d="M39.131,48.633l-.017.015L34.84,64.32l9.99-9.99Z" transform="translate(-30.884 -14.716)"/><path class="g" d="M64.866,36.786l-2.681-2.681a4.267,4.267,0,0,0-6.034,0l-7.7,7.7,5.7,5.7Z" transform="translate(-15.236 -32.856)"/><rect class="h" width="8.059" height="35.308" transform="translate(33.214 8.949) rotate(45)"/><path class="i" d="M51.428,57.762l.017-.015-6.462-6.464-9.99,9.99-.286,1.049Z" transform="translate(-31.037 -11.669)"/><path class="j" d="M57.564,51.864l7.7-7.7a4.267,4.267,0,0,0,0-6.034l-3.444-3.444L51.1,45.4Z" transform="translate(-12.189 -30.753)"/><rect class="k" width="9.139" height="35.308" transform="translate(20.407 46.078) rotate(-135)"/><path class="l" d="M35.15,62.963a2.15,2.15,0,0,1-1.52-3.67l4.745-4.745a2.149,2.149,0,1,1,3.04,3.04L36.67,62.333A2.144,2.144,0,0,1,35.15,62.963Z" transform="translate(-33 -8.638)"/></g></g></g></svg>