<svg xmlns="http://www.w3.org/2000/svg" xmlns:xlink="http://www.w3.org/1999/xlink" width="207" height="207" viewBox="0 0 207 207"><defs><style>.a{fill:url(#a);}.b{fill:#28abfa;}.c{fill:#14cfff;}.d{fill:#cee8ff;}.e{fill:#edf5ff;}.f{fill:#004692;}.g{fill:#00204d;}.h,.j{fill:#32d736;}.i{fill:#fff;}.j{mix-blend-mode:multiply;isolation:isolate;}.k{filter:url(#b);}</style><linearGradient id="a" x1="0.5" x2="0.5" y2="1" gradientUnits="objectBoundingBox"><stop offset="0" stop-color="#f2c406"/><stop offset="1" stop-color="#f3e09f"/></linearGradient><filter id="b" x="0" y="0" width="207" height="207" filterUnits="userSpaceOnUse"><feOffset dy="3" input="SourceAlpha"/><feGaussianBlur stdDeviation="3" result="c"/><feFlood flood-opacity="0.161"/><feComposite operator="in" in2="c"/><feComposite in="SourceGraphic"/></filter></defs><g transform="translate(-316 -239)"><g class="k" transform="matrix(1, 0, 0, 1, 316, 239)"><rect class="a" width="189" height="189" rx="25" transform="translate(9 6)"/></g><g transform="translate(723.366 277.523)"><g transform="translate(-325.698 0.145)"><path class="b" d="M103.955,0,95.6,13.332l8.353,13.332a13.332,13.332,0,0,0,0-26.664Z" transform="translate(-90.623)"/><path class="c" d="M0,13.332A13.332,13.332,0,0,0,13.332,26.664V0A13.332,13.332,0,0,0,0,13.332Z"/><path class="d" d="M193.638,60l-3.426,5.468,3.426,5.468a5.468,5.468,0,0,0,0-10.936Z" transform="translate(-180.306 -56.875)"/><path class="e" d="M151,65.468a5.468,5.468,0,0,0,5.468,5.468V60A5.468,5.468,0,0,0,151,65.468Z" transform="translate(-143.136 -56.875)"/><path class="d" d="M207.908,301.846a5.473,5.473,0,0,0-4.1-1.846h-4.687L196,303.958l3.125,3.958A10.235,10.235,0,0,0,208,302.75l.276-.486Z" transform="translate(-185.793 -284.377)"/><path class="e" d="M84.707,300a5.473,5.473,0,0,0-4.1,1.846l-.37.418.276.486a10.235,10.235,0,0,0,8.877,5.166V300Z" transform="translate(-76.062 -284.377)"/></g></g><g transform="translate(294.076 254.063)"><path class="e" d="M278.886,65.728V191.713a5.23,5.23,0,0,1-5.228,5.228L170.5,196.766V60.5H273.658A5.23,5.23,0,0,1,278.886,65.728Z" transform="translate(-105.962 -45.791)"/><path class="d" d="M334.758,65.728V191.713a5.23,5.23,0,0,1-5.228,5.228c.028,0-41.769-.07-73.27-.125V60.5h73.27A5.23,5.23,0,0,1,334.758,65.728Z" transform="translate(-161.834 -45.791)"/><g transform="translate(0 -0.312)"><path class="f" d="M217.728,156h72.838c2.887,0,5.228-1.119,5.228-2.5s-2.341-2.5-5.228-2.5H217.728c-2.887,0-5.228,1.119-5.228,2.5S214.841,156,217.728,156Z" transform="translate(-133.324 -86.751)"/><path class="g" d="M324.3,153.5c0,1.38-2.342,2.5-5.228,2.5H256.26v-5h62.815C321.961,151,324.3,152.12,324.3,153.5Z" transform="translate(-161.833 -86.751)"/></g><g transform="translate(0 2.777)"><path class="f" d="M290.566,211H217.728c-2.887,0-5.228,1.119-5.228,2.5s2.341,2.5,5.228,2.5h72.838c2.887,0,5.228-1.119,5.228-2.5S293.453,211,290.566,211Z" transform="translate(-133.324 -130.84)"/><path class="g" d="M324.3,213.5c0,1.38-2.342,2.5-5.228,2.5H256.26v-5h62.815C321.961,211,324.3,212.12,324.3,213.5Z" transform="translate(-161.833 -130.84)"/></g><g transform="translate(0 1.868)"><path class="f" d="M290.566,271H217.728c-2.887,0-5.228,1.119-5.228,2.5s2.341,2.5,5.228,2.5h72.838c2.887,0,5.228-1.119,5.228-2.5S293.453,271,290.566,271Z" transform="translate(-133.324 -169.93)"/><path class="g" d="M324.3,273.5c0,1.38-2.342,2.5-5.228,2.5H256.26v-5h62.815C321.961,271,324.3,272.12,324.3,273.5Z" transform="translate(-161.833 -169.93)"/></g><g transform="translate(0 0.306)"><path class="f" d="M248.745,330H217.728c-2.887,0-5.228,1.119-5.228,2.5s2.341,2.5,5.228,2.5h31.017c2.887,0,5.228-1.119,5.228-2.5S251.632,330,248.745,330Z" transform="translate(-133.324 -208.368)"/><path class="g" d="M282.482,332.5c0,1.38-2.342,2.5-5.228,2.5H256.26v-5h20.994C280.14,330,282.482,331.12,282.482,332.5Z" transform="translate(-161.833 -208.368)"/></g></g><g transform="translate(333 263.16)"><circle class="h" cx="20.767" cy="20.767" r="20.767" transform="translate(108.465 108.465)"/><circle class="i" cx="17.103" cy="17.103" r="17.103" transform="translate(112.13 112.13)"/><circle class="h" cx="15.365" cy="15.365" r="15.365" transform="translate(113.867 113.867)"/><path class="j" d="M.655,41.534c-.219,0-.439,0-.655-.011V.01C.223,0,.444,0,.655,0A20.635,20.635,0,0,1,8.738,1.632a20.7,20.7,0,0,1,6.6,4.45,20.71,20.71,0,0,1,4.45,6.6,20.835,20.835,0,0,1,0,16.166,20.7,20.7,0,0,1-4.45,6.6,20.7,20.7,0,0,1-6.6,4.45A20.648,20.648,0,0,1,.655,41.534Z" transform="translate(128.579 108.466)"/><path class="i" d="M326.476,293.8v-3.738c1.068.225,1.8.816,1.8,1.362a.9.9,0,0,0,1.8,0c0-1.6-1.52-2.9-3.594-3.193v-.962a.9.9,0,1,0-1.8,0v.962c-2.074.294-3.594,1.591-3.594,3.193,0,2.265,1.973,3.15,3.594,3.688v3.738c-1.068-.225-1.8-.816-1.8-1.361a.9.9,0,1,0-1.8,0c0,1.6,1.52,2.9,3.594,3.193v.962a.9.9,0,1,0,1.8,0v-.962c2.074-.294,3.594-1.591,3.594-3.193C330.07,295.227,328.1,294.342,326.476,293.8Zm-3.594-2.377c0-.546.729-1.137,1.8-1.361v3.13C323.341,292.672,322.882,292.193,322.882,291.427Zm3.594,7.427v-3.13c1.339.524,1.8,1,1.8,1.768C328.273,298.038,327.544,298.629,326.476,298.854Z" transform="translate(-196.345 -165.227)"/></g><g transform="translate(377.785 281.117)"><path class="b" d="M102.875,0,95.6,11.607l7.273,11.607a11.607,11.607,0,1,0,0-23.215Z" transform="translate(-91.267 0)"/><path class="c" d="M0,11.607A11.607,11.607,0,0,0,11.607,23.215V0A11.607,11.607,0,0,0,0,11.607Z"/><path class="d" d="M193.195,60l-2.983,4.761,2.983,4.761a4.761,4.761,0,1,0,0-9.522Z" transform="translate(-181.587 -57.279)"/><path class="e" d="M151,64.761a4.761,4.761,0,0,0,4.761,4.761V60A4.761,4.761,0,0,0,151,64.761Z" transform="translate(-144.153 -57.279)"/><path class="d" d="M206.367,301.607A4.765,4.765,0,0,0,202.8,300H198.72L196,303.446l2.72,3.446a8.911,8.911,0,0,0,7.729-4.5l.241-.423Z" transform="translate(-187.113 -286.398)"/><path class="e" d="M84.129,300a4.765,4.765,0,0,0-3.566,1.607l-.322.364.241.423a8.911,8.911,0,0,0,7.729,4.5V300Z" transform="translate(-76.603 -286.398)"/></g></g></svg>