<svg xmlns="http://www.w3.org/2000/svg" xmlns:xlink="http://www.w3.org/1999/xlink" width="207" height="207" viewBox="0 0 207 207"><defs><style>.a{fill:url(#a);}.b{fill:#ff1a56;}.c{fill:#d81e46;}.d{fill:#e1e4fb;}.e{fill:#c5c9f7;}.f{fill:#a8aff1;}.g{fill:#495a79;}.h{fill:#42516d;}.i{fill:#10bb67;}.j{fill:#32d736;}.k{filter:url(#b);}</style><linearGradient id="a" x1="0.624" y1="1" x2="0.61" gradientUnits="objectBoundingBox"><stop offset="0" stop-color="#af2121"/><stop offset="1" stop-color="#ff5252"/></linearGradient><filter id="b" x="0" y="0" width="207" height="207" filterUnits="userSpaceOnUse"><feOffset dy="3" input="SourceAlpha"/><feGaussianBlur stdDeviation="3" result="c"/><feFlood flood-opacity="0.161"/><feComposite operator="in" in2="c"/><feComposite in="SourceGraphic"/></filter></defs><g transform="translate(-864 -591)"><g class="k" transform="matrix(1, 0, 0, 1, 864, 591)"><rect class="a" width="189" height="189" rx="25" transform="translate(9 6)"/></g><g transform="translate(-1581.833 -10187)"><g transform="translate(2488 10818)"><path class="b" d="M116.645,41.613V53.226l-7.742,8H7.742L0,53.226V41.613A11.6,11.6,0,0,1,11.613,30h93.419A11.6,11.6,0,0,1,116.645,41.613Z" transform="translate(0 -22.258)"/><path class="c" d="M284.322,41.613V53.226l-7.742,8H226V30h46.71A11.6,11.6,0,0,1,284.322,41.613Z" transform="translate(-167.678 -22.258)"/><path class="d" d="M116.645,120v74.064a11.6,11.6,0,0,1-11.613,11.613H11.613A11.6,11.6,0,0,1,0,194.064V120Z" transform="translate(0 -89.032)"/><path class="e" d="M284.322,120v74.064a11.6,11.6,0,0,1-11.613,11.613H226V120Z" transform="translate(-167.678 -89.032)"/><path class="f" d="M321.355,205.226H305.871A3.869,3.869,0,0,1,302,201.355V185.871A3.869,3.869,0,0,1,305.871,182h15.484a3.869,3.869,0,0,1,3.871,3.871v15.484A3.869,3.869,0,0,1,321.355,205.226Z" transform="translate(-224.065 -135.032)"/><path class="g" d="M313.613,0A11.6,11.6,0,0,0,302,11.613v7.742a3.833,3.833,0,0,0,3.871,3.871h15.484a3.833,3.833,0,0,0,3.871-3.871V11.613A11.6,11.6,0,0,0,313.613,0Z" transform="translate(-224.065)"/><g transform="translate(15.484 46.968)"><path class="e" d="M79.355,205.226H63.871A3.869,3.869,0,0,1,60,201.355V185.871A3.869,3.869,0,0,1,63.871,182H79.355a3.869,3.869,0,0,1,3.871,3.871v15.484A3.869,3.869,0,0,1,79.355,205.226Z" transform="translate(-60 -182)"/><path class="e" d="M79.355,325.226H63.871A3.869,3.869,0,0,1,60,321.355V305.871A3.869,3.869,0,0,1,63.871,302H79.355a3.869,3.869,0,0,1,3.871,3.871v15.484A3.869,3.869,0,0,1,79.355,325.226Z" transform="translate(-60 -271.032)"/></g><path class="e" d="M199.871,182h-16A3.833,3.833,0,0,0,180,185.871v15.484a3.833,3.833,0,0,0,3.871,3.871h16a3.833,3.833,0,0,0,3.871-3.871V185.871A3.833,3.833,0,0,0,199.871,182Z" transform="translate(-133.548 -135.032)"/><path class="f" d="M237.871,185.871v15.484A3.833,3.833,0,0,1,234,205.226h-8V182h8A3.833,3.833,0,0,1,237.871,185.871Z" transform="translate(-167.678 -135.032)"/><path class="e" d="M199.871,302h-16A3.833,3.833,0,0,0,180,305.871v15.484a3.833,3.833,0,0,0,3.871,3.871h16a3.833,3.833,0,0,0,3.871-3.871V305.871A3.833,3.833,0,0,0,199.871,302Z" transform="translate(-133.548 -224.065)"/><path class="f" d="M237.871,305.871v15.484A3.833,3.833,0,0,1,234,325.226h-8V302h8A3.833,3.833,0,0,1,237.871,305.871Z" transform="translate(-167.678 -224.065)"/><path class="h" d="M358.613,11.613v7.742a3.833,3.833,0,0,1-3.871,3.871H347V0A11.6,11.6,0,0,1,358.613,11.613Z" transform="translate(-257.452)"/><path class="g" d="M71.613,0A11.6,11.6,0,0,0,60,11.613v7.742a3.833,3.833,0,0,0,3.871,3.871H79.355a3.833,3.833,0,0,0,3.871-3.871V11.613A11.6,11.6,0,0,0,71.613,0Z" transform="translate(-44.516)"/><path class="h" d="M116.613,11.613v7.742a3.833,3.833,0,0,1-3.871,3.871H105V0A11.6,11.6,0,0,1,116.613,11.613Z" transform="translate(-77.903)"/><path class="e" d="M410.871,335.871v15.484a3.63,3.63,0,0,1-1.162,2.709L407,356.774V332A3.833,3.833,0,0,1,410.871,335.871Z" transform="translate(-301.968 -246.323)"/></g><g transform="translate(2573.462 10909.466)"><path class="i" d="M295.162,305.49l-11.7,11.7-.616.616a1.984,1.984,0,0,1-2.874,0l-8.35-8.213a2.033,2.033,0,1,1,2.875-2.875l6.913,6.735,2.053-2.053,8.83-8.788a2.033,2.033,0,1,1,2.874,2.875Z" transform="translate(-262.787 -289.68)"/><path class="j" d="M231.671,212a20.534,20.534,0,1,0,0,41.067,20.534,20.534,0,1,0,0-41.067Z" transform="translate(-211 -212)"/><path class="i" d="M382.534,232.534A20.541,20.541,0,0,0,362,212v41.067A20.541,20.541,0,0,0,382.534,232.534Z" transform="translate(-341.329 -212)"/><path class="d" d="M295.162,305.49l-11.7,11.7-.616.616a1.984,1.984,0,0,1-2.874,0l-8.35-8.213a2.033,2.033,0,1,1,2.875-2.875l6.913,6.735,2.053-2.053,8.83-8.788a2.033,2.033,0,1,1,2.874,2.875Z" transform="translate(-262.787 -289.68)"/><path class="e" d="M373.7,305.49a2.033,2.033,0,1,0-2.875-2.875L362,311.4v5.791Z" transform="translate(-341.329 -289.68)"/></g></g></g></svg>