<svg xmlns="http://www.w3.org/2000/svg" xmlns:xlink="http://www.w3.org/1999/xlink" width="207" height="207" viewBox="0 0 207 207"><defs><style>.a{fill:url(#a);}.b{fill:#edf6ff;}.c{fill:#d7e9fe;}.d{fill:#384466;}.e{fill:#2a2b4c;}.f{fill:#bcddfe;}.g{fill:#445f80;}.h{fill:#aae392;}.i{fill:#e4336d;}.j{fill:#b8b5eb;}.k{fill:#a09be4;}.l{fill:#fff161;}.m{fill:#fadf00;}.n{filter:url(#b);}</style><linearGradient id="a" x1="0.5" x2="0.5" y2="1" gradientUnits="objectBoundingBox"><stop offset="0" stop-color="#f88968"/><stop offset="1" stop-color="#dd543b"/></linearGradient><filter id="b" x="0" y="0" width="207" height="207" filterUnits="userSpaceOnUse"><feOffset dy="3" input="SourceAlpha"/><feGaussianBlur stdDeviation="3" result="c"/><feFlood flood-opacity="0.161"/><feComposite operator="in" in2="c"/><feComposite in="SourceGraphic"/></filter></defs><g transform="translate(-1050 -239)"><g class="n" transform="matrix(1, 0, 0, 1, 1050, 239)"><rect class="a" width="189" height="189" rx="25" transform="translate(9 6)"/></g><g transform="translate(1092.686 280.686)"><g transform="translate(0 11.451)"><path class="b" d="M0,48.2v75.373L60.814,127.3v4.693L73.836,85.582,60.814,48.2Z" transform="translate(0 -48.202)"/><path class="c" d="M256,48.2v83.789l60.814-8.415V48.2Z" transform="translate(-195.186 -48.202)"/><g transform="translate(29.477 83.568)"><path class="d" d="M140.262,407.112a14.631,14.631,0,0,1-2.23,5.248,16.66,16.66,0,0,1-13.645,7.181h-.3v7.127h31.338l7.582-10.6-7.582-15.982Z" transform="translate(-124.083 -400.058)"/><path class="e" d="M287.338,419.467a16.659,16.659,0,0,1-13.645-7.181,14.628,14.628,0,0,1-2.23-5.248h0L256,399.983v26.61h31.338Z" transform="translate(-224.662 -399.983)"/></g></g><g transform="translate(17.197 27.55)"><path class="c" d="M72.392,115.974v61.653l43.617,6.036,9.339-33.285-9.339-34.4Z" transform="translate(-72.392 -115.974)"/><path class="f" d="M256,115.974v67.689l43.617-6.036V115.974Z" transform="translate(-212.383 -115.974)"/></g><g transform="translate(0 86.824)"><path class="g" d="M0,365.488v15.37H60.814l6.17-9.765-6.17-5.605Z" transform="translate(0 -365.488)"/><path class="d" d="M256,365.488h60.814v15.37H256Z" transform="translate(-195.186 -365.488)"/></g><g transform="translate(42.523 52.311)"><path class="h" d="M179,220.205h7.127v21.381H179Z" transform="translate(-179.002 -220.205)"/><g transform="translate(29.456 13.303)"><path class="i" d="M303,276.2h7.127v8.077H303Z" transform="translate(-302.998 -276.205)"/></g></g><g transform="translate(57.251 58.725)"><path class="j" d="M241,247.2v14.967h3.563l1.35-6.135-1.35-8.831Z" transform="translate(-241 -247.205)"/><path class="k" d="M256,247.2h3.563v14.967H256Z" transform="translate(-252.437 -247.205)"/></g><g transform="translate(39.208)"><path class="l" d="M177.972,10.772,165.045,15.7l7.908,11.852V41.1l13.7-3.612L189.446,20.8,186.652,0Z" transform="translate(-165.045 0)"/><path class="m" d="M264.68,10.772,256,0V37.487L269.7,41.1V27.55L277.607,15.7Z" transform="translate(-234.393)"/></g></g></g></svg>