<svg xmlns="http://www.w3.org/2000/svg" xmlns:xlink="http://www.w3.org/1999/xlink" width="225" height="225" viewBox="0 0 225 225"><defs><style>.a,.b{fill:#fff;}.b{opacity:0.15;}.c,.o{fill:#8c171a;}.c{font-size:24px;font-family:GillSans-SemiBold, Gill Sans;font-weight:600;letter-spacing:0.052em;}.d{fill:#ddd;}.e{fill:#3b3b3b;}.f{fill:#ecf0f1;}.g{fill:#2f2f2f;}.h{fill:#d81e46;}.i{fill:#909090;}.j{fill:#aca8a8;}.k{fill:#656464;}.l{fill:#bcb8b8;}.m{fill:#24566a;}.n{fill:#525252;}.p{fill:#6a0a0c;}.q{fill:#c9c8c8;}.r{filter:url(#a);}</style><filter id="a" x="0" y="0" width="225" height="225" filterUnits="userSpaceOnUse"><feOffset dy="3" input="SourceAlpha"/><feGaussianBlur stdDeviation="3" result="b"/><feFlood flood-opacity="0.161"/><feComposite operator="in" in2="b"/><feComposite in="SourceGraphic"/></filter></defs><g transform="translate(9 6)"><g transform="translate(-910 -273.81)"><g class="r" transform="matrix(1, 0, 0, 1, 901, 267.81)"><path class="a" d="M25,0H182a25,25,0,0,1,25,25V182a25,25,0,0,1-25,25H25A25,25,0,0,1,0,182V25A25,25,0,0,1,25,0Z" transform="translate(9 6)"/></g><path class="b" d="M28.123,0H160.7a28.123,28.123,0,0,1,28.123,28.123V158.695A28.123,28.123,0,0,1,160.7,186.818H28.123A28.123,28.123,0,0,1,0,158.695V28.123A28.123,28.123,0,0,1,28.123,0Z" transform="translate(920 284.038)"/><text class="c" transform="translate(1013 464.81)"><tspan x="-47.177" y="0">Clientes</tspan></text></g><g transform="translate(-628.678 -316.146)"><g transform="translate(24)"><path class="d" d="M62.705,383.655c7.657,0,15.614-8.678,16.766-14.755H76.916a4.227,4.227,0,0,1-4.228-4.228v-4.235c-3.5,2.394-16.465,2.394-19.965,0v4.235A4.228,4.228,0,0,1,48.5,368.9H45.94c-.51,7.083,9.108,14.755,16.766,14.755Z" transform="translate(597.314 62.237)"/><path class="e" d="M58.561,380.308H53.108c-2.572,6.2-9.109,10.613-16.766,10.613s-14.194-4.409-16.766-10.613H14.122A14.122,14.122,0,0,0,0,394.43v25.449a1.146,1.146,0,0,0,1.146,1.146H71.537a1.146,1.146,0,0,0,1.146-1.146V394.43A14.123,14.123,0,0,0,58.561,380.308Z" transform="translate(623.678 50.829)"/><path class="f" d="M71.623,264.363c-2.894-2.894-23.12-3.128-26.014-.234l-5.727,11.95.253,3.427.889,12.068c.7,9.541,12.465,16.153,18.216,16.153s17.513-6.612,18.216-16.153l.878-11.918.162-2.2Z" transform="translate(600.781 118.71)"/><path class="g" d="M28.988,432.358a3.29,3.29,0,1,0-6.581,0V449.02h6.581V432.358Z" transform="translate(610.814 22.835)"/><path class="h" d="M139.39,432.358a3.29,3.29,0,1,0-6.581,0V449.02h6.581V432.358Z" transform="translate(547.431 22.835)"/><path class="d" d="M80.913,317.24a3.29,3.29,0,1,1,0-6.581.082.082,0,0,0,.082-.082v-2.41a3.29,3.29,0,1,1,6.581,0v2.41A6.67,6.67,0,0,1,80.913,317.24Z" transform="translate(579.113 94.136)"/><path class="i" d="M55.776,257.364l.962.962a2.377,2.377,0,0,0,3.362,0l.728-.728a7.412,7.412,0,0,1,10.481,0l6.871,6.871.293-3.98a19.6,19.6,0,1,0-39.082.212l.176,2.39,5.727-5.727A7.411,7.411,0,0,1,55.776,257.364Z" transform="translate(601.096 131.7)"/></g><g transform="translate(-23.502)"><path class="e" d="M399.894,380.308h-8.01l-12.168,12.5h-4.084l-12.168-12.5h-8.01a14.122,14.122,0,0,0-14.122,14.122v25.449a1.146,1.146,0,0,0,1.146,1.146H412.87a1.146,1.146,0,0,0,1.146-1.146V394.43A14.122,14.122,0,0,0,399.894,380.308Z" transform="translate(427.712 50.829)"/><path class="j" d="M417.493,364.671v-4.235c-3.5,2.394-16.465,2.394-19.965,0v4.235A4.228,4.228,0,0,1,393.3,368.9l14.217,20.765,14.2-20.765A4.228,4.228,0,0,1,417.493,364.671Z" transform="translate(397.877 62.237)"/><path class="k" d="M411.27,387.018a6.959,6.959,0,0,1-7.521,0l-10.449-6.71,14.21,40.718,14.21-40.718Z" transform="translate(397.877 50.829)"/><path class="l" d="M400.011,239.448A19.583,19.583,0,0,0,380.725,260.7l1.317,17.886c.7,9.541,12.465,16.153,18.216,16.153s17.513-6.612,18.216-16.153l1.333-18.1A19.6,19.6,0,0,0,400.011,239.448Z" transform="translate(405.129 131.7)"/><path class="m" d="M370.321,432.358a3.29,3.29,0,1,0-6.581,0V449.02h6.581V432.358Z" transform="translate(414.848 22.835)"/><path class="g" d="M480.723,432.358a3.29,3.29,0,1,0-6.581,0V449.02h6.581V432.358Z" transform="translate(351.465 22.835)"/><path class="j" d="M422.246,317.24a3.29,3.29,0,1,1,0-6.581.082.082,0,0,0,.082-.082v-2.41a3.29,3.29,0,1,1,6.581,0v2.41A6.67,6.67,0,0,1,422.246,317.24Z" transform="translate(383.147 94.136)"/></g><rect class="n" width="39" height="44" transform="translate(713 388.522)"/><path class="l" d="M246.826,364.671v-4.235c-3.5,2.394-16.465,2.394-19.965,0v4.235a4.228,4.228,0,0,1-4.228,4.228L234.8,383.066h4.084L251.054,368.9A4.228,4.228,0,0,1,246.826,364.671Z" transform="translate(495.859 62.237)"/><circle cx="3.29" cy="3.29" r="3.29" transform="translate(729.42 446.628)"/><circle cx="3.29" cy="3.29" r="3.29" transform="translate(729.42 457.596)"/><circle cx="3.29" cy="3.29" r="3.29" transform="translate(729.42 446.628)"/><circle cx="3.29" cy="3.29" r="3.29" transform="translate(729.42 457.596)"/><g transform="translate(696.362 431.137)"><path class="o" d="M243.35,407.861V394.43a14.122,14.122,0,0,0-14.122-14.122h-8.009L209.6,387.764a2.249,2.249,0,0,1-1.215.356h-2.764a2.252,2.252,0,0,1-1.215-.356L192.8,380.308h-8.01a14.122,14.122,0,0,0-14.122,14.122v13.431L183.5,421.026h47.017Z" transform="translate(-170.666 -380.308)"/><path class="p" d="M188.637,445.728a3.29,3.29,0,0,1-3.29-3.29V432.358a3.29,3.29,0,1,1,6.581,0v10.079A3.29,3.29,0,0,1,188.637,445.728Z" transform="translate(-179.095 -408.302)"/><path class="p" d="M314.491,446.663a3.29,3.29,0,0,1-3.29-3.29V432.359a3.29,3.29,0,1,1,6.581,0v11.013A3.29,3.29,0,0,1,314.491,446.663Z" transform="translate(-251.35 -408.303)"/></g><path class="p" d="M217.48,380.308l-3.75,12.137a1.563,1.563,0,0,0,2.189,1.862l13.174-6.543Z" transform="translate(501.014 50.829)"/><path class="p" d="M273.712,380.308l3.75,12.137a1.563,1.563,0,0,1-2.189,1.862L262.1,387.764Z" transform="translate(473.201 50.829)"/><path class="q" d="M223.4,258.864l-12.268,18.764,0,.037.889,12.068c.7,9.541,12.465,16.153,18.216,16.153s17.513-6.612,18.216-16.153l.878-11.918.373-5.058s-21.647-8.822-26.3-13.893Z" transform="translate(502.462 120.552)"/><path class="l" d="M251.579,317.24a3.29,3.29,0,0,1,0-6.581.082.082,0,0,0,.082-.082v-2.41a3.29,3.29,0,0,1,6.581,0v2.41A6.67,6.67,0,0,1,251.579,317.24Z" transform="translate(481.131 94.136)"/><path class="n" d="M224.018,254.425a24.528,24.528,0,0,0,17.345,7.185h7.694l.083-1.121a19.6,19.6,0,1,0-39.082.212l.426,5.781,12.055-12.055A1.045,1.045,0,0,1,224.018,254.425Z" transform="translate(503.113 131.7)"/><path class="q" d="M170.667,445v12.019a1.147,1.147,0,0,0,1.146,1.146H183.5V445Z" transform="translate(525.695 13.685)"/><path class="q" d="M311.2,445v13.165h11.687a1.146,1.146,0,0,0,1.146-1.146V445Z" transform="translate(445.011 13.685)"/></g></g></svg>