<svg xmlns="http://www.w3.org/2000/svg" xmlns:xlink="http://www.w3.org/1999/xlink" width="225" height="225" viewBox="0 0 225 225"><defs><style>.a{fill:#fff;}.b{opacity:0.151;fill:url(#c);}.c,.h{fill:#8c171a;}.c{font-size:24px;font-family:GillSans-SemiBold, Gill Sans;font-weight:600;letter-spacing:0.052em;}.d{fill:#adadad;}.e{fill:#525252;}.f{fill:#333;}.g{fill:#bdc3c7;}.i{filter:url(#a);}</style><filter id="a" x="0" y="0" width="225" height="225" filterUnits="userSpaceOnUse"><feOffset dy="3" input="SourceAlpha"/><feGaussianBlur stdDeviation="3" result="b"/><feFlood flood-opacity="0.161"/><feComposite operator="in" in2="b"/><feComposite in="SourceGraphic"/></filter><linearGradient id="c" x1="0.873" y1="0.114" x2="0.132" y2="0.886" gradientUnits="objectBoundingBox"><stop offset="0" stop-color="#fff"/><stop offset="1" stop-color="gray" stop-opacity="0"/></linearGradient></defs><g transform="translate(9 6)"><g transform="translate(-910 -273.81)"><g class="i" transform="matrix(1, 0, 0, 1, 901, 267.81)"><path class="a" d="M25,0H182a25,25,0,0,1,25,25V182a25,25,0,0,1-25,25H25A25,25,0,0,1,0,182V25A25,25,0,0,1,25,0Z" transform="translate(9 6)"/></g><path class="b" d="M28,0H166a28,28,0,0,1,28,28V164a28,28,0,0,1-28,28H28A28,28,0,0,1,0,164V28A28,28,0,0,1,28,0Z" transform="translate(916 281.31)"/><text class="c" transform="translate(1013 464.81)"><tspan x="-54.8" y="0">Formatos</tspan></text></g><g transform="translate(-58 -30.704)"><g transform="translate(111 57)"><path class="a" d="M214,188.236a3.826,3.826,0,0,1-3.815,3.815H114.815A3.826,3.826,0,0,1,111,188.236V60.815A3.826,3.826,0,0,1,114.815,57h73.248a10.615,10.615,0,0,1,6.513,2.7l16.731,16.731a10.615,10.615,0,0,1,2.7,6.513Z" transform="translate(-111 -57)"/><path class="d" d="M343,78.274,325.484,60.717a12.68,12.68,0,0,0-3.383-1.785l.821,18.771a4.029,4.029,0,0,0,4.017,4.017l17.89.085A9.568,9.568,0,0,0,343,78.274Z" transform="translate(-242.302 -58.422)"/><g transform="translate(7.431 33.165)"><path class="e" d="M130.446,146.008H216.7a1.006,1.006,0,0,0,0-2.008H130.446a1.006,1.006,0,0,0,0,2.008Z" transform="translate(-129.5 -144)"/></g><g transform="translate(7.431 37.74)"><path class="e" d="M130.446,158.008H216.7a1.006,1.006,0,0,0,0-2.008H130.446a1.006,1.006,0,0,0,0,2.008Z" transform="translate(-129.5 -156)"/></g><g transform="translate(7.23 41.933)"><path class="e" d="M130,169.008H207.93a1,1,0,1,0,0-2.008H130a1,1,0,0,0,0,2.008Z" transform="translate(-129 -167)"/></g><g transform="translate(7.23 52.607)"><path class="e" d="M129.941,197.008h79.432a1.006,1.006,0,0,0,0-2.008H129.941a1.006,1.006,0,0,0,0,2.008Z" transform="translate(-129 -195)"/></g><g transform="translate(7.23 63.281)"><path class="e" d="M130,225.008h82.344a1,1,0,1,0,0-2.008H130a1,1,0,1,0,0,2.008Z" transform="translate(-129 -223)"/></g><g transform="translate(7.23 74.336)"><path class="e" d="M130,254.008h67.482a1,1,0,0,0,0-2.008H130a1,1,0,0,0,0,2.008Z" transform="translate(-129 -252)"/></g><g transform="translate(7.23 79.292)"><path class="e" d="M130,267.008h67.482a1,1,0,0,0,0-2.008H130a1,1,0,0,0,0,2.008Z" transform="translate(-129 -265)"/></g><g transform="translate(7.23 83.485)"><path class="e" d="M130,278.008h72.3a1,1,0,1,0,0-2.008H130a1,1,0,0,0,0,2.008Z" transform="translate(-129 -276)"/></g><g transform="translate(7.23 92.634)"><path class="e" d="M130,302.008h72.3a1,1,0,1,0,0-2.008H130a1,1,0,0,0,0,2.008Z" transform="translate(-129 -300)"/></g><rect class="f" width="64.726" height="7.846" transform="translate(6.889 15.704)"/><g transform="translate(7.23 58.325)"><path class="g" d="M129.941,212.008h79.432a1.006,1.006,0,0,0,0-2.008H129.941a1.006,1.006,0,0,0,0,2.008Z" transform="translate(-129 -210)"/></g><g transform="translate(7.23 58.325)"><path class="e" d="M129.941,212.008h79.432a1.006,1.006,0,0,0,0-2.008H129.941a1.006,1.006,0,0,0,0,2.008Z" transform="translate(-129 -210)"/></g><g transform="translate(3.679 100.955)"><g transform="translate(7.721 7.721)"><circle class="h" cx="5.85" cy="5.85" r="5.85"/></g><path class="h" d="M145.845,336.65c-.165-.653.688-1.663.415-2.3s-1.591-.723-1.949-1.295.133-1.808-.313-2.318-1.732-.191-2.254-.626-.432-1.757-1.017-2.106-1.7.356-2.337.1-.949-1.538-1.616-1.691-1.507.863-2.192.815-1.374-1.17-2.059-1.108-1.161,1.287-1.831,1.456c-.653.164-1.663-.687-2.3-.415s-.723,1.591-1.294,1.948c-.586.366-1.808-.132-2.318.313s-.191,1.732-.626,2.253-1.757.432-2.106,1.017.356,1.7.1,2.337-1.538.949-1.691,1.616.863,1.507.815,2.192-1.17,1.374-1.109,2.06,1.287,1.16,1.456,1.83c.165.654-.688,1.663-.415,2.3s1.591.723,1.948,1.294c.367.586-.132,1.809.312,2.318s1.732.192,2.254.627.432,1.757,1.017,2.106,1.7-.356,2.337-.1.949,1.537,1.616,1.691,1.507-.862,2.192-.815,1.374,1.17,2.059,1.109,1.16-1.287,1.831-1.456c.653-.164,1.663.688,2.3.415s.723-1.591,1.295-1.948,1.808.132,2.318-.313.19-1.732.626-2.253,1.757-.432,2.107-1.017-.356-1.7-.1-2.337,1.538-.949,1.691-1.616-.863-1.508-.815-2.192,1.17-1.374,1.109-2.059S146.014,337.32,145.845,336.65Zm-7.76,13.251a11.1,11.1,0,1,1,5.859-14.566A11.1,11.1,0,0,1,138.085,349.9Z" transform="translate(-120.16 -326.117)"/><g transform="translate(5.005 5.058)"><path class="h" d="M144.493,355.1a8.283,8.283,0,0,1-6.98-.126,8.6,8.6,0,0,1-4.755-9.147,8.874,8.874,0,0,1,5.122-6.476,7.9,7.9,0,0,1,2.347-.6,8.747,8.747,0,0,1,8.794,5.063l.01.02c.01.02.019.039.028.06a8.648,8.648,0,0,1-1.453,9.015,9.155,9.155,0,0,1-3.113,2.189ZM138.2,340.241a7.728,7.728,0,0,0-3.978,4.169,7.282,7.282,0,0,0,.048,5.768,7.564,7.564,0,0,0,9.773,4.015l.1-.036A7.567,7.567,0,0,0,138.3,340.2Z" transform="translate(-132.62 -338.708)"/></g><g transform="translate(3.588 3.587)"><path class="h" d="M143.927,353.756l-.084-.151a9.774,9.774,0,0,0,1.679-1.177l.114.13A9.952,9.952,0,0,1,143.927,353.756Zm-1.92.818a9.983,9.983,0,0,1-2.048.4l-.015-.173a9.767,9.767,0,0,0,2.012-.4Zm5.05-3.545-.138-.1a9.817,9.817,0,0,0,1.052-1.76l.157.072A10.037,10.037,0,0,1,147.057,351.029Zm-9.186,3.913a10.043,10.043,0,0,1-2.034-.469l.056-.163a9.815,9.815,0,0,0,2,.461Zm10.935-7.679-.169-.039a9.815,9.815,0,0,0,.249-2.036l.173,0A10.053,10.053,0,0,1,148.806,347.263Zm-14.862,6.331a9.982,9.982,0,0,1-1.669-1.252l.118-.126a9.837,9.837,0,0,0,1.64,1.23Zm14.937-10.465-.166.042a8.991,8.991,0,0,0-.6-1.951l.159-.068A9.164,9.164,0,0,1,148.881,343.129ZM130.9,350.768a10.083,10.083,0,0,1-1.011-1.822l.158-.071a9.88,9.88,0,0,0,.995,1.793Zm16.2-11.371a9.743,9.743,0,0,0-1.347-1.547l.118-.127a9.946,9.946,0,0,1,1.37,1.575Zm-17.661,7.519-.169.033a9.892,9.892,0,0,1-.185-2.079l.173,0A9.691,9.691,0,0,0,129.447,346.915Zm14.674-10.3a9.851,9.851,0,0,0-1.861-.865l.056-.163a10.067,10.067,0,0,1,1.893.88Zm-14.607,6.217-.168-.039a10.087,10.087,0,0,1,.678-1.975l.157.074A9.8,9.8,0,0,0,129.515,342.835Zm10.747-7.543a9.751,9.751,0,0,0-2.051-.035l-.016-.172a10,10,0,0,1,2.088.035Zm-9.028,3.843-.138-.1a9.916,9.916,0,0,1,1.421-1.529l.113.13A9.786,9.786,0,0,0,131.234,339.135Zm4.964-3.483a10.04,10.04,0,0,0-1.887.8l-.084-.151a10.072,10.072,0,0,1,1.92-.817Z" transform="translate(-129.091 -335.046)"/></g></g><g transform="translate(55.048 111.118)"><path class="f" d="M262.1,373.336l.253-.422c1.774-2.957,6.826-4.974,11.158-6.357a16.427,16.427,0,0,0,3.975-5.028c.769-1.537.776-2.933.486-3.349-.077-.11-.148-.119-.194-.11-.239.026-.664.471-1.142,1.638l-.174.426-.126-.443c-.109-.383-.2-.771-.291-1.146a14.545,14.545,0,0,0-.611-2.091,4.5,4.5,0,0,0-1.512,2.479,6.672,6.672,0,0,1-1.056,2.12l-.176.2L272.6,361a7.234,7.234,0,0,1-.338-1.8,5.861,5.861,0,0,0-.534-2.247,4.462,4.462,0,0,0-1.1,2.823c.016.461.01.895.005,1.215,0,.111,0,.206,0,.281l-.318.018a7.784,7.784,0,0,1,0-1.517,4.1,4.1,0,0,0-.517-2.277.4.4,0,0,0-.3-.133.676.676,0,0,0-.513.221,3.863,3.863,0,0,0-.534,2.327c.067.766.067,1.782.067,2.184h-.319c0-.4-.011-.357-.024-.608-.023-.449-.052-1.009-.044-1.576-.127-1.423-.491-2.837-1.535-3.481-.955,1.063-.878,2.954-.809,4.629a12.373,12.373,0,0,1-.04,2.358l-.136.819-.176-.811c-.253-1.164-.43-2.343-.6-3.483a27.415,27.415,0,0,0-1.55-6.583c.383,2.865.936,7.411-.832,9.327a2.4,2.4,0,0,1-2.962.667,1.555,1.555,0,0,1-.725-1.965l.3.1a1.225,1.225,0,0,0,.575,1.584,2.1,2.1,0,0,0,2.568-.595c1.726-1.87,1.1-6.536.725-9.324-.04-.293-.076-.566-.107-.813l-.115-.922.416.831a24.725,24.725,0,0,1,2.02,7.644c.109.729.221,1.474.353,2.219,0-.333-.018-.683-.033-1.042-.074-1.788-.157-3.814.986-4.956l.084-.084.1.057a3.553,3.553,0,0,1,1.6,2.471,2.366,2.366,0,0,1,.508-1.194.99.99,0,0,1,.744-.32.717.717,0,0,1,.525.228,2.446,2.446,0,0,1,.5,1.278,3.44,3.44,0,0,1,1.163-1.965l.138-.1.09.143a5.682,5.682,0,0,1,.671,2.538,8.516,8.516,0,0,0,.229,1.446,7.672,7.672,0,0,0,.818-1.792,4.451,4.451,0,0,1,1.819-2.739l.151-.076.067.155a13.833,13.833,0,0,1,.7,2.305c.055.229.11.462.17.7.413-.885.83-1.372,1.219-1.414a.515.515,0,0,1,.49.245c.393.564.328,2.093-.462,3.674a16.372,16.372,0,0,1-3.574,4.669c1-.31,1.946-.585,2.79-.831.384-.112.747-.218,1.084-.317a111.668,111.668,0,0,1,12.713-3.26l.509-.1-.366.367a.955.955,0,0,1-.388.2.708.708,0,0,0-.263.125l-.143-.143A111.875,111.875,0,0,0,278.17,365.5l-1.089.319c-1.028.3-2.211.643-3.454,1.04-3.182,2.744-7.261,4.655-11.07,6.287Zm10.761-6.233c-3.873,1.281-8.116,3.062-9.94,5.534A42.882,42.882,0,0,0,272.864,367.1Z" transform="translate(-258.657 -351.418)"/></g></g></g></g></svg>