<svg xmlns="http://www.w3.org/2000/svg" xmlns:xlink="http://www.w3.org/1999/xlink" width="225" height="225" viewBox="0 0 225 225"><defs><style>.a,.b{fill:#fff;}.b{opacity:0.15;}.c,.d{fill:#8c171a;}.c{font-size:24px;font-family:GillSans-SemiBold, Gill Sans;font-weight:600;letter-spacing:0.052em;}.e{fill:#6a0a0c;opacity:0.564;mix-blend-mode:multiply;isolation:isolate;}.f{fill:#909090;}.g{fill:#bcb8b8;}.h{fill:#ddd;}.i{fill:#ecf0f1;}.j{fill:#3b3b3b;}.k{fill:#aca8a8;}.l{fill:#656464;}.m{fill:#c9c8c8;}.n{fill:#2f2f2f;}.o{fill:#525252;}.p{filter:url(#a);}</style><filter id="a" x="0" y="0" width="225" height="225" filterUnits="userSpaceOnUse"><feOffset dy="3" input="SourceAlpha"/><feGaussianBlur stdDeviation="3" result="b"/><feFlood flood-opacity="0.161"/><feComposite operator="in" in2="b"/><feComposite in="SourceGraphic"/></filter></defs><g transform="translate(9 6)"><g transform="translate(-910 -273.81)"><g class="p" transform="matrix(1, 0, 0, 1, 901, 267.81)"><path class="a" d="M25,0H182a25,25,0,0,1,25,25V182a25,25,0,0,1-25,25H25A25,25,0,0,1,0,182V25A25,25,0,0,1,25,0Z" transform="translate(9 6)"/></g><path class="b" d="M28.123,0H160.7a28.123,28.123,0,0,1,28.123,28.123V158.695A28.123,28.123,0,0,1,160.7,186.818H28.123A28.123,28.123,0,0,1,0,158.695V28.123A28.123,28.123,0,0,1,28.123,0Z" transform="translate(920 284.038)"/><text class="c" transform="translate(1013 464.81)"><tspan x="-79.081" y="0">Inversionistas</tspan></text></g><g transform="translate(37 5.584)"><g transform="translate(20.413 28.284)"><ellipse class="d" cx="46.499" cy="46.499" rx="46.499" ry="46.499" transform="translate(0 0)"/><ellipse class="a" cx="38.293" cy="38.293" rx="38.293" ry="38.293" transform="translate(8.205 8.205)"/><path class="d" d="M34.4,0A34.4,34.4,0,1,1,0,34.4,34.4,34.4,0,0,1,34.4,0Z" transform="translate(12.096 12.096)"/><path class="e" d="M1.466,93C.976,93,.483,92.99,0,92.974V.023C.5.008.993,0,1.466,0a46.2,46.2,0,0,1,18.1,3.655,46.357,46.357,0,0,1,14.779,9.964A46.371,46.371,0,0,1,44.309,28.4a46.65,46.65,0,0,1,0,36.2A46.339,46.339,0,0,1,34.345,79.38a46.339,46.339,0,0,1-14.779,9.964A46.231,46.231,0,0,1,1.466,93Z" transform="translate(45.035 0)"/></g><rect class="f" width="24" height="27" transform="translate(55.322 100.416)"/><path class="g" d="M237.572,363.051v-2.615c-2.161,1.478-10.167,1.478-12.328,0v2.615a2.611,2.611,0,0,1-2.611,2.611l7.514,8.748h2.522l7.514-8.748A2.611,2.611,0,0,1,237.572,363.051Z" transform="translate(-164.086 -239.056)"/><path class="h" d="M56.285,374.774c4.728,0,9.642-5.359,10.353-9.111H65.06a2.61,2.61,0,0,1-2.611-2.611v-2.615c-2.161,1.478-10.167,1.478-12.328,0v2.615a2.611,2.611,0,0,1-2.611,2.611H45.932c-.315,4.374,5.624,9.111,10.353,9.111Z" transform="translate(-33.844 -239.057)"/><path class="a" d="M205.869,228.444a4.558,4.558,0,1,0-7.786,4.74,13.665,13.665,0,0,0,3.089,3.536c2.661-.732,5.23-3.254,6.554-6.579A4.451,4.451,0,0,1,205.869,228.444Z" transform="translate(-145.818 -138.81)"/><path class="a" d="M205.59,102.351h3.886a4.45,4.45,0,0,1,1.934,8.458c1.971,3.769,2.712,6.549,6.574,6.549a13.559,13.559,0,0,0-8.508-24.122H205.59a4.45,4.45,0,1,1,0-8.9h3.886a4.425,4.425,0,0,1,3.807,2.143,4.558,4.558,0,0,0,7.786-4.739,13.464,13.464,0,0,0-8.978-6.269V73.293a4.558,4.558,0,1,0-9.115,0v2.183a13.565,13.565,0,0,0,2.615,26.876Z" transform="translate(-141.732 -19.476)"/><circle cx="2.032" cy="2.032" r="2.032" transform="translate(65.294 136.171)"/><circle cx="2.032" cy="2.032" r="2.032" transform="translate(65.294 142.944)"/><circle cx="2.032" cy="2.032" r="2.032" transform="translate(65.294 136.171)"/><circle cx="2.032" cy="2.032" r="2.032" transform="translate(65.294 142.944)"/><g transform="translate(44.881 126.606)"><path class="i" d="M215.547,397.321v-8.293a8.72,8.72,0,0,0-8.72-8.72h-4.946l-7.171,4.6a1.389,1.389,0,0,1-.751.22h-1.707a1.391,1.391,0,0,1-.751-.22l-7.171-4.6h-4.946a8.72,8.72,0,0,0-8.72,8.72v8.293l7.924,8.129h29.033Z" transform="translate(-170.666 -380.308)"/><path class="i" d="M187.379,439.355a2.032,2.032,0,0,1-2.032-2.032V431.1a2.032,2.032,0,1,1,4.064,0v6.224A2.032,2.032,0,0,1,187.379,439.355Z" transform="translate(-181.486 -416.245)"/><path class="i" d="M313.233,439.933A2.032,2.032,0,0,1,311.2,437.9v-6.8a2.032,2.032,0,0,1,4.064,0v6.8A2.032,2.032,0,0,1,313.233,439.933Z" transform="translate(-274.244 -416.246)"/></g><path class="j" d="M377.494,380.308h-4.946l-7.514,7.718h-2.522L355,380.308h-4.946a8.72,8.72,0,0,0-8.72,8.72v15.715a.708.708,0,0,0,.708.708h43.466a.708.708,0,0,0,.708-.708V389.028A8.72,8.72,0,0,0,377.494,380.308Z" transform="translate(-251.571 -253.702)"/><path class="k" d="M408.239,363.051v-2.615c-2.161,1.478-10.167,1.478-12.328,0v2.615a2.611,2.611,0,0,1-2.611,2.611l8.779,12.822,8.771-12.822A2.611,2.611,0,0,1,408.239,363.051Z" transform="translate(-289.872 -239.056)"/><path class="a" d="M216.017,380.308,213.7,387.8a.965.965,0,0,0,1.351,1.149l8.135-4.04Z" transform="translate(-157.47 -253.702)"/><path class="a" d="M269.271,380.308l2.316,7.495a.965.965,0,0,1-1.351,1.149l-8.135-4.04Z" transform="translate(-193.174 -253.702)"/><path class="l" d="M404.4,384.451a4.3,4.3,0,0,1-4.644,0l-6.452-4.143,8.775,25.143,8.775-25.143Z" transform="translate(-289.872 -253.702)"/><path class="j" d="M36.161,380.308H32.794a11.089,11.089,0,0,1-10.353,6.554,11.089,11.089,0,0,1-10.353-6.554H8.72A8.72,8.72,0,0,0,0,389.028v15.715a.708.708,0,0,0,.708.708H44.174a.708.708,0,0,0,.708-.708V389.028A8.721,8.721,0,0,0,36.161,380.308Z" transform="translate(0 -253.702)"/><path class="i" d="M59.482,263.487c-1.787-1.787-14.276-1.932-16.064-.144l-3.536,7.379.156,2.116.549,7.452c.434,5.891,7.7,9.974,11.248,9.974s10.814-4.083,11.248-9.974l.542-7.359.1-1.358Z" transform="translate(-29.394 -166.56)"/><path class="m" d="M218.71,258.864l-7.576,11.587,0,.023.549,7.452c.434,5.891,7.7,9.974,11.248,9.974s10.814-4.083,11.248-9.974l.542-7.359.23-3.123S221.585,262,218.71,258.864Z" transform="translate(-155.611 -164.195)"/><path class="g" d="M392.613,239.447A12.093,12.093,0,0,0,380.7,252.57l.813,11.044c.434,5.891,7.7,9.974,11.248,9.974s10.814-4.083,11.248-9.974l.823-11.175A12.1,12.1,0,0,0,392.613,239.447Z" transform="translate(-280.562 -149.884)"/><path class="n" d="M26.471,431.1a2.032,2.032,0,1,0-4.064,0v10.288h4.064V431.1Z" transform="translate(-16.515 -289.639)"/><path class="n" d="M136.873,431.1a2.032,2.032,0,1,0-4.064,0v10.288h4.064V431.1Z" transform="translate(-97.883 -289.639)"/><path class="h" d="M79.655,312.511a2.032,2.032,0,1,1,0-4.064.051.051,0,0,0,.05-.051v-1.488a2.032,2.032,0,0,1,4.063,0V308.4A4.119,4.119,0,0,1,79.655,312.511Z" transform="translate(-57.21 -198.108)"/><path class="g" d="M250.321,312.511a2.032,2.032,0,0,1,0-4.064.051.051,0,0,0,.051-.051v-1.488a2.032,2.032,0,0,1,4.064,0V308.4A4.119,4.119,0,0,1,250.321,312.511Z" transform="translate(-182.995 -198.108)"/><path class="n" d="M367.8,431.1a2.032,2.032,0,1,0-4.064,0v10.288H367.8V431.1Z" transform="translate(-268.085 -289.639)"/><path class="n" d="M478.206,431.1a2.032,2.032,0,0,0-4.064,0v10.288h4.064V431.1Z" transform="translate(-349.454 -289.639)"/><path class="k" d="M420.988,312.511a2.032,2.032,0,1,1,0-4.064.051.051,0,0,0,.05-.051v-1.488a2.032,2.032,0,0,1,4.063,0V308.4A4.119,4.119,0,0,1,420.988,312.511Z" transform="translate(-308.781 -198.108)"/><path class="o" d="M49.487,250.51l.594.594a1.468,1.468,0,0,0,2.076,0l.449-.449a4.577,4.577,0,0,1,6.472,0l4.243,4.243.181-2.458a12.1,12.1,0,1,0-24.132.131l.109,1.476,3.536-3.536A4.576,4.576,0,0,1,49.487,250.51Z" transform="translate(-28.991 -149.885)"/><path class="f" d="M218.657,248.7a15.146,15.146,0,0,0,10.71,4.436h4.751l.051-.692a12.1,12.1,0,1,0-24.133.131l.263,3.57,7.444-7.444A.645.645,0,0,1,218.657,248.7Z" transform="translate(-154.776 -149.885)"/><path class="g" d="M170.667,445v7.421a.708.708,0,0,0,.708.708h7.216V445Z" transform="translate(-125.786 -301.385)"/><path class="g" d="M311.2,445v8.129h7.216a.708.708,0,0,0,.708-.708V445Z" transform="translate(-229.363 -301.385)"/><circle class="a" cx="2.032" cy="2.032" r="2.032" transform="translate(65.294 136.171)"/><circle class="a" cx="2.032" cy="2.032" r="2.032" transform="translate(65.294 142.944)"/></g></g></svg>