<svg xmlns="http://www.w3.org/2000/svg" xmlns:xlink="http://www.w3.org/1999/xlink" width="1920" height="142" viewBox="0 0 1920 142"><defs><style>.a,.b{fill:#fff;}.b{stroke:#707070;}.c{clip-path:url(#a);}.d{clip-path:url(#b);}.e{clip-path:url(#c);}.f{opacity:0.111;}.f,.g{fill:url(#d);}.g{opacity:0.094;}.h{clip-path:url(#f);}.i{opacity:0.151;fill:url(#g);}.j{opacity:0.065;fill:url(#h);}</style><clipPath id="a"><rect class="a" width="1920" height="142"/></clipPath><clipPath id="b"><rect class="b" width="1041" height="142" transform="translate(-0.555 0.243)"/></clipPath><clipPath id="c"><rect class="b" width="589" height="133" transform="translate(629.588 0.313)"/></clipPath><linearGradient id="d" x1="0.5" x2="0.5" y2="1" gradientUnits="objectBoundingBox"><stop offset="0" stop-color="#8c171a"/><stop offset="1" stop-color="#ed394d"/></linearGradient><clipPath id="f"><rect class="b" width="344" height="83" transform="translate(0 -0.27)"/></clipPath><linearGradient id="g" x1="0.5" x2="0.5" y2="1" gradientUnits="objectBoundingBox"><stop offset="0" stop-color="#8c171a"/><stop offset="1" stop-color="#ff5d5d"/></linearGradient><linearGradient id="h" x1="0.5" x2="0.5" y2="1" gradientUnits="objectBoundingBox"><stop offset="0" stop-color="#ff5d5d"/><stop offset="1" stop-color="#8c171a"/></linearGradient></defs><g class="c"><g class="d" transform="translate(879.555 -0.244)"><g class="e" transform="translate(-178.143 8.931)"><g transform="translate(-602.804 1.67)"><path class="f" d="M708.444,156.074c53.988-28.929,154.011-39.838,224.95-39.937,134.833-8.208,280.578,41.976,528.608,42.263,173.246,1.99,215.276,9.187,306.817,4.831,98.069-4.667,293.678-27.183,323.323-29.827,94.5-9.388,112.086-40.728,188.5-71.094,69.262-27.526,164.618-40.5,248.98-35.882V134.519s-171.748-.311-253.685,0-169.041-3.529-236.815,22.415Z" transform="translate(-708.444 -2.629)"/><path class="g" d="M1025.452,137.153c49.394-30.823,112.281-41.832,173.509-45.628S1322,90.313,1382.772,82.938c47.326-5.744,96.043-18.782,128.2-48.7a112.907,112.907,0,0,0,22.316-28.51V71.44s-58.641.319-94,12.106c-49.077,16.36-89.592,22.795-172.613,31.418s-129.843,21.519-129.843,21.519Z" transform="translate(286.889 -5.729)"/></g></g></g><g class="h" transform="translate(344 82.73) rotate(180)"><g transform="translate(-290.338 -0.617)"><path class="i" d="M0,81.141c18.8-17.978,53.644-24.758,78.353-24.82,46.964-5.1,97.729,26.087,184.121,26.265,60.344,1.237,102.884-5.89,134.769-8.6a657.2,657.2,0,0,0,68.119-8.915C498.276,59.24,521,41.741,547.615,22.87,571.74,5.763,604.953-2.3,634.338.57V50.1C609.7,64.584,574.516,65.879,545.976,66.072s-58.879-.52-82.486,15.6Z" transform="translate(0 2)"/><path class="j" d="M0,81.676c16.278-19.156,37-26,57.179-28.357s40.548-.753,60.574-5.336C133.35,44.413,149.4,36.31,160,17.718A81.721,81.721,0,0,0,167.354,0V40.837s-19.325.2-30.977,7.524C120.2,58.528,106.852,62.527,79.493,67.886S36.7,81.26,36.7,81.26Z" transform="translate(466.654 2)"/></g></g></g></svg>