<svg xmlns="http://www.w3.org/2000/svg" width="107.146" height="135.976" viewBox="0 0 107.146 135.976"><defs><style>.a{fill:#80d6fb;}.b{fill:#46bee8;}.c{fill:#dd9a5e;}.d{fill:#d18c54;}.e{fill:#4e3e35;}.f{fill:#392e2b;}.g{fill:#edae6b;}.h{fill:#6e83b7;}.i{fill:#466089;}.j{fill:#ffe352;}.k{fill:#525252;}.l{fill:#3b3b3b;}.m{fill:#2f2f2f;}.n{fill:#ddd;}.o{fill:#b2b2b2;}.p{fill:#ecf0f1;}.q{fill:#cecece;}.r{fill:#adadad;}.s{fill:#fff;}.t{fill:#8c171a;}.u{fill:#333;}</style></defs><g transform="translate(-348.573 -809)"><g transform="translate(348.573 809)"><path class="a" d="M127.048,332.335c-.1-.481-5.936-29.822-6-30.123a11.372,11.372,0,0,0-5.391-7.674,12.945,12.945,0,0,0-3.706-1.5l-19.916-6.961a2.908,2.908,0,0,1-1.965-2.751v-6.1a25.02,25.02,0,0,1-22.728.108v5.99a2.908,2.908,0,0,1-1.965,2.751l-8.187,2.807h-.008v0h0l-11.713,4.15-1.541.455a11.785,11.785,0,0,0-6.557,5.772c-.937,1.9-.659,1.233-5.207,24.064-1.684,8.72-2.056,9.356-1.845,11.3.586,5.446,6.188,4.878,6.339,4.944h84.1C120.819,339.554,128.146,340.111,127.048,332.335Z" transform="translate(-30.266 -203.6)"/><path class="b" d="M37.213,373.41l6-32.86a11.454,11.454,0,0,1,4.956-7.4c-5.037,1.785-3.476,1.071-5.025,1.734a11.482,11.482,0,0,0-6.308,6.724c-.447,1.269-.157.154-4.67,22.788-1.684,8.72-2.056,9.357-1.845,11.3.586,5.446,6.188,4.878,6.339,4.944H43.5C38.674,380.649,36.588,377.827,37.213,373.41Z" transform="translate(-30.267 -244.676)"/><path class="a" d="M49.056,465.713H36.676c-.159-.069-6.543.572-6.384-6.084.035-1.419.212-1.479,1.89-10.164l.1-.487H49.056Z" transform="translate(-30.283 -329.739)"/><path class="b" d="M38.964,448.979H32.279l-.1.487c-1.683,8.716-1.855,8.743-1.89,10.164-.159,6.634,6.258,6.029,6.384,6.084h6.841c-4.446,0-6.473-2.339-6.384-6.084C37.144,459.2,37.306,458.286,38.964,448.979Z" transform="translate(-30.284 -329.74)"/><path class="c" d="M169.87,273.671c0,17.012,0-1.938,0,11.461h.007v.41a6.333,6.333,0,0,0,4.319,6.006,23.057,23.057,0,0,0,14.074,0,6.332,6.332,0,0,0,4.319-6.006v-.41h.007c0-2.666,0-10.035,0-11.461A23.826,23.826,0,0,1,169.87,273.671Z" transform="translate(-132.794 -200.99)"/><path class="d" d="M176.719,289.61h-.009c0-14.243,0-9.5,0-10.492a24.932,24.932,0,0,1-6.841-2.447c0,17.012,0-2.735,0,10.664h.007v.41a6.333,6.333,0,0,0,4.319,6.006,21.074,21.074,0,0,0,4.024.915A8.1,8.1,0,0,1,176.719,289.61Z" transform="translate(-132.793 -203.193)"/><path class="b" d="M95.279,423.7a2.052,2.052,0,0,0-2.052,2.052v21.4h4.1v-21.4A2.052,2.052,0,0,0,95.279,423.7Z" transform="translate(-76.506 -311.176)"/><path class="e" d="M120.177.068A32.841,32.841,0,0,0,87.577,32.9V45.342h65.672V26.728c0-12.714-7.822-15.643-7.822-15.643C135.7-.909,120.19.068,120.19.068" transform="translate(-72.356 -0.036)"/><path class="f" d="M124.609.229A32.944,32.944,0,0,0,87.6,31.57c-.052,1.33-.017.833-.028,13.736h7.822V32.864A32.838,32.838,0,0,1,124.609.229Z" transform="translate(-72.352 0)"/><g transform="translate(14.719 40.996)"><path class="c" d="M94.277,154.77c-4.119-1.468-8.59,1.262-8.59,5.244s4.47,6.712,8.59,5.244Z" transform="translate(-85.687 -154.367)"/><path class="c" d="M304.4,154.77c4.119-1.468,8.59,1.262,8.59,5.244s-4.47,6.712-8.59,5.244Z" transform="translate(-246.317 -154.367)"/></g><g transform="translate(14.705 44.231)"><path class="d" d="M86.25,166.548c-2.406,4.567,2.66,9.554,7.988,7.655v-4.823A6.57,6.57,0,0,1,86.25,166.548Z" transform="translate(-85.635 -166.548)"/><path class="d" d="M304.4,169.381V174.2c5.328,1.9,10.394-3.088,7.988-7.655C311.385,168.459,307.512,170.488,304.4,169.381Z" transform="translate(-246.303 -166.548)"/></g><path class="g" d="M165.92,98.716a1.241,1.241,0,0,1,1.129,1.232c0,21.06.014,19.47-.035,20.449a24.948,24.948,0,0,1-7.52,16.634c-15.614,15.223-41.668,4.427-42.452-16.927-.037-.941-.021-11.849-.021-11.818a8.039,8.039,0,0,1,9.207-7.946c7.645,1.1,18.8.675,28.542-7.648a2.067,2.067,0,0,1,3.158.572A10.108,10.108,0,0,0,165.92,98.716Z" transform="translate(-93.978 -67.708)"/><path class="c" d="M123.887,142.655c-.031-.807-.025-15.583-.022-19.757a8.031,8.031,0,0,0-6.843,7.939c0-.031-.015,10.877.021,11.818.578,15.745,14.893,25.747,28.633,23.815A24.962,24.962,0,0,1,123.887,142.655Z" transform="translate(-93.979 -90.259)"/></g><g transform="translate(407.447 887.927)"><g transform="translate(11.5)"><path class="h" d="M64.864,52.3s8.492-8.649,4.656-11.642c-2.655-2.074-5.354,1.242-6.986-1.165C60.078,35.873,57.877,36,57.877,36s-2.2-.127-4.656,3.493c-1.632,2.4-4.329-.911-6.986,1.165C42.4,43.651,50.891,52.3,50.891,52.3H64.864Z" transform="translate(-45.241 -36)"/></g><path class="i" d="M64.384,44.954a18.559,18.559,0,0,0-4.417-1.259,7.211,7.211,0,0,0,1.762-3.664l-2.155-.41c-.549,2.879-2.368,3.548-3.166,3.708-.14,0-.294-.011-.413-.011s-.252.007-.38.009c-.836-.16-2.651-.832-3.2-3.706l-2.155.41a7.2,7.2,0,0,0,1.764,3.664,18.6,18.6,0,0,0-4.419,1.259,3.579,3.579,0,0,0-.792.5c1.174,1.483,2.194,2.523,2.194,2.523h13.97s1.02-1.04,2.194-2.523A3.63,3.63,0,0,0,64.384,44.954Z" transform="translate(-31.859 -31.676)"/><g transform="translate(14.822 12.808)"><path class="j" d="M56.069,47.658h9.314V45.512a2.36,2.36,0,0,0-1.406-2.144,21.181,21.181,0,0,0-15.816,0,2.357,2.357,0,0,0-1.406,2.144v2.146Z" transform="translate(-46.755 -41.837)"/></g><g transform="translate(0 15.36)"><path class="h" d="M64.136,43H66.33A17.554,17.554,0,0,1,83.884,60.553V71.792a4.65,4.65,0,0,0,1.363,3.289l1.663,1.663a4.65,4.65,0,0,1,1.363,3.289v0A4.651,4.651,0,0,1,83.62,84.69H44.652A4.651,4.651,0,0,1,40,80.038v0a4.65,4.65,0,0,1,1.363-3.289l1.663-1.663a4.65,4.65,0,0,0,1.363-3.289V60.553A17.554,17.554,0,0,1,61.942,43Z" transform="translate(-40 -43)"/></g><g transform="translate(15.359 26.151)"><circle class="j" cx="8.777" cy="8.777" r="8.777"/></g><path class="h" d="M54.661,54.624H52.335a1.232,1.232,0,1,1,0-2.464h2.328A1.232,1.232,0,0,1,55.9,53.391h2.194a3.429,3.429,0,0,0-3.427-3.425H54.6V48.733H52.4v1.233h-.066a3.426,3.426,0,1,0,0,6.852h2.328a1.231,1.231,0,1,1,0,2.462H52.335A1.232,1.232,0,0,1,51.1,58.05H48.908a3.429,3.429,0,0,0,3.427,3.425H52.4v1.233H54.6V61.475h.066a3.425,3.425,0,1,0,0-6.85Z" transform="translate(-29.362 -20.794)"/></g><path class="k" d="M120.177.068A32.841,32.841,0,0,0,87.577,32.9V45.342l44.561,28.37V88.556l21.111,5.318V26.728c0-12.714-7.822-15.643-7.822-15.643C135.7-.909,120.19.068,120.19.068" transform="translate(276.216 808.964)"/><path class="l" d="M127.048,332.335c-.1-.481-5.936-29.822-6-30.123a11.372,11.372,0,0,0-5.391-7.674,12.945,12.945,0,0,0-3.706-1.5l-19.916-6.961a2.908,2.908,0,0,1-1.965-2.751v-6.1a25.02,25.02,0,0,1-22.728.108v5.99a2.908,2.908,0,0,1-1.965,2.751l-8.187,2.807h-.008v0h0l-11.713,4.15-1.541.455a11.785,11.785,0,0,0-6.557,5.772c-.937,1.9-.659,1.233-5.207,24.064-1.684,8.72-2.056,9.356-1.845,11.3.586,5.446,6.188,4.878,6.339,4.944h84.1C120.819,339.554,128.146,340.111,127.048,332.335Z" transform="translate(318.307 605.4)"/><path class="m" d="M37.213,373.41l6-32.86a11.454,11.454,0,0,1,4.956-7.4c-5.037,1.785-3.476,1.071-5.025,1.734a11.482,11.482,0,0,0-6.308,6.724c-.447,1.269-.157.154-4.67,22.788-1.684,8.72-2.056,9.357-1.845,11.3.586,5.446,6.188,4.878,6.339,4.944H43.5C38.674,380.649,36.588,377.827,37.213,373.41Z" transform="translate(318.306 564.325)"/><path class="n" d="M2402.948,7717.108l-12.986-19.994-10.817-19.4,45.6-.719-11.4,20.12Z" transform="translate(-2004.691 -6783.106)"/><path class="l" d="M49.056,465.713H36.676c-.159-.069-6.543.572-6.384-6.084.035-1.419.212-1.479,1.89-10.164l.1-.487H49.056Z" transform="translate(318.29 479.261)"/><path class="m" d="M38.964,448.979H32.279l-.1.487c-1.683,8.716-1.855,8.743-1.89,10.164-.159,6.634,6.258,6.029,6.384,6.084h6.841c-4.446,0-6.473-2.339-6.384-6.084C37.144,459.2,37.306,458.286,38.964,448.979Z" transform="translate(318.289 479.26)"/><path class="m" d="M95.279,423.7a2.052,2.052,0,0,0-2.052,2.052v21.4h4.1v-21.4A2.052,2.052,0,0,0,95.279,423.7Z" transform="translate(272.067 497.824)"/><g transform="translate(374.04 891.45)"><path class="o" d="M61.26,38.926,50.725,36H25.52L14.984,38.926l14.594,21.62,8.544-10.683,8.544,10.683Z" transform="translate(-14.984 -36)"/></g><path class="p" d="M169.87,273.671c0,17.012,0-1.938,0,11.461h.007v.41a6.333,6.333,0,0,0,4.319,6.006,23.057,23.057,0,0,0,14.074,0,6.332,6.332,0,0,0,4.319-6.006v-.41h.007c0-2.666,0-10.035,0-11.461A23.826,23.826,0,0,1,169.87,273.671Z" transform="translate(215.779 608.01)"/><path class="q" d="M176.719,289.61h-.009c0-14.243,0-9.5,0-10.492a24.932,24.932,0,0,1-6.841-2.447c0,17.012,0-2.735,0,10.664h.007v.41a6.333,6.333,0,0,0,4.319,6.006,21.074,21.074,0,0,0,4.024.915A8.1,8.1,0,0,1,176.719,289.61Z" transform="translate(215.779 605.807)"/><g transform="translate(407.447 887.927)"><g transform="translate(11.5)"><path class="r" d="M64.864,52.3s8.492-8.649,4.656-11.642c-2.655-2.074-5.354,1.242-6.986-1.165C60.078,35.873,57.877,36,57.877,36s-2.2-.127-4.656,3.493c-1.632,2.4-4.329-.911-6.986,1.165C42.4,43.651,50.891,52.3,50.891,52.3H64.864Z" transform="translate(-45.241 -36)"/></g><path class="s" d="M64.384,44.954a18.559,18.559,0,0,0-4.417-1.259,7.211,7.211,0,0,0,1.762-3.664l-2.155-.41c-.549,2.879-2.368,3.548-3.166,3.708-.14,0-.294-.011-.413-.011s-.252.007-.38.009c-.836-.16-2.651-.832-3.2-3.706l-2.155.41a7.2,7.2,0,0,0,1.764,3.664,18.6,18.6,0,0,0-4.419,1.259,3.579,3.579,0,0,0-.792.5c1.174,1.483,2.194,2.523,2.194,2.523h13.97s1.02-1.04,2.194-2.523A3.63,3.63,0,0,0,64.384,44.954Z" transform="translate(-31.859 -31.676)"/><g transform="translate(14.822 12.808)"><path class="t" d="M56.069,47.658h9.314V45.512a2.36,2.36,0,0,0-1.406-2.144,21.181,21.181,0,0,0-15.816,0,2.357,2.357,0,0,0-1.406,2.144v2.146Z" transform="translate(-46.755 -41.837)"/></g><g transform="translate(0 15.36)"><path class="r" d="M64.136,43H66.33A17.554,17.554,0,0,1,83.884,60.553V71.792a4.65,4.65,0,0,0,1.363,3.289l1.663,1.663a4.65,4.65,0,0,1,1.363,3.289v0A4.651,4.651,0,0,1,83.62,84.69H44.652A4.651,4.651,0,0,1,40,80.038v0a4.65,4.65,0,0,1,1.363-3.289l1.663-1.663a4.65,4.65,0,0,0,1.363-3.289V60.553A17.554,17.554,0,0,1,61.942,43Z" transform="translate(-40 -43)"/></g><g transform="translate(15.359 26.151)"><circle class="t" cx="8.777" cy="8.777" r="8.777"/></g><path class="s" d="M54.661,54.624H52.335a1.232,1.232,0,1,1,0-2.464h2.328A1.232,1.232,0,0,1,55.9,53.391h2.194a3.429,3.429,0,0,0-3.427-3.425H54.6V48.733H52.4v1.233h-.066a3.426,3.426,0,1,0,0,6.852h2.328a1.231,1.231,0,1,1,0,2.462H52.335A1.232,1.232,0,0,1,51.1,58.05H48.908a3.429,3.429,0,0,0,3.427,3.425H52.4v1.233H54.6V61.475h.066a3.425,3.425,0,1,0,0-6.85Z" transform="translate(-29.362 -20.794)"/></g><path class="u" d="M124.45.229A32.944,32.944,0,0,0,87.442,31.57C87.39,32.9,86.3,89.917,86.3,89.917l22.546-8.007.863-7.747-14.47-41.3A32.838,32.838,0,0,1,124.45.229Z" transform="translate(276.38 809)"/><g transform="translate(363.291 849.996)"><path class="p" d="M94.277,154.77c-4.119-1.468-8.59,1.262-8.59,5.244s4.47,6.712,8.59,5.244Z" transform="translate(-85.687 -154.367)"/><path class="p" d="M304.4,154.77c4.119-1.468,8.59,1.262,8.59,5.244s-4.47,6.712-8.59,5.244Z" transform="translate(-246.317 -154.367)"/></g><g transform="translate(363.278 853.231)"><path class="q" d="M86.25,166.548c-2.406,4.567,2.66,9.554,7.988,7.655v-4.823A6.57,6.57,0,0,1,86.25,166.548Z" transform="translate(-85.635 -166.548)"/><path class="q" d="M304.4,169.381V174.2c5.328,1.9,10.394-3.088,7.988-7.655C311.385,168.459,307.512,170.488,304.4,169.381Z" transform="translate(-246.303 -166.548)"/></g><path class="p" d="M165.92,98.716a1.241,1.241,0,0,1,1.129,1.232c0,21.06.014,19.47-.035,20.449a24.948,24.948,0,0,1-7.52,16.634c-15.614,15.223-41.668,4.427-42.452-16.927-.037-.941-.021-11.849-.021-11.818a8.039,8.039,0,0,1,9.207-7.946c7.645,1.1,18.8.675,28.542-7.648a2.067,2.067,0,0,1,3.158.572A10.108,10.108,0,0,0,165.92,98.716Z" transform="translate(254.594 741.292)"/><path class="q" d="M123.887,142.655c-.031-.807-.025-15.583-.022-19.757a8.031,8.031,0,0,0-6.843,7.939c0-.031-.015,10.877.021,11.818.578,15.745,14.893,25.747,28.633,23.815A24.962,24.962,0,0,1,123.887,142.655Z" transform="translate(254.594 718.741)"/><g transform="translate(376.173 886.177)"><path class="n" d="M24.4,34,16,40.534,28.6,59.2,37,48.7Z" transform="translate(-16 -34)"/></g><g transform="translate(397.177 886.177)"><path class="n" d="M38.6,34,47,40.534,34.4,59.2,26,48.7Z" transform="translate(-26 -34)"/></g></g></svg>