<svg xmlns="http://www.w3.org/2000/svg" width="128.998" height="128.998" viewBox="0 0 128.998 128.998"><defs><style>.a{fill:#dedede;}.b{fill:#64b5f6;}.c{fill:#c1c1c1;}.d{fill:#919191;}.e{fill:#a2a2a2;}.f{fill:#525252;}.g{fill:#8c171a;}.h{fill:#727272;}.i{fill:#333;}.j{fill:#6a0a0c;}</style></defs><path class="a" d="M47,0,90,16.125,47,32.249,4,16.125Z" transform="translate(17.5)"/><path class="b" d="M4,3,47,19.125V72.874L4,56.749Z" transform="translate(17.5 13.125)"/><path class="c" d="M12,72.874,55,56.749V3L12,19.125Z" transform="translate(52.499 13.125)"/><path class="d" d="M47,0,4,16.125,47,32.249Z" transform="translate(17.5)"/><path class="e" d="M4,3V56.749L47,72.874V19.125Z" transform="translate(17.5 13.125)"/><g transform="translate(0 91.373)"><path class="f" d="M33.593,29.812H4.031a4.031,4.031,0,1,1,0-8.062H33.593a4.031,4.031,0,1,1,0,8.062Z" transform="translate(0 3.781)"/><path class="g" d="M20.094,29.812H12.031a4.031,4.031,0,1,1,0-8.062h8.062a4.031,4.031,0,1,1,0,8.062Z" transform="translate(34.999 3.781)"/><path class="h" d="M12.094,25.812H4.031a4.031,4.031,0,0,1,0-8.062h8.062a4.031,4.031,0,0,1,0,8.062Z" transform="translate(0 -13.719)"/><path class="h" d="M37.593,25.812H8.031a4.031,4.031,0,0,1,0-8.062H37.593a4.031,4.031,0,0,1,0,8.062Z" transform="translate(17.5 -13.719)"/><path class="f" d="M25.094,29.812H17.031a4.031,4.031,0,1,1,0-8.062h8.062a4.031,4.031,0,1,1,0,8.062Z" transform="translate(56.874 3.781)"/><path class="f" d="M50.593,29.812H21.031a4.031,4.031,0,1,1,0-8.062H50.593a4.031,4.031,0,1,1,0,8.062Z" transform="translate(74.373 3.781)"/><path class="h" d="M41.218,25.812H17.031a4.031,4.031,0,0,1,0-8.062H41.218a4.031,4.031,0,1,1,0,8.062Z" transform="translate(56.874 -13.719)"/><path class="h" d="M37.468,25.812H24.031a4.031,4.031,0,0,1,0-8.062H37.468a4.031,4.031,0,0,1,0,8.062Z" transform="translate(87.498 -13.719)"/><path class="f" d="M9.531,37.125A4.033,4.033,0,0,1,5.5,33.094V25.031a4.031,4.031,0,1,1,8.062,0v8.062A4.033,4.033,0,0,1,9.531,37.125Z" transform="translate(24.062 0.5)"/><path class="h" d="M5.531,33.125A4.033,4.033,0,0,1,1.5,29.094V21.031a4.031,4.031,0,1,1,8.062,0v8.062A4.033,4.033,0,0,1,5.531,33.125Z" transform="translate(6.562 -17)"/><path class="f" d="M18.531,37.125A4.033,4.033,0,0,1,14.5,33.094V25.031a4.031,4.031,0,1,1,8.062,0v8.062A4.033,4.033,0,0,1,18.531,37.125Z" transform="translate(63.436 0.5)"/><path class="h" d="M21.531,33.125A4.033,4.033,0,0,1,17.5,29.094V21.031a4.031,4.031,0,1,1,8.062,0v8.062A4.033,4.033,0,0,1,21.531,33.125Z" transform="translate(76.561 -17)"/></g><path class="f" d="M41.5,18.5H20a4.033,4.033,0,0,0,4.031,4.031H37.468A4.033,4.033,0,0,0,41.5,18.5Z" transform="translate(87.498 80.936)"/><path class="f" d="M41.624,18.5H4a4.033,4.033,0,0,0,4.031,4.031H37.593A4.033,4.033,0,0,0,41.624,18.5Z" transform="translate(17.5 80.936)"/><path class="f" d="M37.187,18.5H13a4.033,4.033,0,0,0,4.031,4.031H37.187Z" transform="translate(56.874 80.936)"/><path class="f" d="M8.062,18.5H0a4.033,4.033,0,0,0,4.031,4.031H8.062Z" transform="translate(0 80.936)"/><path class="f" d="M9.562,18.5H1.5v4.031a4.031,4.031,0,0,0,8.062,0Z" transform="translate(6.562 80.936)"/><path class="f" d="M25.562,18.5H17.5v4.031a4.031,4.031,0,1,0,8.062,0Z" transform="translate(76.561 80.936)"/><path class="i" d="M54.624,22.5H17a4.033,4.033,0,0,0,4.031,4.031H50.593A4.033,4.033,0,0,0,54.624,22.5Z" transform="translate(74.373 98.435)"/><path class="j" d="M24.125,22.5H8a4.033,4.033,0,0,0,4.031,4.031h8.062A4.033,4.033,0,0,0,24.125,22.5Z" transform="translate(34.999 98.435)"/><path class="i" d="M21.062,22.5H13a4.033,4.033,0,0,0,4.031,4.031h4.031Z" transform="translate(56.874 98.435)"/><path class="i" d="M29.562,22.5H0a4.033,4.033,0,0,0,4.031,4.031H29.562Z" transform="translate(0 98.435)"/><path class="i" d="M13.562,22.5H5.5v4.031a4.031,4.031,0,1,0,8.062,0Z" transform="translate(24.062 98.435)"/><path class="i" d="M22.562,22.5H14.5v4.031a4.031,4.031,0,1,0,8.062,0Z" transform="translate(63.436 98.435)"/></svg>