<svg xmlns="http://www.w3.org/2000/svg" width="110.693" height="125.535" viewBox="0 0 110.693 125.535"><defs><style>.a{fill:#3b3b3b;}.b{fill:#2f2f2f;}.c{fill:#ecf0f1;}.d{fill:#cecece;}.e{fill:#c6c6c6;}.f{fill:#b7b7b7;}.g{fill:#ededed;}.h{fill:#dadada;}.i{fill:#8c171a;}.j{fill:#6a0a0c;}.k{fill:#4c4846;}.l{fill:#3d3938;}</style></defs><g transform="translate(-30.266 0)"><path class="a" d="M119.616,328.1c-.089-.444-5.48-27.532-5.54-27.81a10.5,10.5,0,0,0-4.977-7.085,11.952,11.952,0,0,0-3.421-1.387L87.291,285.4a2.685,2.685,0,0,1-1.814-2.54v-5.63a23.1,23.1,0,0,1-20.982.1v5.53a2.685,2.685,0,0,1-1.814,2.54l-7.558,2.592h-.007L44.3,291.821l-1.423.42a10.88,10.88,0,0,0-6.053,5.329c-.865,1.755-.609,1.139-4.807,22.216-1.555,8.051-1.9,8.637-1.7,10.436.541,5.028,5.713,4.5,5.853,4.564h77.643C113.866,334.767,120.63,335.282,119.616,328.1Z" transform="translate(0 -209.253)"/><path class="b" d="M36.68,370.319l5.539-30.336a10.574,10.574,0,0,1,4.575-6.829c-4.651,1.648-3.209.989-4.639,1.6a10.6,10.6,0,0,0-5.824,6.208c-.413,1.172-.145.142-4.312,21.039-1.555,8.051-1.9,8.638-1.7,10.436.541,5.028,5.713,4.5,5.853,4.564h6.315C38.029,377,36.1,374.4,36.68,370.319Z" transform="translate(-0.001 -251.469)"/><path class="c" d="M47.615,464.428H36.185c-.146-.064-6.041.528-5.894-5.617.032-1.31.2-1.365,1.744-9.384l.089-.449h15.49Z" transform="translate(-0.017 -338.895)"/><path class="d" d="M38.3,448.979H32.127l-.089.449c-1.554,8.046-1.712,8.072-1.744,9.384-.147,6.125,5.777,5.566,5.894,5.617H42.5c-4.1,0-5.976-2.159-5.894-5.617C36.618,458.411,36.768,457.571,38.3,448.979Z" transform="translate(-0.018 -338.896)"/><path class="c" d="M169.87,273.671c0,15.706,0-1.789,0,10.581h.007v.378a5.846,5.846,0,0,0,3.988,5.544,21.286,21.286,0,0,0,12.993,0,5.846,5.846,0,0,0,3.988-5.544v-.378h.007c0-2.461,0-9.264,0-10.581A22,22,0,0,1,169.87,273.671Z" transform="translate(-105.375 -206.571)"/><path class="d" d="M176.193,288.616h-.008c0-13.149,0-8.768,0-9.686a23.018,23.018,0,0,1-6.315-2.259c0,15.706,0-2.525,0,9.845h.007v.378a5.846,5.846,0,0,0,3.988,5.544,19.455,19.455,0,0,0,3.715.844A7.48,7.48,0,0,1,176.193,288.616Z" transform="translate(-105.375 -208.835)"/><path class="b" d="M95.122,423.7a1.9,1.9,0,0,0-1.895,1.895v19.752h3.789V425.6A1.894,1.894,0,0,0,95.122,423.7Z" transform="translate(-47.524 -319.816)"/><path class="e" d="M259.731,489.549H198.392a4.634,4.634,0,0,1-4.634-4.634h0a2.656,2.656,0,0,1,2.656-2.656h65.3a2.656,2.656,0,0,1,2.656,2.656h0A4.634,4.634,0,0,1,259.731,489.549Z" transform="translate(-123.406 -364.016)"/><path class="f" d="M205.694,484.915h0a2.656,2.656,0,0,1,2.656-2.656H196.414a2.656,2.656,0,0,0-2.656,2.656h0a4.634,4.634,0,0,0,4.634,4.634h11.936A4.634,4.634,0,0,1,205.694,484.915Z" transform="translate(-123.406 -364.016)"/><path class="g" d="M273.016,316.826h-53.3a3.04,3.04,0,0,0-3.031,3.031v34.5a3.04,3.04,0,0,0,3.031,3.031h53.3a3.04,3.04,0,0,0,3.031-3.031v-34.5A3.04,3.04,0,0,0,273.016,316.826Z" transform="translate(-140.709 -239.145)"/><g transform="translate(75.972 77.681)"><path class="h" d="M223,354.356v-34.5a3.04,3.04,0,0,1,3.031-3.031h-6.315a3.04,3.04,0,0,0-3.031,3.031v34.5a3.04,3.04,0,0,0,3.031,3.031h6.315A3.04,3.04,0,0,1,223,354.356Z" transform="translate(-216.682 -316.826)"/><path class="i" d="M4.379,0A4.379,4.379,0,1,1,0,4.379,4.379,4.379,0,0,1,4.379,0Z" transform="translate(25.305 15.901)"/></g><path class="j" d="M324.249,381.7a4.376,4.376,0,1,0,3.788,6.561A4.373,4.373,0,0,1,324.249,381.7Z" transform="translate(-218.591 -288.111)"/><path class="k" d="M117.674.067a30.32,30.32,0,0,0-30.1,30.31V41.864h60.629V24.679c0-11.738-7.221-14.442-7.221-14.442C132-.836,117.686.066,117.686.066" transform="translate(-43.259 -0.036)"/><path class="l" d="M121.765.211A30.414,30.414,0,0,0,87.6,29.146c-.048,1.228-.016.769-.026,12.681h7.221V30.341A30.316,30.316,0,0,1,121.765.211Z" transform="translate(-43.255 0)"/><g transform="translate(43.854 37.849)"><path class="c" d="M93.617,154.739c-3.8-1.355-7.93,1.165-7.93,4.841s4.127,6.2,7.93,4.841Z" transform="translate(-85.687 -154.367)"/><path class="c" d="M304.4,154.739c3.8-1.355,7.93,1.165,7.93,4.841s-4.127,6.2-7.93,4.841Z" transform="translate(-250.777 -154.367)"/></g><g transform="translate(43.842 40.835)"><path class="d" d="M86.2,166.548c-2.221,4.216,2.455,8.82,7.375,7.067v-4.452A6.066,6.066,0,0,1,86.2,166.548Z" transform="translate(-85.635 -166.548)"/><path class="d" d="M304.4,169.163v4.452c4.919,1.753,9.6-2.851,7.375-7.067A6.808,6.808,0,0,1,304.4,169.163Z" transform="translate(-250.764 -166.548)"/></g><path class="c" d="M162.165,98.216a1.146,1.146,0,0,1,1.042,1.137c0,19.443.013,17.975-.033,18.879a23.032,23.032,0,0,1-6.942,15.357c-14.415,14.055-38.468,4.087-39.192-15.627-.034-.869-.02-10.939-.02-10.911a7.422,7.422,0,0,1,8.5-7.335c7.058,1.019,17.361.623,26.35-7.061a1.908,1.908,0,0,1,2.915.528A9.332,9.332,0,0,0,162.165,98.216Z" transform="translate(-65.482 -69.588)"/><path class="d" d="M123.36,141.138c-.029-.745-.023-14.387-.02-18.24a7.415,7.415,0,0,0-6.318,7.329c0-.028-.014,10.042.02,10.911.533,14.536,13.749,23.77,26.434,21.986A23.045,23.045,0,0,1,123.36,141.138Z" transform="translate(-65.482 -92.765)"/></g></svg>