<svg xmlns="http://www.w3.org/2000/svg" xmlns:xlink="http://www.w3.org/1999/xlink" width="225" height="225" viewBox="0 0 225 225"><defs><style>.a{fill:#fff;}.b{opacity:0.151;fill:url(#c);}.c{fill:#ff5353;font-size:24px;font-family:GillSans-SemiBold, Gill Sans;font-weight:600;letter-spacing:0.052em;}.d{fill:#e58e13;}.e{fill:#f7d360;}.f{filter:url(#a);}</style><filter id="a" x="0" y="0" width="225" height="225" filterUnits="userSpaceOnUse"><feOffset dy="3" input="SourceAlpha"/><feGaussianBlur stdDeviation="3" result="b"/><feFlood flood-opacity="0.161"/><feComposite operator="in" in2="b"/><feComposite in="SourceGraphic"/></filter><linearGradient id="c" x1="0.873" y1="0.114" x2="0.132" y2="0.886" gradientUnits="objectBoundingBox"><stop offset="0" stop-color="#fff"/><stop offset="1" stop-color="gray" stop-opacity="0"/></linearGradient></defs><g transform="translate(9 6)"><g class="f" transform="matrix(1, 0, 0, 1, -9, -6)"><path class="a" d="M25,0H182a25,25,0,0,1,25,25V182a25,25,0,0,1-25,25H25A25,25,0,0,1,0,182V25A25,25,0,0,1,25,0Z" transform="translate(9 6)"/></g><rect class="b" width="194" height="192" rx="28" transform="translate(6.972 8)"/><text class="c" transform="translate(103.5 187)"><tspan x="-82.491" y="0">Notificaciones</tspan></text><g transform="translate(45 27)"><path class="d" d="M197.451,406.387a19.132,19.132,0,1,1-38.263,0l19.163-9.848Zm0,0" transform="translate(-118.856 -297.006)"/><path class="e" d="M237.266,459.285a19.177,19.177,0,0,1-13.09,12.539,19.149,19.149,0,0,1-9.758-6.4,3.783,3.783,0,0,1,2.971-6.138Zm0,0" transform="translate(-159.597 -344.003)"/><path class="e" d="M137.4,119.347l-41.1,8.889-57.692-8.889c4.527,0,7.087-2.368,8.54-6.295,7.029-18.957-11.692-74.2,40.86-74.2s33.828,55.248,40.857,74.2C130.318,116.979,132.877,119.347,137.4,119.347Zm0,0" transform="translate(-28.541 -29.097)"/><path class="d" d="M118.425,369.124a9.565,9.565,0,0,1-9.565,9.565h-98.8a9.565,9.565,0,0,1,0-19.13h98.8a9.564,9.564,0,0,1,9.565,9.566Zm0,0" transform="translate(0 -269.308)"/><path class="d" d="M128.868,113.061H77.519a9.8,9.8,0,0,1-9.791-10.116c.724-23.41-3.01-63.644,19.9-64.086-62.885.326-22.686,80.5-49.013,80.5h98.794C132.883,119.356,130.324,116.988,128.868,113.061Zm0,0" transform="translate(-28.547 -29.106)"/><path class="e" d="M200.906,369.124a9.565,9.565,0,0,1-9.565,9.565H120.187a9.565,9.565,0,1,1,0-19.13h71.155a9.564,9.564,0,0,1,9.565,9.566Zm0,0" transform="translate(-82.48 -269.308)"/><path class="d" d="M216.04,10.483c.021-.241.028-.485.028-.732a9.751,9.751,0,0,0-19.5,0c0,.247.008.491.028.732" transform="translate(-146.853)"/><g transform="translate(1.35 6.692)"><path class="a" d="M374.148,62.07a1.967,1.967,0,0,1-1.967-1.967c0-9.1-2.34-16.873-6.956-23.092a25.573,25.573,0,0,0-6.983-6.661,1.967,1.967,0,0,1,1.908-3.44,28.746,28.746,0,0,1,8.095,7.57c3.591,4.771,7.87,13.089,7.87,25.623A1.968,1.968,0,0,1,374.148,62.07Zm0,0" transform="translate(-268.545 -26.664)"/><path class="a" d="M427.416,53.14a1.967,1.967,0,0,1-1.967-1.967c0-12.556-7.436-17.548-7.753-17.754a1.967,1.967,0,0,1,2.121-3.313c.391.248,9.566,6.257,9.566,21.067A1.967,1.967,0,0,1,427.416,53.14Zm0,0" transform="translate(-313.158 -29.012)"/><path class="a" d="M40.334,62.067A1.967,1.967,0,0,1,38.367,60.1c0-12.534,4.28-20.852,7.869-25.623a28.742,28.742,0,0,1,8.095-7.57,1.967,1.967,0,0,1,1.908,3.441,25.592,25.592,0,0,0-6.982,6.66C44.641,43.227,42.3,51,42.3,60.1A1.969,1.969,0,0,1,40.334,62.067Zm0,0" transform="translate(-29.712 -26.662)"/><path class="a" d="M5.854,53.138a1.967,1.967,0,0,1-1.967-1.967c0-14.809,9.175-20.819,9.566-21.067a1.967,1.967,0,0,1,2.12,3.313c-.327.214-7.752,5.207-7.752,17.754A1.967,1.967,0,0,1,5.854,53.138Zm0,0" transform="translate(-3.887 -29.01)"/></g></g></g></svg>