<svg xmlns="http://www.w3.org/2000/svg" xmlns:xlink="http://www.w3.org/1999/xlink" width="225" height="225" viewBox="0 0 225 225"><defs><style>.a{fill:#fff;}.b{opacity:0.151;fill:url(#c);}.c{fill:#ff5353;font-size:24px;font-family:GillSans-SemiBold, Gill Sans;font-weight:600;letter-spacing:0.052em;}.d{fill:#2196f3;}.e{fill:#64b5f6;}.f{fill:#42a5f5;}.g{fill:#1d83d4;}.h{fill:#579ed6;}.i{fill:#cfd8dc;}.j{fill:#b4bcc0;}.k{filter:url(#a);}</style><filter id="a" x="0" y="0" width="225" height="225" filterUnits="userSpaceOnUse"><feOffset dy="3" input="SourceAlpha"/><feGaussianBlur stdDeviation="3" result="b"/><feFlood flood-opacity="0.161"/><feComposite operator="in" in2="b"/><feComposite in="SourceGraphic"/></filter><linearGradient id="c" x1="0.873" y1="0.114" x2="0.132" y2="0.886" gradientUnits="objectBoundingBox"><stop offset="0" stop-color="#fff"/><stop offset="1" stop-color="gray" stop-opacity="0"/></linearGradient></defs><g transform="translate(9 6)"><g class="k" transform="matrix(1, 0, 0, 1, -9, -6)"><rect class="a" width="207" height="207" rx="25" transform="translate(9 6)"/></g><rect class="b" width="194" height="192" rx="28" transform="translate(6.972 8)"/><text class="c" transform="translate(104.001 188.786)"><tspan x="-66.507" y="0">Parámetros</tspan></text><g transform="translate(39.001 27.309)"><path class="d" d="M47,0,90,16.125,47,32.249,4,16.125Z" transform="translate(17.5)"/><path class="e" d="M4,3,47,19.125V72.874L4,56.749Z" transform="translate(17.5 13.125)"/><path class="f" d="M12,72.874,55,56.749V3L12,19.125Z" transform="translate(52.499 13.125)"/><path class="g" d="M47,0,4,16.125,47,32.249Z" transform="translate(17.5)"/><path class="h" d="M4,3V56.749L47,72.874V19.125Z" transform="translate(17.5 13.125)"/><g transform="translate(0 91.373)"><path class="i" d="M33.593,29.812H4.031a4.031,4.031,0,1,1,0-8.062H33.593a4.031,4.031,0,1,1,0,8.062Z" transform="translate(0 3.781)"/><path class="i" d="M20.094,29.812H12.031a4.031,4.031,0,1,1,0-8.062h8.062a4.031,4.031,0,1,1,0,8.062Z" transform="translate(34.999 3.781)"/><path class="i" d="M12.094,25.812H4.031a4.031,4.031,0,0,1,0-8.062h8.062a4.031,4.031,0,0,1,0,8.062Z" transform="translate(0 -13.719)"/><path class="i" d="M37.593,25.812H8.031a4.031,4.031,0,0,1,0-8.062H37.593a4.031,4.031,0,0,1,0,8.062Z" transform="translate(17.5 -13.719)"/><path class="i" d="M25.094,29.812H17.031a4.031,4.031,0,1,1,0-8.062h8.062a4.031,4.031,0,1,1,0,8.062Z" transform="translate(56.874 3.781)"/><path class="i" d="M50.593,29.812H21.031a4.031,4.031,0,1,1,0-8.062H50.593a4.031,4.031,0,1,1,0,8.062Z" transform="translate(74.373 3.781)"/><path class="i" d="M41.218,25.812H17.031a4.031,4.031,0,0,1,0-8.062H41.218a4.031,4.031,0,1,1,0,8.062Z" transform="translate(56.874 -13.719)"/><path class="i" d="M37.468,25.812H24.031a4.031,4.031,0,0,1,0-8.062H37.468a4.031,4.031,0,0,1,0,8.062Z" transform="translate(87.498 -13.719)"/><path class="i" d="M9.531,37.125A4.033,4.033,0,0,1,5.5,33.094V25.031a4.031,4.031,0,1,1,8.062,0v8.062A4.033,4.033,0,0,1,9.531,37.125Z" transform="translate(24.062 0.5)"/><path class="i" d="M5.531,33.125A4.033,4.033,0,0,1,1.5,29.094V21.031a4.031,4.031,0,1,1,8.062,0v8.062A4.033,4.033,0,0,1,5.531,33.125Z" transform="translate(6.562 -17)"/><path class="i" d="M18.531,37.125A4.033,4.033,0,0,1,14.5,33.094V25.031a4.031,4.031,0,1,1,8.062,0v8.062A4.033,4.033,0,0,1,18.531,37.125Z" transform="translate(63.436 0.5)"/><path class="i" d="M21.531,33.125A4.033,4.033,0,0,1,17.5,29.094V21.031a4.031,4.031,0,1,1,8.062,0v8.062A4.033,4.033,0,0,1,21.531,33.125Z" transform="translate(76.561 -17)"/></g><path class="j" d="M41.5,18.5H20a4.033,4.033,0,0,0,4.031,4.031H37.468A4.033,4.033,0,0,0,41.5,18.5Z" transform="translate(87.498 80.936)"/><path class="j" d="M41.624,18.5H4a4.033,4.033,0,0,0,4.031,4.031H37.593A4.033,4.033,0,0,0,41.624,18.5Z" transform="translate(17.5 80.936)"/><path class="j" d="M37.187,18.5H13a4.033,4.033,0,0,0,4.031,4.031H37.187Z" transform="translate(56.874 80.936)"/><path class="j" d="M8.062,18.5H0a4.033,4.033,0,0,0,4.031,4.031H8.062Z" transform="translate(0 80.936)"/><path class="j" d="M9.562,18.5H1.5v4.031a4.031,4.031,0,0,0,8.062,0Z" transform="translate(6.562 80.936)"/><path class="j" d="M25.562,18.5H17.5v4.031a4.031,4.031,0,1,0,8.062,0Z" transform="translate(76.561 80.936)"/><path class="j" d="M54.624,22.5H17a4.033,4.033,0,0,0,4.031,4.031H50.593A4.033,4.033,0,0,0,54.624,22.5Z" transform="translate(74.373 98.435)"/><path class="j" d="M24.125,22.5H8a4.033,4.033,0,0,0,4.031,4.031h8.062A4.033,4.033,0,0,0,24.125,22.5Z" transform="translate(34.999 98.435)"/><path class="j" d="M21.062,22.5H13a4.033,4.033,0,0,0,4.031,4.031h4.031Z" transform="translate(56.874 98.435)"/><path class="j" d="M29.562,22.5H0a4.033,4.033,0,0,0,4.031,4.031H29.562Z" transform="translate(0 98.435)"/><path class="j" d="M13.562,22.5H5.5v4.031a4.031,4.031,0,1,0,8.062,0Z" transform="translate(24.062 98.435)"/><path class="j" d="M22.562,22.5H14.5v4.031a4.031,4.031,0,1,0,8.062,0Z" transform="translate(63.436 98.435)"/></g></g></svg>