<svg xmlns="http://www.w3.org/2000/svg" xmlns:xlink="http://www.w3.org/1999/xlink" width="225" height="225" viewBox="0 0 225 225"><defs><style>.a{fill:#fff;}.b{opacity:0.151;fill:url(#c);}.c{fill:#f8ec7d;}.d{fill:#6fe3ff;}.e{fill:#c16752;}.f{fill:#af593c;}.g{fill:#e48e66;}.h{fill:#2561a1;}.i{fill:#ff5353;font-size:24px;font-family:GillSans-SemiBold, Gill Sans;font-weight:600;letter-spacing:0.052em;}.j{filter:url(#a);}</style><filter id="a" x="0" y="0" width="225" height="225" filterUnits="userSpaceOnUse"><feOffset dy="3" input="SourceAlpha"/><feGaussianBlur stdDeviation="3" result="b"/><feFlood flood-opacity="0.161"/><feComposite operator="in" in2="b"/><feComposite in="SourceGraphic"/></filter><linearGradient id="c" x1="0.873" y1="0.114" x2="0.132" y2="0.886" gradientUnits="objectBoundingBox"><stop offset="0" stop-color="#fff"/><stop offset="1" stop-color="gray" stop-opacity="0"/></linearGradient></defs><g transform="translate(9 6)"><g class="j" transform="matrix(1, 0, 0, 1, -9, -6)"><path class="a" d="M25,0H182a25,25,0,0,1,25,25V182a25,25,0,0,1-25,25H25A25,25,0,0,1,0,182V25A25,25,0,0,1,25,0Z" transform="translate(9 6)"/></g><rect class="b" width="194" height="192" rx="28" transform="translate(6.972 8)"/><g transform="translate(18.459 -6.63)"><path class="c" d="M365.508,237.739v58.138a6.643,6.643,0,0,1-6.639,6.642h-39.42a6.64,6.64,0,0,1-6.639-6.641V237.739a6.638,6.638,0,0,1,6.641-6.639h8.965v.02a4.936,4.936,0,0,0,4.938,4.936h11.612a4.935,4.935,0,0,0,4.936-4.938V231.1h8.967a6.64,6.64,0,0,1,6.639,6.639Zm-34.256,36.807v-9.487h-9.484v9.487Z" transform="translate(-211.427 -141.376)"/><path class="d" d="M367.06,218.128v-.3A4.936,4.936,0,0,1,372,212.89H383.61a4.935,4.935,0,0,1,4.936,4.938v.321a4.935,4.935,0,0,1-4.937,4.936H372a4.936,4.936,0,0,1-4.936-4.938Z" transform="translate(-250.071 -128.405)"/><path class="e" d="M257.634,140.973v20.686h-2.04a4.936,4.936,0,0,0-4.936,4.938v.3h-8.967a6.638,6.638,0,0,0-6.639,6.641v42.8l-31.4,18.129V172.133l53.978-31.163Z" transform="translate(-133.669 -77.174)"/><path class="f" d="M135.508,132.784,107.99,116.9,161.965,85.73h0l27.519,15.891Z" transform="translate(-65.527 -37.825)"/><rect class="d" width="9.484" height="9.487" transform="translate(110.341 123.683)"/><path class="e" d="M96.452,47.905,42.477,79.071,16.02,63.8,70,32.63Z" transform="translate(-0.014 0)"/><path class="g" d="M69.981,172.133v62.338L16,203.305V140.973l.006,0,26.457,15.275Z" transform="translate(0 -77.174)"/><path class="d" d="M341.072,291.545h-2.109a2.014,2.014,0,0,1-2.014-2.014v-9.487a2.014,2.014,0,0,1,2.014-2.014h9.484a2.014,2.014,0,0,1,2.014,2.014V281.4a2.014,2.014,0,0,1-3.917.659h-5.567v5.46h.095a2.014,2.014,0,1,1,0,4.027Z" transform="translate(-228.622 -174.806)"/><path class="d" d="M341.072,419.782h-2.109a2.014,2.014,0,0,1-2.014-2.014v-9.484a2.014,2.014,0,0,1,2.014-2.014h9.484a2.014,2.014,0,0,1,2.014,2.014v1.939a2.014,2.014,0,1,1-4.027.075h-5.457v5.457h.095a2.014,2.014,0,1,1,0,4.027Z" transform="translate(-228.622 -266.155)"/><path class="h" d="M359.582,295.893a2.006,2.006,0,0,1-1.423-.589l-3.22-3.216a2.014,2.014,0,0,1,2.848-2.848l1.8,1.794,5.9-5.9a2.014,2.014,0,0,1,2.848,2.848l-7.321,7.321A2.008,2.008,0,0,1,359.582,295.893Z" transform="translate(-241.017 -179.448)"/><path class="h" d="M359.582,425.143a2.006,2.006,0,0,1-1.423-.589l-3.22-3.216a2.014,2.014,0,0,1,2.848-2.848l1.8,1.794,5.9-5.9a2.014,2.014,0,0,1,2.848,2.848l-7.321,7.321A2.008,2.008,0,0,1,359.582,425.143Z" transform="translate(-241.017 -271.517)"/><path class="g" d="M428.553,298.547H415.9a2.014,2.014,0,1,1,0-4.027h12.649a2.014,2.014,0,0,1,0,4.027Z" transform="translate(-283.429 -186.552)"/><path class="g" d="M428.553,362.667H415.9a2.014,2.014,0,1,1,0-4.027h12.649a2.014,2.014,0,0,1,0,4.027Z" transform="translate(-283.429 -232.227)"/><path class="g" d="M428.553,426.787H415.9a2.014,2.014,0,0,1,0-4.027h12.649a2.014,2.014,0,0,1,0,4.027Z" transform="translate(-283.429 -277.902)"/></g><text class="i" transform="translate(107.697 187.293)"><tspan x="-61.142" y="0">Programas</tspan></text></g></svg>