<svg xmlns="http://www.w3.org/2000/svg" width="162" height="195.897" viewBox="0 0 162 195.897"><defs><style>.a,.b{fill:#fff;}.a{stroke:#fff;stroke-miterlimit:10;stroke-width:0.25px;}</style></defs><g transform="translate(7.052 175.64)"><path class="a" d="M13.805,105.527a2.8,2.8,0,0,0-2.227,1.119,4.074,4.074,0,0,0-.931,2.7v1.782h4.079v1.844H10.647v5.561H8.8v-9.186a5.851,5.851,0,0,1,1.471-4.009,4.538,4.538,0,0,1,3.531-1.656h.921v1.843Z" transform="translate(-8.803 -103.684)"/><path class="a" d="M28.908,106.321v10.5H27.064V115.63a6.135,6.135,0,0,1-4.256,1.6,6.087,6.087,0,0,1-4.3-1.656,5.369,5.369,0,0,1,0-8.005,6.089,6.089,0,0,1,4.3-1.658,6.143,6.143,0,0,1,4.256,1.6v-1.2Zm-9.092,7.954a4.575,4.575,0,0,0,6,0,3.531,3.531,0,0,0,0-5.4,4.575,4.575,0,0,0-6,0,3.531,3.531,0,0,0,0,5.4Z" transform="translate(-2.727 -101.971)"/><path class="a" d="M29.994,115.584a5.365,5.365,0,0,1,0-8.005,6.385,6.385,0,0,1,8.864.248l.643.673-1.336,1.274-.642-.673a4.57,4.57,0,0,0-6.225-.217,3.531,3.531,0,0,0,0,5.4,4.57,4.57,0,0,0,6.225-.217l.642-.673,1.336,1.274-.643.663a6.022,6.022,0,0,1-4.567,1.914A6.083,6.083,0,0,1,29.994,115.584Z" transform="translate(6.086 -101.976)"/><path class="a" d="M44.126,103.684v4.35h3.2v1.843h-3.2v8.657H42.282v-8.657h-3.2v-1.843h3.2v-4.35Z" transform="translate(14.437 -103.684)"/><path class="a" d="M49.329,115.584a5.365,5.365,0,0,1,0-8.005,6.383,6.383,0,0,1,8.606,0,5.365,5.365,0,0,1,0,8.005,6.418,6.418,0,0,1-8.606,0Zm1.3-6.7a3.531,3.531,0,0,0,0,5.4,4.578,4.578,0,0,0,6,0,3.531,3.531,0,0,0,0-5.4,4.578,4.578,0,0,0-6,0Z" transform="translate(20.926 -101.976)"/><path class="a" d="M65.967,105.91v1.844h-.931a4.319,4.319,0,0,0-2.994,1.119,3.5,3.5,0,0,0-1.253,2.7v5.251H58.945v-10.5h1.844v1.191a6.127,6.127,0,0,1,4.247-1.607Z" transform="translate(29.682 -101.976)"/><path class="a" d="M67.418,106.145h1.844v10.5H67.418Z" transform="translate(36.185 -101.795)"/><path class="a" d="M79.08,105.91a6.1,6.1,0,0,1,4.307,1.658,5.282,5.282,0,0,1,1.792,4.007v5.251H83.336v-5.251a3.5,3.5,0,0,0-1.253-2.7,4.578,4.578,0,0,0-6,0,3.5,3.5,0,0,0-1.253,2.7v5.251H72.989v-10.5h1.844v1.191A6.127,6.127,0,0,1,79.08,105.91Z" transform="translate(40.461 -101.976)"/><path class="a" d="M96.629,106.325v10.117a5.283,5.283,0,0,1-1.792,4.009,6.1,6.1,0,0,1-4.307,1.656,6.17,6.17,0,0,1-4-1.388l-.714-.58,1.159-1.439.714.58a4.593,4.593,0,0,0,5.842-.134,3.507,3.507,0,0,0,1.243-2.7v-.808a6.412,6.412,0,0,1-8.544-.051,5.365,5.365,0,0,1,0-8.005,6.379,6.379,0,0,1,8.544-.053v-1.2Zm-9.1,7.954a4.589,4.589,0,0,0,6.006,0,3.551,3.551,0,0,0,0-5.4,4.59,4.59,0,0,0-6.006,0,3.548,3.548,0,0,0,0,5.4Z" transform="translate(49.248 -101.976)"/></g><g transform="translate(89.039 126.789)"><g transform="translate(0 0)"><path class="b" d="M93.046,113.162H85.623l-3.394-6.628L74.116,90.628l-8.111,15.906-3.394,6.628H55.188l3.394-6.628L74.116,76.046l15.536,30.488Z" transform="translate(-55.188 -76.046)"/><path class="b" d="M82.1,94.6a11.947,11.947,0,0,0,11.929,11.931h18.559v6.628H94.025a18.558,18.558,0,0,1,0-37.116h18.559v6.628H94.025A11.947,11.947,0,0,0,82.1,94.6Z" transform="translate(-39.623 -76.046)"/></g></g><g transform="translate(0 0)"><path class="b" d="M4.813,86.269c44.736,0,81-36.694,81-81.956h-81Z" transform="translate(-4.813 -4.313)"/><path class="b" d="M166.812,4.313c-44.734,0-81,36.692-81,81.953v0c0,45.261-36.264,81.954-81,81.954h81c0-45.263,36.266-81.954,81-81.954Z" transform="translate(-4.812 -4.313)"/></g></svg>